<svg width="170" height="170" viewBox="0 0 170 170" fill="none" xmlns="http://www.w3.org/2000/svg">
<path d="M133.661 36.3032C133.661 36.0512 133.787 35.7992 133.787 35.5472C133.787 35.2952 133.787 35.1691 133.787 34.9171V35.0431C133.787 35.4212 133.661 35.9252 133.661 36.3032Z" fill="#191E2B"/>
<path d="M132.53 22.0641C132.655 22.5681 132.781 23.1982 132.907 23.7022C132.907 23.1982 132.781 22.6941 132.53 22.0641Z" fill="#191E2B"/>
<path d="M132.655 35.0431C132.53 35.5472 132.404 36.0512 132.152 36.5553C132.404 36.5553 132.781 36.4292 133.033 36.4292C133.284 35.4212 133.536 34.4131 133.661 33.279C133.913 31.5149 133.913 29.6247 133.661 27.7345L133.536 27.1045C133.41 25.9704 133.284 25.4664 133.158 24.5843C133.033 24.3323 133.033 23.9542 132.907 23.5762C133.284 25.0883 133.41 26.7265 133.41 28.2386C133.536 30.6328 133.284 32.775 132.655 35.0431Z" fill="#191E2B"/>
<path d="M132.53 22.0641V21.8121C132.53 21.8121 132.53 21.8121 132.53 21.9381C132.53 21.9381 132.53 21.9381 132.53 22.0641Z" fill="#191E2B"/>
<path d="M128.883 37.1853C129.386 37.0593 129.889 36.9333 130.392 36.9333C133.158 30.5068 133.913 21.8121 128.003 12.8653C127.5 12.2353 127.249 11.8573 126.871 11.3532C126.494 10.8492 125.865 10.2191 124.859 9.08504C124.482 8.70701 124.105 8.32898 123.728 8.07696C131.021 14.8815 134.038 26.3484 128.883 37.1853Z" fill="#191E2B"/>
<path d="M114.172 2.4065C115.303 2.91055 116.309 3.66661 117.441 4.29666C118.447 5.05272 119.453 5.93479 120.459 6.81686C122.848 9.21105 124.734 12.1093 125.991 15.1335C127.249 18.1578 127.877 21.434 128.003 24.8363C128.129 28.1126 127.5 31.5148 126.368 34.6651C125.991 35.9252 125.362 37.0593 124.859 38.1934C124.859 38.1934 124.859 38.1934 124.985 38.1934C125.111 38.1934 125.237 38.0674 125.362 38.0674C125.865 37.9414 126.368 37.8154 126.871 37.5633C127.249 36.6813 127.751 35.7992 128.003 34.9171C129.26 31.7669 129.763 28.4906 129.763 25.0883C129.763 21.8121 129.135 18.5358 127.877 15.5116C126.62 12.4873 124.859 9.58908 122.345 7.19489C121.716 6.56484 121.087 5.93479 120.333 5.43075C119.578 5.05272 118.824 4.54868 118.195 4.04464C117.441 3.5406 116.686 3.16257 115.932 2.78454C115.429 2.53252 114.926 2.28049 114.297 2.02847C114.046 1.90246 113.794 1.77645 113.543 1.77645C113.417 1.77645 113.291 1.65044 113.291 1.65044C112.537 1.39842 111.531 1.1464 110.777 0.894383C110.777 0.894383 110.777 0.894383 110.651 0.894383C110.148 0.768373 109.645 0.642363 109.142 0.516352C109.771 0.642363 110.274 0.768373 110.902 1.02039C111.908 1.39842 113.04 1.90246 114.172 2.4065Z" fill="#191E2B"/>
<path d="M109.016 0.642363C108.513 0.516352 108.01 0.390342 107.507 0.390342C107.382 0.390342 107.382 0.390342 107.256 0.390342C107.256 0.390342 107.256 0.390342 107.382 0.390342C107.885 0.390342 108.388 0.516352 109.016 0.642363Z" fill="#191E2B"/>
<path d="M119.201 40.3356C119.956 39.9575 120.836 39.7055 121.59 39.3275C130.266 23.0722 120.71 -0.617739 99.4601 0.0123118H99.0828C98.0769 0.138322 96.9453 0.264332 95.8136 0.390342C95.4364 0.390342 95.0592 0.516352 94.8077 0.516352C95.0592 0.516352 95.3107 0.390342 95.5621 0.390342C115.806 -2.00385 129.135 21.6861 119.201 40.3356Z" fill="#191E2B"/>
<path d="M95.8136 3.03656C97.6997 3.5406 99.5858 4.29666 101.472 5.43075C103.358 6.56484 105.118 7.82494 106.753 9.58908C109.142 11.9833 111.154 14.8815 112.663 17.9058C114.172 20.93 115.178 24.2063 115.555 27.4825C116.058 30.7588 115.932 34.0351 115.303 37.0593C114.8 39.3275 114.172 41.3436 113.166 43.3598C114.046 42.9818 114.8 42.4777 115.555 42.0997C115.68 42.0997 115.68 41.9737 115.806 41.9737C116.812 40.0835 117.567 38.0674 118.07 36.0512C118.824 32.901 118.95 29.6247 118.572 26.3484C118.195 23.0722 117.315 19.7959 115.932 16.7717C114.549 13.7474 112.537 10.8492 110.148 8.45499C108.513 6.81686 106.879 5.55676 105.118 4.54868C103.358 3.5406 101.598 2.78454 99.7115 2.28049C97.8254 1.52443 96.0651 1.27241 94.179 1.27241C92.4186 1.27241 90.784 1.52443 89.1494 2.02847C89.0237 2.02847 88.8979 2.15448 88.7722 2.15448C88.5207 2.28049 88.1435 2.4065 87.892 2.4065C87.1376 2.65852 86.2574 3.03656 85.503 3.28858C87.0118 2.78454 88.6465 2.53251 90.2811 2.4065C92.0414 2.4065 93.9275 2.53252 95.8136 3.03656Z" fill="#191E2B"/>
<path d="M80.9763 6.18681C82.7367 6.0608 84.6228 6.18681 86.6346 6.69085C88.5207 7.19489 90.5325 8.07696 92.4186 9.21105C94.3047 10.3451 96.3166 11.8573 98.0769 13.6214C100.466 16.0156 102.604 18.9138 104.238 21.8121C105.873 24.8363 107.004 27.9866 107.759 31.0108C108.513 34.1611 108.639 37.3113 108.388 40.2096C108.136 42.6037 107.633 44.8719 106.627 46.8881C107.004 46.6361 107.256 46.5101 107.633 46.258C108.136 45.88 108.891 45.502 109.519 45.1239C110.525 43.1078 111.154 40.9656 111.531 38.5714C111.908 35.5472 111.908 32.3969 111.28 29.2467C110.651 26.0964 109.645 22.8202 108.01 19.9219C106.501 16.8977 104.49 14.1254 101.975 11.6052C100.214 9.8411 98.3284 8.45499 96.4423 7.3209C94.4305 6.31282 92.4186 5.43075 90.5325 5.05272C88.6464 4.54868 86.6346 4.42267 84.8743 4.54868C83.2396 4.67469 81.7308 5.05272 80.3476 5.68277C80.0962 5.80878 79.8447 5.93479 79.5932 5.93479C78.5873 6.31282 77.3299 7.06888 76.324 7.57292C76.4497 7.57292 76.5754 7.44691 76.5754 7.44691C77.9586 6.81686 79.4675 6.43883 80.9763 6.18681Z" fill="#191E2B"/>
<path d="M82.7367 14.7555C84.6228 16.0156 86.6346 17.5277 88.5207 19.5439C90.9098 21.9381 93.0473 24.7103 94.9334 27.6085C96.6938 30.5068 98.0769 33.531 99.0828 36.4292C100.089 39.4535 100.592 42.3517 100.717 44.9979C100.843 47.3921 100.466 49.6603 99.7115 51.5505C100.717 50.9204 101.723 50.1644 102.604 49.5343C103.484 47.5181 103.861 45.25 103.987 42.8558C104.112 40.0835 103.609 37.0593 102.729 34.0351C101.849 31.0108 100.592 27.8606 98.8314 24.9623C97.071 22.0641 95.0592 19.2919 92.5444 16.7717C90.6583 14.8815 88.7722 13.3694 86.7604 12.1093C84.8743 10.8492 82.8624 10.0931 80.9763 9.46307C79.0902 8.95903 77.3299 8.70701 75.5695 8.83302C73.9349 8.95903 72.3003 9.46307 70.9172 10.3451L67.8994 12.4873L67.5222 12.8653C67.5222 12.8653 67.6479 12.8653 67.6479 12.7393C68.9053 11.9833 70.2885 11.4792 71.7973 11.3532C73.432 11.2272 75.1923 11.4792 76.9527 11.9833C78.8388 12.6133 80.7249 13.4954 82.7367 14.7555Z" fill="#191E2B"/>
<path d="M72.5518 21.8121C74.4379 23.1982 76.324 24.8363 78.3358 26.7265C80.7248 29.1207 82.9882 31.8929 85 34.6651C86.8861 37.4373 88.5207 40.3356 89.9038 43.1078C91.1612 45.88 92.0414 48.5262 92.5444 50.9204C92.9216 53.1886 93.0473 55.2048 92.6701 56.9689C92.7959 56.8429 92.9216 56.8429 93.0473 56.7169C93.8018 56.0868 94.8077 55.3308 95.6879 54.7007C96.1908 52.9366 96.3166 50.7944 96.0651 48.4002C95.8136 45.88 95.0592 43.1078 93.8018 40.2096C92.6701 37.3113 91.1612 34.4131 89.2751 31.6409C87.3891 28.8686 85.2515 26.0964 82.7367 23.7022C80.8506 21.8121 78.8388 20.1739 76.9527 18.7878C75.0666 17.5277 73.1805 16.5196 71.4201 15.8896C69.6598 15.2595 68.0251 15.0075 66.5163 15.0075C65.2589 15.0075 64.0015 15.3856 62.9956 16.0156C62.8698 16.1416 62.7441 16.1416 62.6183 16.2676L61.4867 17.0237L60.4808 17.6537L59.0976 18.7878C59.9778 18.0318 61.2352 17.7797 62.6183 17.7797C64.0015 17.7797 65.5104 18.1578 67.2707 18.7878C68.9053 19.4179 70.6657 20.426 72.5518 21.8121Z" fill="#191E2B"/>
<path d="M57.2115 26.4744C58.7204 27.3565 60.355 28.4906 62.1154 29.8767C63.8757 31.2628 65.7618 33.027 67.7737 35.0431C70.1627 37.4373 72.5518 40.0835 74.6894 42.7298C76.8269 45.376 78.713 48.0222 80.2219 50.5424C81.8565 53.0626 83.1139 55.4568 83.8683 57.599C84.7485 59.6151 85.1257 61.3793 85.1257 62.7654C85.2515 62.6394 85.2515 62.6394 85.3772 62.5133C86.1317 61.7573 87.2633 61.0012 88.1435 60.2452C88.2692 58.733 88.0178 56.8429 87.3891 54.7007C86.6346 52.4325 85.6287 49.9123 84.1198 47.2661C82.611 44.6199 80.8506 41.8477 78.8388 39.2015C76.8269 36.5553 74.5636 33.909 72.0488 31.3888C70.037 29.3727 68.1509 27.7345 66.2648 26.3484C64.3787 24.9623 62.7441 23.8282 61.1095 23.0722C59.6006 22.3161 58.0917 21.8121 56.9601 21.6861C55.8284 21.56 54.9482 21.8121 54.1938 22.3161L54.068 22.4421L53.4394 22.9462L52.9364 23.3242L50.5473 25.3404C51.176 24.8363 51.9305 24.7103 53.0621 24.9623C54.4453 25.2143 55.7027 25.7184 57.2115 26.4744Z" fill="#191E2B"/>
<path d="M79.4675 68.0578C79.9704 67.5537 80.4734 67.0497 81.1021 66.5457C80.8506 65.4116 80.2219 63.7734 79.0902 62.0093C77.9586 60.1192 76.5754 57.851 74.8151 55.5828C73.0547 53.1886 71.0429 50.6684 68.7796 48.1482C66.5163 45.628 64.253 42.9818 61.7382 40.5876C59.7263 38.5714 57.8402 36.8073 56.0799 35.2952C54.3195 33.783 52.8106 32.5229 51.4275 31.6409C50.0444 30.6328 48.9127 30.0027 48.0325 29.7507C47.1524 29.3727 46.3979 29.3727 46.1465 29.7507L46.0207 29.8767L43.6317 32.1449L42.8772 32.901C43.1287 32.775 43.6317 32.901 44.3861 33.279C45.1405 33.783 46.2722 34.4131 47.5296 35.5472C48.787 36.5553 50.2959 37.8154 52.0562 39.4535C53.6908 40.9656 55.5769 42.8558 57.5888 44.7459C59.9778 47.1401 62.4926 49.7863 64.7559 52.1805C67.0192 54.7007 69.1568 57.0949 71.0429 59.3631C72.929 61.6313 74.5636 63.6474 75.821 65.4116C77.0784 67.1757 77.9586 68.5618 78.3358 69.5699C78.4615 69.4439 78.4615 69.4439 78.5873 69.3179C78.713 69.1919 78.8388 69.0659 78.9645 68.9399L79.4675 68.0578Z" fill="#191E2B"/>
<path d="M73.9349 73.3502C68.4024 67.5537 40.1109 38.9495 37.9734 37.1853L37.8476 37.3113C36.9675 38.1934 35.9615 39.2015 35.2071 39.9575C35.0814 40.0835 34.9556 40.3356 34.7041 40.4616L34.5784 40.5876C34.4527 40.7136 34.7041 41.2176 35.2071 41.8477C35.7101 42.6037 36.4645 43.6118 37.5962 44.7459C38.7278 46.006 39.9852 47.3921 41.6198 49.1563C43.2544 50.7944 45.0148 52.6846 47.0266 54.7007C49.4157 57.0949 51.9305 59.6151 54.4453 61.8833C56.8343 64.1515 59.2234 66.4197 61.4867 68.3098C63.6243 70.326 65.6361 71.9641 67.2707 73.3502C68.9053 74.7363 70.1627 75.7444 71.0429 76.2485C71.1686 76.1224 71.1686 76.1224 71.2944 75.9964C72.0488 75.2404 73.0547 74.2323 73.9349 73.3502Z" fill="#191E2B"/>
<path d="M32.0636 59.7411C33.5725 61.5053 35.2071 63.3954 37.2189 65.4116C39.608 67.8058 42.2485 70.2 44.8891 72.3421C47.5296 74.4843 50.0444 76.5005 52.5592 78.1386C55.074 79.7767 57.3373 81.1628 59.3491 82.0449C61.3609 82.927 62.9956 83.557 64.253 83.557C64.3787 83.431 64.3787 83.305 64.5044 83.305C65.2589 82.423 66.1391 81.4149 67.0192 80.5328C65.8876 80.2808 64.3787 79.5247 62.4926 78.3906C60.6065 77.2565 58.4689 75.7444 56.0799 73.9803C53.6908 72.2161 51.176 70.2 48.6612 67.9318C46.1465 65.6636 43.6317 63.2694 41.1169 60.8752C39.105 58.8591 37.3447 56.9689 35.8358 55.2048C34.3269 53.4406 33.0695 51.9285 32.1894 50.5424C31.1834 49.1563 30.5547 48.0222 30.1775 47.1401C29.8003 46.258 29.8003 45.628 30.0518 45.25L27.537 48.1482L26.9083 48.7782C26.9083 48.7782 26.9083 48.9043 26.7825 48.9043C26.4053 49.4083 26.4053 50.1644 26.6568 51.0464C26.9083 52.0545 27.537 53.3146 28.2914 54.8267C29.4231 56.3389 30.5547 57.977 32.0636 59.7411Z" fill="#191E2B"/>
<path d="M58.8462 90.1096C59.3491 89.4795 59.9778 88.7235 60.4808 88.0934C58.9719 88.2194 57.0858 87.9674 54.9482 87.3373C52.6849 86.5813 50.1701 85.4472 47.6553 84.0611C45.0148 82.549 42.3743 80.7848 39.608 78.7687C36.9675 76.7525 34.3269 74.4843 31.8121 71.9641C29.8003 69.9479 28.1657 68.0578 26.7825 66.1676C25.3994 64.2775 24.2678 62.6394 23.5133 61.0012C22.7589 59.4891 22.2559 57.977 22.1302 56.8429C22.0044 55.7088 22.2559 54.7007 22.7589 54.0707C22.7589 54.0707 22.7589 53.9447 22.8846 53.9447L22.6331 54.1967L20.1183 57.3469L19.7411 57.725C19.1124 58.607 18.8609 59.6151 18.8609 60.8752C18.8609 62.1353 19.2382 63.6474 19.9926 65.4116C20.747 67.0497 21.753 68.8139 23.0104 70.704C24.3935 72.5942 26.0281 74.4843 27.9142 76.5005C30.3033 78.8947 33.0695 81.1628 35.7101 83.179C38.4763 85.1952 41.2426 86.8333 44.0089 88.2194C46.7751 89.6055 49.2899 90.4876 51.679 91.1177C53.9423 91.6217 55.9541 91.7477 57.5888 91.3697C57.7145 91.2437 57.7145 91.2437 57.8402 91.1177C58.0917 90.8656 58.2175 90.6136 58.4689 90.3616L58.8462 90.1096Z" fill="#191E2B"/>
<path d="M12.8254 75.9964C13.4541 77.7606 14.3343 79.6507 15.5917 81.5409C16.8491 83.431 18.358 85.3212 20.2441 87.2113C22.6331 89.6055 25.3994 91.8737 28.2914 93.6379C31.1834 95.402 34.2012 96.9141 37.0932 97.9222C39.9852 98.9303 42.8772 99.5603 45.6435 99.6863C48.0325 99.8123 50.1701 99.5603 52.182 98.8043C52.5592 98.1742 52.9364 97.6702 53.3136 97.1661C53.6908 96.6621 54.068 96.1581 54.4453 95.654C52.6849 96.2841 50.5473 96.4101 48.1583 96.032C45.6435 95.78 42.8772 95.024 39.9852 93.8899C37.0932 92.7558 34.2012 91.2437 31.4349 89.3535C28.6686 87.4634 25.9024 85.3212 23.5133 82.801C21.6272 80.9108 19.9926 78.8947 18.7352 77.0045C17.4778 75.1144 16.4719 73.2242 15.8432 71.4601C15.2145 69.6959 14.963 68.0578 14.963 66.5457C14.963 65.0335 15.3402 63.7734 16.0947 62.6394L14.0828 65.5376L13.4541 66.4197C13.3284 66.5457 13.3284 66.6717 13.2027 66.7977C12.574 67.9318 12.1967 69.3179 12.071 70.704C12.071 72.4681 12.3225 74.2323 12.8254 75.9964Z" fill="#191E2B"/>
<path d="M42.5 104.475C39.7337 104.601 36.716 104.223 33.6982 103.341C30.6805 102.459 27.537 101.198 24.645 99.4343C21.753 97.6702 18.9867 95.654 16.4719 93.1338C14.5858 91.2437 13.2027 89.3535 11.9453 87.4634C10.8136 85.5732 9.93343 83.6831 9.30473 81.7929C8.80177 79.9027 8.5503 78.1386 8.67604 76.3745C8.80177 74.7363 9.17899 73.0982 10.0592 71.7121V71.8381L8.17308 75.1144L8.04734 75.3664C8.04734 75.3664 8.04734 75.3664 8.04734 75.4924C7.2929 77.0045 6.91568 78.6426 6.78994 80.4068C6.6642 82.1709 6.91568 84.0611 7.41864 85.9512C7.9216 87.8414 8.80177 89.7315 9.93343 91.6217C11.0651 93.5118 12.574 95.402 14.3343 97.1661C16.7234 99.5603 19.4896 101.703 22.5074 103.341C25.5251 104.979 28.5429 106.239 31.6864 106.995C34.8299 107.751 37.8476 108.003 40.7396 107.751C43.1287 107.499 45.392 106.995 47.4039 105.987C48.0326 104.979 48.6612 104.097 49.2899 103.089C47.2781 103.971 45.0148 104.475 42.5 104.475Z" fill="#191E2B"/>
<path d="M44.2604 111.279C44.5118 110.775 44.7633 110.271 45.0148 109.893C43.003 110.901 40.7396 111.531 38.4763 111.909C35.4586 112.413 32.3151 112.287 29.1716 111.657C26.0281 111.027 22.7589 110.019 19.8669 108.381C16.8491 106.869 14.0828 104.853 11.6938 102.333C9.93343 100.568 8.5503 98.6783 7.41864 96.7881C6.28698 94.898 5.53254 93.0078 5.02959 90.9916C4.52663 89.1015 4.40089 87.2113 4.52663 85.3212C4.65237 83.557 5.02959 81.7929 5.78402 80.1548C5.78402 80.1548 5.78402 80.1548 5.78402 80.0288V80.1548L4.65237 82.801L4.40089 83.557C4.27515 83.8091 4.27515 83.9351 4.14941 84.1871C3.64645 85.6992 3.26923 87.3373 3.14349 88.9755C3.01775 90.8656 3.26923 92.7558 3.64645 94.6459C4.14941 96.5361 4.90385 98.5522 6.0355 100.316C7.16716 102.207 8.5503 103.971 10.1849 105.735C12.574 108.129 15.466 110.145 18.4837 111.657C21.5015 113.169 24.7707 114.178 27.9142 114.682C31.1834 115.186 34.3269 115.186 37.4704 114.556C39.7337 114.178 41.8713 113.421 43.8831 112.413C44.0089 112.161 44.2604 111.783 44.3861 111.531C44.3861 111.531 44.3861 111.531 44.3861 111.405L44.2604 111.279Z" fill="#191E2B"/>
<path d="M40.7396 118.336C40.9911 117.706 41.2426 117.076 41.6198 116.446V116.32C41.6198 116.32 41.6198 116.32 41.6198 116.446C41.6198 116.32 41.7456 116.194 41.7456 116.068C24.142 125.518 -3.39497 110.775 2.13757 89.1015C1.88609 90.1096 1.50888 91.3697 1.2574 92.5038C1.2574 92.6298 1.13166 92.7558 1.13166 92.8818C1.13166 93.0078 1.13166 93.1338 1.00592 93.1338C0.880178 93.6379 0.754438 94.2679 0.754438 94.7719C-1.63462 113.043 21.3757 128.795 40.7396 118.336Z" fill="#191E2B"/>
<path d="M6.78994 119.218C9.17899 121.612 12.071 123.502 15.0888 124.762C18.1065 126.022 21.3757 126.779 24.7707 126.905C28.0399 127.031 31.4349 126.527 34.5784 125.518C35.9615 125.014 37.3447 124.51 38.6021 123.754C38.7278 123.502 38.7278 123.25 38.8535 122.998C38.9793 122.494 39.2308 121.99 39.4823 121.486C23.1361 130.181 -0.628698 120.478 0.12574 99.1823V99.3083L0 100.316C0 101.45 0 102.963 0 104.097C0.12574 105.483 0.251479 106.743 0.628698 108.129C0.880177 109.515 1.38314 110.901 1.88609 112.161C2.38905 113.421 3.14349 114.682 3.89793 115.816C4.77811 116.95 5.78402 118.21 6.78994 119.218Z" fill="#191E2B"/>
<path d="M25.7766 130.937C29.0459 130.937 32.3151 130.307 35.4586 129.047C36.0873 128.795 36.716 128.543 37.3447 128.165C37.4704 127.535 37.7219 126.905 37.8476 126.274C23.8905 133.457 6.91568 127.661 1.50888 112.413C1.50888 112.413 1.50888 112.413 1.50888 112.287V112.413C1.88609 113.673 2.64053 115.312 3.14349 116.572C3.52071 117.202 3.89793 118.084 4.27515 118.84C4.52663 119.218 4.77811 119.722 5.02959 120.1C5.28106 120.478 5.65828 120.982 5.90976 121.36C6.16124 121.738 6.53846 122.116 6.91568 122.494C7.2929 122.872 7.54438 123.25 7.9216 123.628C10.3107 126.022 13.2027 127.913 16.2204 129.047C19.2382 130.307 22.5074 130.937 25.7766 130.937Z" fill="#191E2B"/>
<path d="M36.5902 131.693C36.716 131.189 36.716 130.811 36.8417 130.307C28.5429 133.961 19.2382 132.953 11.3166 127.157L12.8254 128.291C12.9512 128.417 12.9512 128.417 13.0769 128.417C13.7056 128.921 14.0828 129.173 14.7115 129.425C15.2145 129.677 15.9689 130.055 17.1006 130.811H17.2263L17.7293 131.063C19.9926 132.071 22.5074 132.827 24.8965 133.079C27.4112 133.331 29.926 133.205 32.4408 132.827C33.824 132.575 35.2071 132.197 36.5902 131.693Z" fill="#191E2B"/>
<path d="M36.3388 133.709C36.3388 133.583 36.3388 133.583 36.3388 133.709C36.3388 133.457 36.3388 133.331 36.4645 133.079C35.2071 133.457 33.824 133.709 32.5666 133.835C30.8062 133.961 29.1716 133.961 27.4112 133.835C27.2855 133.835 27.034 133.835 26.9083 133.709H27.2855C28.1657 133.835 28.5429 133.835 29.2973 133.961C29.8003 133.961 30.5547 133.961 31.8121 133.961C32.0636 133.961 32.3151 133.961 32.5666 133.961C33.1953 133.961 33.824 133.961 34.3269 133.835C34.9556 133.961 35.5843 133.835 36.3388 133.709Z" fill="#191E2B"/>
<path d="M91.9157 160.549C91.6642 160.675 91.5385 160.675 91.4127 160.675C91.4127 160.675 91.4127 160.675 91.287 160.675C91.1612 160.675 90.9098 160.801 90.784 160.801C90.6583 160.801 90.5325 160.927 90.2811 160.927C90.2811 160.927 90.2811 160.927 90.1553 160.927C90.0296 160.927 89.9038 161.053 89.6524 161.053C88.8979 161.935 88.1435 162.817 87.389 163.573C86.6346 164.33 85.7544 164.96 84.8743 165.59C83.9941 166.22 83.1139 166.724 82.108 167.102C81.3535 167.48 80.4734 167.858 79.5932 168.11C80.7248 167.732 81.9822 167.354 82.9882 166.976C83.2396 166.85 83.3654 166.85 83.6169 166.724C88.2692 165.212 90.5325 162.313 91.9157 160.549Z" fill="#191E2B"/>
<path d="M97.6997 157.903C97.4482 158.029 97.3225 158.155 97.071 158.155C97.071 158.155 97.071 158.155 96.9453 158.155C96.8195 158.281 96.568 158.281 96.4423 158.407C96.4423 158.407 96.4423 158.407 96.3166 158.407C96.1908 158.533 95.9393 158.533 95.8136 158.659C95.8136 158.659 95.8136 158.659 95.6879 158.659C95.5621 158.785 95.4364 158.785 95.1849 158.911C95.1849 158.911 95.1849 158.911 95.0592 158.911C92.4186 162.565 90.5325 163.7 88.395 164.708C89.5266 164.204 90.9098 163.447 91.9157 162.943C92.1672 162.817 92.5444 162.565 92.7959 162.439C93.0473 162.313 93.2988 162.187 93.5503 161.935C94.0533 161.557 94.5562 161.179 95.0592 160.675C95.5621 160.171 95.9393 159.793 96.4423 159.163C96.9453 159.037 97.3225 158.533 97.6997 157.903Z" fill="#191E2B"/>
<path d="M103.861 154.375C103.735 154.375 103.735 154.501 103.609 154.501L103.484 154.627C103.358 154.753 103.107 154.879 102.981 154.879L102.855 155.005C102.855 155.005 102.855 155.005 102.729 155.005C102.604 155.131 102.352 155.257 102.226 155.257C102.226 155.257 102.226 155.257 102.101 155.257C101.849 155.383 101.723 155.509 101.472 155.635C101.22 156.139 100.843 156.643 100.592 157.021C100.214 157.525 99.963 157.903 99.5858 158.281C99.2086 158.659 98.8314 159.037 98.4541 159.289C98.2027 159.541 97.8254 159.793 97.574 159.919L100.466 158.155L100.717 158.029C100.717 158.029 100.843 158.029 100.843 157.903C101.22 157.651 101.472 157.399 101.723 157.147C102.101 156.895 102.352 156.517 102.729 156.139C103.107 155.761 103.358 155.383 103.609 155.005C103.861 154.627 104.112 154.123 104.364 153.745C103.987 154.249 103.861 154.375 103.861 154.375Z" fill="#191E2B"/>
<path d="M110.148 150.09C109.896 150.342 109.645 150.468 109.393 150.594C109.393 150.594 109.393 150.594 109.268 150.594C109.142 150.594 109.142 150.72 109.016 150.72C108.891 150.846 108.765 150.972 108.639 150.972C108.513 150.972 108.513 151.098 108.388 151.098C108.262 151.098 108.262 151.225 108.136 151.225C108.01 151.225 108.01 151.351 107.885 151.351C107.759 151.729 107.507 152.107 107.382 152.485C107.13 152.863 107.004 153.115 106.753 153.493C106.501 153.745 106.25 154.123 105.999 154.375C105.747 154.627 105.496 154.753 105.37 155.005L108.639 152.737C108.891 152.611 109.142 152.359 109.393 152.107C109.645 151.855 109.771 151.603 110.022 151.351C110.148 151.098 110.399 150.846 110.525 150.468C110.651 150.216 110.777 149.838 110.902 149.46C110.777 149.586 110.525 149.712 110.399 149.838C110.274 149.964 110.274 149.964 110.148 150.09Z" fill="#191E2B"/>
<path d="M117.064 144.798C116.938 144.798 116.938 144.924 116.812 144.924C116.686 145.05 116.561 145.176 116.309 145.302C116.183 145.302 116.183 145.428 116.058 145.428C115.932 145.554 115.932 145.554 115.806 145.68C115.68 145.68 115.68 145.806 115.555 145.806C115.429 145.932 115.303 146.058 115.052 146.184C114.926 146.184 114.926 146.31 114.8 146.31C114.8 146.31 114.8 146.31 114.675 146.31C114.549 146.562 114.549 146.94 114.423 147.192C114.297 147.444 114.172 147.696 114.046 147.948C113.92 148.2 113.794 148.326 113.669 148.578C113.543 148.704 113.543 148.704 113.417 148.83C113.291 148.956 113.291 148.956 113.166 149.082L114.423 148.074L116.561 146.31C117.315 145.68 117.441 145.05 117.692 144.042C117.567 144.294 117.315 144.42 117.064 144.798C117.064 144.672 117.064 144.672 117.064 144.798Z" fill="#191E2B"/>
<path d="M124.734 138.119C124.608 138.245 124.357 138.371 124.231 138.497C124.105 138.623 124.105 138.623 123.979 138.749C123.854 138.876 123.854 138.876 123.728 139.002C123.602 139.128 123.602 139.128 123.476 139.254C123.351 139.38 123.225 139.506 123.099 139.632C122.973 139.758 122.973 139.758 122.848 139.884C122.848 139.884 122.848 139.884 122.722 140.01C122.47 140.262 122.219 140.388 121.967 140.64C121.967 140.892 121.967 141.018 121.967 141.27C121.967 141.396 121.967 141.648 121.842 141.774C121.842 141.9 121.716 142.026 121.716 142.152C121.716 142.278 121.59 142.278 121.59 142.404C121.59 142.404 121.59 142.404 121.464 142.53L123.979 140.262L124.734 139.506C124.859 139.506 124.859 139.38 124.859 139.254C124.859 139.128 124.985 139.002 124.985 138.876C124.985 138.749 124.985 138.623 124.985 138.497C124.985 138.371 124.985 138.119 124.859 137.993C124.859 137.993 124.859 137.993 124.734 137.993C124.859 137.993 124.734 138.119 124.734 138.119Z" fill="#191E2B"/>
<path d="M131.524 131.693C131.398 131.819 131.398 131.819 131.272 131.945C131.146 132.071 131.021 132.197 130.895 132.323C130.769 132.449 130.769 132.449 130.644 132.575C130.644 132.575 130.644 132.575 130.518 132.701C130.266 132.953 130.015 133.205 129.763 133.457L129.638 133.583C129.512 133.709 129.26 133.961 129.135 134.087C129.26 134.213 129.26 134.339 129.386 134.465C129.386 134.591 129.512 134.717 129.512 134.717C129.512 134.843 129.512 134.843 129.512 134.969C129.512 134.969 129.512 134.969 129.512 135.095L131.146 133.583L132.781 131.945C132.781 131.945 132.655 131.945 132.655 131.819C132.655 131.819 132.53 131.693 132.404 131.567C132.278 131.441 132.152 131.441 132.027 131.315C131.901 131.441 131.901 131.441 131.775 131.567C131.649 131.441 131.524 131.567 131.524 131.693Z" fill="#191E2B"/>
<path d="M140.074 124.006C139.948 124.006 139.822 124.132 139.697 124.132C139.571 124.132 139.445 124.132 139.194 124.132C139.068 124.132 138.817 124.132 138.691 124.132C138.565 124.258 138.439 124.384 138.314 124.51C138.188 124.636 138.188 124.636 138.062 124.762L137.936 124.888C137.685 125.14 137.433 125.392 137.308 125.644L137.182 125.77C137.056 126.022 136.805 126.148 136.679 126.401C136.679 126.527 136.553 126.527 136.553 126.653C136.428 126.779 136.428 126.779 136.302 126.905C136.176 127.031 136.176 127.031 136.05 127.157C136.176 127.283 136.428 127.283 136.553 127.283C136.679 127.283 136.805 127.283 136.93 127.409C137.056 127.409 137.182 127.409 137.182 127.409C137.308 127.409 137.308 127.409 137.308 127.283L138.062 126.527L139.571 124.888L140.451 123.88C140.451 123.88 140.451 123.88 140.325 124.006C140.2 123.88 140.074 123.88 140.074 124.006Z" fill="#191E2B"/>
<path d="M147.115 115.816C146.99 115.942 146.738 116.068 146.487 116.194C146.235 116.32 146.109 116.446 145.858 116.446C145.607 116.572 145.355 116.572 145.104 116.698C144.852 116.95 144.726 117.202 144.475 117.454L144.349 117.58C144.223 117.832 143.972 117.958 143.846 118.21L143.72 118.336C143.595 118.462 143.595 118.462 143.469 118.588C143.343 118.714 143.343 118.84 143.217 118.84C143.092 118.966 142.966 119.092 142.84 119.218C142.714 119.344 142.715 119.344 142.589 119.47L142.463 119.596C142.715 119.596 142.966 119.596 143.092 119.47C143.343 119.47 143.469 119.344 143.72 119.344C143.846 119.218 144.098 119.218 144.223 119.092C144.349 118.966 144.475 118.84 144.601 118.84L144.978 118.462L145.607 117.706L147.618 115.312C147.493 115.438 147.493 115.564 147.367 115.564C147.241 115.69 147.115 115.69 147.115 115.816Z" fill="#191E2B"/>
<path d="M154.031 106.743L154.157 106.617C154.157 106.617 154.157 106.491 154.283 106.491L153.905 106.995C153.905 106.869 154.031 106.743 154.031 106.743Z" fill="#191E2B"/>
<path d="M152.774 108.003C152.522 108.255 152.145 108.507 151.768 108.633C151.391 108.885 151.013 109.011 150.636 109.137C150.636 109.263 150.51 109.263 150.51 109.389C150.385 109.515 150.385 109.641 150.259 109.767L150.133 109.893C150.133 110.019 150.007 110.019 150.007 110.145C149.882 110.271 149.756 110.397 149.756 110.523L149.504 110.775C149.379 110.901 149.253 111.027 149.253 111.153L149.001 111.405C148.876 111.531 148.75 111.657 148.75 111.783C148.75 111.909 148.624 111.909 148.624 112.035C149.001 111.909 149.253 111.783 149.63 111.657C149.882 111.531 150.259 111.405 150.51 111.153C150.762 111.027 151.013 110.775 151.265 110.649C151.516 110.397 151.642 110.271 151.893 110.019L154.283 106.743C154.157 106.869 154.031 106.995 153.905 107.121C153.277 107.625 153.025 107.877 152.774 108.003Z" fill="#191E2B"/>
<path d="M159.061 99.0563C158.683 99.4343 158.432 99.9384 157.929 100.316C157.552 100.694 157.049 101.072 156.672 101.45C156.169 101.829 155.666 102.081 155.163 102.333C155.163 102.459 155.037 102.459 155.037 102.585C154.911 102.711 154.911 102.837 154.786 102.963C154.786 102.963 154.786 103.089 154.66 103.089C154.66 103.215 154.534 103.215 154.534 103.341C154.408 103.467 154.408 103.593 154.283 103.719C154.283 103.719 154.283 103.845 154.157 103.845L154.031 103.971C153.905 104.097 153.905 104.223 153.78 104.349L153.528 104.601C153.402 104.727 153.402 104.853 153.277 104.979L153.151 105.105C153.654 104.853 154.031 104.601 154.534 104.349C154.911 104.097 155.288 103.719 155.666 103.467C156.043 103.089 156.294 102.837 156.672 102.459C156.797 102.333 156.797 102.333 156.923 102.207C157.175 101.955 157.3 101.577 157.552 101.324L159.186 98.8043C159.186 98.9303 159.186 99.0563 159.061 99.0563Z" fill="#191E2B"/>
<path d="M162.078 93.1338C161.575 93.6379 161.072 94.2679 160.444 94.7719C159.815 95.276 159.186 95.78 158.558 96.1581C158.558 96.2841 158.432 96.2841 158.432 96.4101C158.432 96.5361 158.306 96.6621 158.306 96.7881C158.306 96.7881 158.306 96.7881 158.306 96.9141C158.306 96.9141 158.306 97.0401 158.18 97.0401C158.18 97.1662 158.055 97.2922 158.055 97.4182V97.5442C158.055 97.5442 158.055 97.6702 157.929 97.6702C157.929 97.7962 157.803 97.9222 157.803 98.0482V98.1742C157.803 98.1742 157.803 98.3002 157.678 98.3002C157.678 98.4263 157.552 98.5523 157.552 98.6783C157.552 98.6783 157.552 98.8043 157.426 98.8043C158.055 98.4263 158.683 98.0482 159.186 97.5442C159.689 97.1662 160.192 96.6621 160.695 96.1581C161.198 95.654 161.575 95.15 161.953 94.6459C162.078 94.3939 162.204 94.1419 162.33 94.0159C162.581 93.6379 162.707 93.3858 162.833 93.0078L163.964 90.7396C163.839 90.9917 163.713 91.2437 163.462 91.4957C162.959 91.9997 162.581 92.6298 162.078 93.1338Z" fill="#191E2B"/>
<path d="M164.09 90.1096C164.216 89.8576 164.342 89.7315 164.342 89.4795L163.839 90.6136C163.964 90.4876 163.964 90.3616 164.09 90.1096Z" fill="#191E2B"/>
<path d="M167.737 80.9108C167.611 81.2889 167.485 81.6669 167.359 82.1709C167.485 81.7929 167.611 81.4149 167.737 80.9108Z" fill="#191E2B"/>
<path d="M165.222 86.3293C164.593 87.2113 163.964 87.9674 163.21 88.7235C162.456 89.4795 161.701 90.2356 160.821 90.8656V90.9916C160.821 91.1177 160.821 91.1177 160.695 91.2437V91.3697C160.695 91.4957 160.57 91.4957 160.57 91.6217C160.57 91.6217 160.57 91.6217 160.57 91.7477V91.8737C160.57 91.9997 160.444 91.9997 160.444 92.1257C160.444 92.1257 160.444 92.1257 160.444 92.2517V92.3778C160.444 92.5038 160.318 92.6298 160.318 92.6298V92.7558C161.072 92.2517 161.827 91.6217 162.456 90.9916C163.084 90.3616 163.713 89.7315 164.216 88.9755C164.719 88.3454 165.222 87.5894 165.599 86.8333C165.976 86.2033 166.228 85.5732 166.605 84.8172C166.605 84.6911 166.731 84.5651 166.731 84.4391C166.857 84.0611 166.982 83.6831 167.108 83.305C167.234 82.801 167.485 82.297 167.611 81.7929C167.359 82.297 167.234 82.801 166.982 83.305C166.228 84.5651 165.725 85.4472 165.222 86.3293Z" fill="#191E2B"/>
<path d="M167.485 79.2727C166.857 80.5328 165.976 81.7929 165.096 83.053C164.09 84.1871 163.084 85.3212 161.827 86.4553V86.5813C161.827 86.7073 161.827 86.7073 161.827 86.8333V86.9593C161.827 87.0853 161.827 87.0853 161.827 87.2113V87.3373C161.827 87.4634 161.827 87.4634 161.827 87.5894V87.7154C161.827 87.8414 161.827 87.8414 161.827 87.9674C161.827 87.9674 161.827 87.9674 161.827 88.0934C162.833 87.2113 163.839 86.3293 164.719 85.3212C165.599 84.3131 166.354 83.305 166.982 82.2969C167.611 81.2889 168.114 80.1548 168.617 79.0207C168.994 77.8866 169.371 76.7525 169.623 75.4924C169.749 74.7363 169.874 73.7282 170 72.8462C169.874 73.6022 169.749 74.3583 169.497 75.1144C168.617 76.6265 168.114 78.0126 167.485 79.2727Z" fill="#191E2B"/>
<path d="M169.623 72.9722C169.749 72.5942 169.749 72.0901 169.749 71.7121C169.749 71.4601 169.749 71.3341 169.749 71.082V71.208C169.749 71.7121 169.623 72.3421 169.623 72.9722Z" fill="#191E2B"/>
<path d="M168.617 58.103C168.743 58.607 168.868 59.2371 168.994 59.7411C168.868 59.3631 168.743 58.733 168.617 58.103Z" fill="#191E2B"/>
<path d="M168.743 71.082C168.114 73.2242 167.234 75.3664 165.976 77.3825C164.719 79.3987 163.21 81.2889 161.45 82.927V83.9351C162.959 82.549 164.342 81.0368 165.473 79.5247C166.605 77.8866 167.485 76.2485 168.114 74.4843C168.743 72.7202 169.246 70.956 169.497 69.0659C169.749 67.3017 169.749 65.4116 169.497 63.5214L169.371 62.8914C169.246 61.7573 169.12 61.2532 168.994 60.3712C168.868 60.1192 168.868 59.7411 168.743 59.3631C169.12 60.8752 169.246 62.5133 169.246 64.0255C169.623 66.6717 169.246 68.9399 168.743 71.082Z" fill="#191E2B"/>
<path d="M168.617 58.103V57.851C168.617 57.851 168.617 57.851 168.617 57.977V58.103Z" fill="#191E2B"/>
<path d="M159.941 80.6588C159.941 80.7848 160.067 80.7848 159.941 80.6588C160.067 80.7848 160.067 80.7848 160.192 80.7848L160.444 81.0368C160.444 81.0368 160.444 81.0368 160.57 81.1628L160.695 81.2889C166.354 75.7444 173.269 62.6394 164.09 48.6522C163.587 48.0222 163.336 47.6441 162.959 47.1401C162.581 46.6361 161.953 46.006 160.947 44.8719C160.57 44.4939 160.192 44.1159 159.815 43.8638C168.743 52.5585 171.257 68.0578 159.941 80.6588Z" fill="#191E2B"/>
<path d="M158.683 43.1078C159.061 43.3598 159.438 43.7378 159.689 43.9899C159.312 43.6118 158.935 43.3598 158.683 43.1078Z" fill="#191E2B"/>
<path d="M150.259 38.5714C151.391 39.0755 152.396 39.8315 153.528 40.4616C154.534 41.2176 155.54 42.0997 156.546 42.9818C158.935 45.376 160.821 48.2742 162.078 51.2985C163.336 54.3227 163.964 57.599 164.09 61.0012C164.216 64.2775 163.587 67.6798 162.456 70.83C161.324 73.9803 159.564 77.0045 157.3 79.6507C157.426 79.6507 157.552 79.6507 157.552 79.6507C157.678 79.6507 157.803 79.6507 157.803 79.6507C157.929 79.6507 157.929 79.6507 158.055 79.6507C158.18 79.6507 158.18 79.6507 158.306 79.7767C160.695 77.1305 162.456 74.2323 163.713 71.082C164.97 67.9318 165.473 64.6555 165.473 61.2532C165.473 57.977 164.845 54.7007 163.587 51.6765C162.33 48.6522 160.57 45.754 158.055 43.3598C157.426 42.7298 156.797 42.0997 156.043 41.5957C155.414 41.0916 154.66 40.5876 153.905 40.0835C153.151 39.5795 152.396 39.2015 151.642 38.8234C151.139 38.5714 150.636 38.3194 150.007 38.0674C149.756 37.9414 149.504 37.8154 149.253 37.8154C149.127 37.8154 149.001 37.6893 149.001 37.6893C148.247 37.4373 147.241 37.1853 146.487 36.9333C146.487 36.9333 146.487 36.9333 146.361 36.9333C145.858 36.8073 145.355 36.6813 144.852 36.5553C145.481 36.6813 145.984 36.8073 146.612 37.0593C147.996 37.5633 149.127 37.9414 150.259 38.5714Z" fill="#191E2B"/>
<path d="M145.104 36.6813C144.601 36.5553 144.098 36.4292 143.595 36.4292C143.469 36.4292 143.469 36.4292 143.343 36.4292C143.343 36.4292 143.343 36.4292 143.469 36.4292C143.846 36.4292 144.475 36.5553 145.104 36.6813Z" fill="#191E2B"/>
<path d="M131.901 36.5553C131.524 36.5553 131.146 36.6813 130.895 36.6813C131.146 36.6813 131.398 36.5553 131.649 36.5553C153.277 33.783 166.982 60.8752 153.277 79.7767C153.402 79.7767 153.528 79.7767 153.654 79.6507C153.78 79.6507 153.905 79.6507 154.031 79.6507C154.031 79.6507 154.031 79.6507 154.157 79.6507C154.283 79.6507 154.408 79.6507 154.408 79.6507C154.408 79.6507 154.408 79.6507 154.534 79.6507C154.66 79.6507 154.785 79.6507 154.911 79.6507C167.862 63.6474 158.558 35.4212 135.422 36.1772H135.044C134.164 36.3032 132.907 36.4292 131.901 36.5553Z" fill="#191E2B"/>
<path d="M124.734 38.3194C124.482 38.4454 124.231 38.4454 123.854 38.5714C123.099 38.8234 122.219 39.2015 121.464 39.4535C122.973 38.9495 124.608 38.6974 126.243 38.5714C128.129 38.4454 130.015 38.6974 131.901 39.2015C133.787 39.7055 135.673 40.4616 137.559 41.5957C139.445 42.7298 141.206 43.9899 142.84 45.754C145.229 48.1482 147.241 51.0464 148.75 54.0707C150.259 57.0949 151.265 60.3712 151.642 63.6474C152.145 66.9237 152.019 70.2 151.391 73.2242C150.762 76.2485 149.63 79.1467 147.87 81.6669C147.996 81.5409 148.247 81.5409 148.373 81.4149C148.373 81.4149 148.373 81.4149 148.499 81.4149C148.624 81.4149 148.75 81.2889 148.876 81.2889C148.876 81.2889 148.876 81.2889 149.001 81.2889C149.127 81.2889 149.379 81.1628 149.504 81.1628C149.504 81.1628 149.504 81.1628 149.63 81.1628C149.756 81.1628 149.882 81.0368 150.007 81.0368C150.007 81.0368 150.007 81.0368 150.133 81.0368C152.019 78.5166 153.277 75.4924 154.031 72.4681C154.786 69.3179 154.911 66.0416 154.534 62.7654C154.157 59.4891 153.277 56.2128 151.893 53.1886C150.51 50.1644 148.499 47.2661 146.109 44.8719C144.475 43.2338 142.84 41.9737 141.08 40.9656C139.32 39.9575 137.559 39.2015 135.673 38.6974C133.787 38.1934 132.027 37.9414 130.141 37.9414C128.38 37.9414 126.746 38.1934 125.111 38.6974C125.111 38.1934 124.985 38.1934 124.734 38.3194Z" fill="#191E2B"/>
<path d="M113.166 43.2338C112.914 43.3598 112.537 43.6118 112.286 43.7378C112.411 43.7378 112.537 43.6118 112.537 43.6118C113.92 42.9818 115.429 42.6037 116.938 42.4777C118.698 42.3517 120.584 42.4777 122.596 42.9818C124.482 43.4858 126.494 44.3679 128.38 45.502C130.266 46.6361 132.278 48.1482 134.038 49.9123C136.428 52.3065 138.565 55.2048 140.2 58.103C141.834 61.1272 142.966 64.2775 143.72 67.3017C144.475 70.452 144.601 73.6022 144.349 76.5005C144.098 79.3987 143.217 82.1709 141.96 84.4391C141.96 84.4391 141.96 84.4391 142.086 84.4391C142.212 84.3131 142.463 84.3131 142.589 84.1871C142.589 84.1871 142.589 84.1871 142.714 84.1871C142.966 84.0611 143.092 83.9351 143.343 83.9351C143.343 83.9351 143.343 83.9351 143.469 83.9351C143.595 83.8091 143.846 83.8091 143.972 83.6831C143.972 83.6831 143.972 83.6831 144.098 83.6831C144.223 83.557 144.475 83.557 144.601 83.431C146.109 81.0368 147.115 78.2646 147.493 75.2404C147.87 72.2161 147.87 69.0659 147.241 65.9156C146.612 62.7654 145.607 59.4891 143.972 56.5909C142.463 53.5666 140.451 50.7944 137.936 48.4002C136.176 46.6361 134.29 45.25 132.404 44.1159C130.518 42.9818 128.506 42.2257 126.62 41.7217C124.734 41.2176 122.722 41.0916 120.962 41.2176C119.327 41.3436 117.818 41.7217 116.435 42.3517C116.309 42.3517 116.183 42.4777 115.932 42.6037C115.806 42.6037 115.806 42.7298 115.68 42.7298C114.926 42.3517 114.046 42.7298 113.166 43.2338Z" fill="#191E2B"/>
<path d="M136.05 87.9674C136.428 87.7154 136.553 87.5894 136.805 87.4634L136.93 87.3373C137.056 87.2113 137.308 87.0853 137.433 86.9593L137.559 86.8333C137.685 86.8333 137.685 86.7073 137.811 86.7073C137.936 86.7073 137.936 86.5813 138.062 86.5813C139.194 84.4391 139.697 81.7929 139.822 79.0207C139.948 76.2485 139.445 73.2242 138.565 70.2C137.685 67.1757 136.428 64.0255 134.667 61.1272C132.907 58.229 130.895 55.4568 128.38 52.9366C126.494 51.0464 124.608 49.5343 122.596 48.2742C120.71 47.0141 118.698 46.258 116.812 45.628C114.926 45.1239 113.166 44.8719 111.405 44.9979C109.771 45.1239 108.136 45.628 106.753 46.5101L103.609 48.4002L103.232 48.7782C103.232 48.7782 103.358 48.7782 103.358 48.6522C104.615 47.8962 105.999 47.3921 107.507 47.2661C109.142 47.1401 110.902 47.3921 112.663 47.8962C114.549 48.4002 116.435 49.4083 118.321 50.6684C120.207 51.9285 122.219 53.4406 124.105 55.4568C126.494 57.851 128.632 60.6232 130.518 63.5214C132.278 66.4197 133.661 69.4439 134.667 72.3421C135.673 75.3664 136.176 78.2646 136.302 80.9108C136.428 83.557 135.925 86.0772 135.044 88.2194C135.17 88.0934 135.296 88.0934 135.422 87.9674C135.799 88.0934 135.925 87.9674 136.05 87.9674Z" fill="#191E2B"/>
<path d="M129.26 92.7558L129.386 92.6298C129.512 92.5038 129.763 92.3777 129.889 92.2517L130.015 92.1257C130.141 91.9997 130.141 91.9997 130.266 91.8737C130.392 91.7477 130.392 91.7477 130.518 91.6217C130.643 91.4957 130.769 91.4957 130.895 91.3697C131.021 91.3697 131.021 91.2437 131.146 91.2437C131.146 91.2437 131.272 91.2437 131.272 91.1177C131.901 89.2275 132.152 86.9593 131.775 84.3131C131.524 81.7929 130.769 79.0207 129.512 76.1224C128.38 73.2242 126.871 70.326 124.985 67.5537C123.099 64.7815 120.962 62.0093 118.447 59.6151C116.561 57.725 114.549 56.0868 112.663 54.7007C110.777 53.4406 108.891 52.4325 107.13 51.8025C105.37 51.1724 103.735 50.9204 102.226 50.9204C100.969 50.9204 99.7115 51.2984 98.7056 51.9285C98.5799 52.0545 98.4541 52.0545 98.3284 52.1805L97.1967 52.9366L96.1908 53.6926L94.8077 54.7007C95.6879 53.9447 96.9453 53.6926 98.3284 53.6926C99.7115 53.6926 101.22 54.0707 102.981 54.7007C104.615 55.3308 106.501 56.3388 108.388 57.725C110.274 59.1111 112.16 60.7492 114.172 62.6394C116.561 65.0335 118.824 67.8058 120.836 70.578C122.722 73.3502 124.357 76.2485 125.74 79.0207C126.997 81.7929 127.877 84.4391 128.38 86.8333C128.883 89.2275 128.883 91.4957 128.38 93.1338C128.632 93.1338 128.883 93.0078 129.26 92.7558Z" fill="#191E2B"/>
<path d="M93.2988 62.6394C94.8077 63.5214 96.4423 64.6555 98.2027 66.0416C99.963 67.4277 101.849 69.1919 103.861 71.208C106.25 73.6022 108.639 76.2485 110.777 78.8947C112.914 81.5409 114.8 84.1871 116.309 86.7073C117.944 89.2275 119.201 91.6217 119.956 93.7639C120.836 95.906 121.213 97.6702 121.213 99.0563L121.339 98.9303C121.59 98.8043 121.716 98.5522 121.967 98.4262L122.093 98.3002C122.219 98.1742 122.219 98.1742 122.345 98.0482C122.47 97.9222 122.596 97.9222 122.596 97.7962C122.722 97.6702 122.848 97.5442 122.973 97.5442C123.099 97.4182 123.099 97.4182 123.225 97.2921L123.351 97.1661C123.602 96.9141 123.854 96.7881 124.105 96.5361C124.357 95.024 124.105 93.0078 123.351 90.7396C122.596 88.4714 121.59 85.9512 120.081 83.305C118.572 80.6588 116.812 77.8866 114.8 75.2404C112.788 72.5942 110.525 69.9479 108.01 67.4277C105.999 65.4116 104.112 63.7734 102.226 62.3873C100.34 61.0012 98.7056 59.8671 97.071 59.1111C95.5621 58.355 94.0533 57.851 92.9216 57.725C91.7899 57.599 90.9098 57.851 90.1553 58.355L90.0296 58.481L89.4009 58.9851L88.8979 59.3631L86.5089 61.3793C87.1376 60.8752 87.892 60.7492 89.0237 61.0012C90.4068 61.2532 91.7899 61.7573 93.2988 62.6394Z" fill="#191E2B"/>
<path d="M114.8 104.853C114.926 104.727 115.052 104.601 115.178 104.475C115.303 104.349 115.303 104.349 115.429 104.223L115.555 104.097C115.806 103.845 116.058 103.593 116.309 103.467C116.309 103.467 116.309 103.467 116.435 103.467C116.686 103.215 116.938 103.089 117.064 102.837C116.812 101.703 116.183 100.064 115.052 98.1742C113.92 96.2841 112.537 94.0159 110.777 91.7477C109.016 89.3535 107.004 86.8333 104.741 84.3131C102.478 81.7929 100.214 79.1467 97.6997 76.7525C95.6879 74.7363 93.8018 72.9722 92.0414 71.4601C90.2811 69.9479 88.7722 68.6878 87.3891 67.8058C86.0059 66.7977 84.8743 66.1676 83.9941 65.9156C83.1139 65.5376 82.3595 65.5376 82.108 65.9156L81.9822 66.0416L79.4675 68.0578L78.713 68.8139C78.9645 68.6878 79.4675 68.8139 80.2219 69.1919C80.9763 69.6959 82.108 70.326 83.3654 71.4601C84.6228 72.4681 86.1317 73.7282 87.892 75.3664C88.2692 75.7444 88.6465 76.1224 89.0237 76.5005C90.4068 77.7606 91.7899 79.1467 93.4246 80.7848C94.3047 81.6669 95.0592 82.549 95.9393 83.431C97.4482 85.0692 99.0828 86.7073 100.592 88.3454C101.095 88.8495 101.598 89.4795 102.101 89.9836C102.226 90.1096 102.226 90.1096 102.352 90.2356C102.981 90.9916 103.609 91.6217 104.238 92.3778C105.244 93.5118 106.124 94.5199 107.004 95.528C107.256 95.906 107.507 96.1581 107.885 96.5361C108.262 97.0401 108.765 97.5442 109.142 98.0482C110.148 99.3083 111.028 100.442 111.783 101.576C112.286 102.333 112.788 102.963 113.166 103.593C113.669 104.475 114.046 105.105 114.297 105.735L114.423 105.609C114.549 105.483 114.549 105.483 114.675 105.357C114.675 104.979 114.8 104.979 114.8 104.853Z" fill="#191E2B"/>
<path d="M107.633 111.909L107.759 111.783C108.01 111.531 108.262 111.279 108.513 111.027C108.639 110.901 108.765 110.775 108.891 110.649C109.016 110.523 109.016 110.397 109.142 110.397L109.268 110.271C109.393 110.145 109.393 110.145 109.519 110.019L109.896 109.641C104.49 103.845 76.0725 75.2404 73.9349 73.4762L73.8092 73.6022C72.929 74.4843 71.9231 75.4924 71.1686 76.2485C71.0429 76.3745 71.0429 76.3745 70.9172 76.5005C70.7914 76.6265 70.7914 76.6265 70.6657 76.7525L70.5399 76.8785C70.4142 77.0045 70.6657 77.5086 71.1686 78.1386C71.6716 78.8947 72.426 79.9028 73.5577 81.0368C74.6893 82.2969 75.9467 83.6831 77.5814 85.4472C79.216 87.0853 80.9763 88.9755 82.9882 90.9916C85.3772 93.3858 87.892 95.906 90.4068 98.1742C92.7959 100.442 95.1849 102.711 97.4482 104.601C99.5858 106.617 101.598 108.255 103.232 109.641C104.867 111.027 106.25 112.035 107.13 112.539C107.256 112.413 107.382 112.287 107.507 112.161C107.507 112.035 107.633 111.909 107.633 111.909Z" fill="#191E2B"/>
<path d="M92.1672 110.145C89.7781 108.381 87.2633 106.365 84.7485 104.097C84.1198 103.593 83.6169 103.089 82.9882 102.585C81.4793 101.198 79.9704 99.8124 78.4615 98.3002C78.0843 97.9222 77.5814 97.4182 77.2041 97.0401C75.1923 95.024 73.432 93.1338 71.9231 91.3697C71.2944 90.6136 70.7914 89.9836 70.1627 89.3535C69.4083 88.4714 68.7796 87.5894 68.1509 86.7073C67.8994 86.2033 67.5222 85.8252 67.2707 85.4472C66.7678 84.6911 66.3905 83.9351 66.1391 83.305C65.8876 82.675 65.7618 82.1709 65.8876 81.7929C65.8876 81.6669 66.0133 81.6669 66.0133 81.5409L64.0015 83.8091L63.4985 84.4391L62.8698 85.0692C62.8698 85.0692 62.8698 85.1952 62.7441 85.1952C62.3669 85.6992 62.3669 86.4553 62.6183 87.3374C62.8698 88.3454 63.4985 89.6055 64.253 91.1177C65.1331 92.5038 66.2648 94.1419 67.7737 96.0321C69.2825 97.7962 70.9172 99.6863 72.929 101.703C75.318 104.097 77.9586 106.491 80.5991 108.633C83.2396 110.775 85.7544 112.791 88.2692 114.43C90.784 116.068 93.0473 117.454 95.0592 118.336C97.071 119.344 98.8314 119.848 100.089 119.974C100.34 119.722 100.466 119.47 100.717 119.218C100.969 118.966 101.22 118.714 101.346 118.462L101.472 118.336C101.598 118.21 101.598 118.21 101.723 118.084C101.849 117.958 101.975 117.832 101.975 117.706C102.101 117.58 102.226 117.454 102.226 117.328C102.352 117.202 102.352 117.076 102.478 117.076L102.604 116.95C102.226 116.824 101.723 116.698 101.22 116.446C100.34 116.068 99.3343 115.564 98.0769 114.808C97.9512 114.682 97.6997 114.556 97.574 114.556C96.3166 113.799 95.0592 112.917 93.676 111.909C93.5503 111.153 92.7959 110.649 92.1672 110.145Z" fill="#191E2B"/>
<path d="M67.7737 108.003C65.7618 105.987 64.1272 104.097 62.7441 102.207C61.361 100.316 60.2293 98.6783 59.4749 97.0401C58.7204 95.528 58.2175 94.0159 58.0917 92.8818C57.966 91.7477 58.2175 90.7396 58.7204 90.1096C58.7204 90.1096 58.7204 89.9836 58.8462 89.9836L58.5947 90.2356L56.0799 93.3858L55.7027 93.7639C55.074 94.6459 54.8225 95.654 54.8225 96.9141C54.8225 98.1742 55.1997 99.6863 55.9541 101.45C56.7086 103.089 57.7145 104.853 58.9719 106.743C60.355 108.633 61.9896 110.523 63.8757 112.539C66.2648 114.934 69.0311 117.202 71.6716 119.218C74.4379 121.234 77.2041 122.872 79.9704 124.258C82.7367 125.644 85.2515 126.527 87.6405 127.157C90.0296 127.661 92.1672 127.787 93.8018 127.409C94.0533 127.157 94.179 126.905 94.4305 126.653L94.5562 126.527C94.682 126.4 94.682 126.4 94.8077 126.274C94.9334 126.148 95.0592 126.022 95.0592 125.896C95.1849 125.77 95.1849 125.644 95.3107 125.518C95.4364 125.392 95.4364 125.266 95.5621 125.266L95.6879 125.14C95.8136 124.888 96.0651 124.762 96.1908 124.51C96.1908 124.51 96.1908 124.384 96.3166 124.384C94.8077 124.636 92.7959 124.258 90.5325 123.628C88.2692 122.872 85.7544 121.738 83.2396 120.352C80.5991 118.84 77.9586 117.076 75.1923 115.06C72.929 112.665 70.2885 110.397 67.7737 108.003Z" fill="#191E2B"/>
<path d="M59.3491 119.092C57.463 117.202 55.8284 115.186 54.571 113.295C53.3136 111.405 52.3077 109.515 51.679 107.751C51.0503 105.987 50.7988 104.349 50.7988 102.837C50.7988 101.324 51.176 100.064 51.9305 98.9303L49.9186 101.829L49.2899 102.711C49.2899 102.837 49.1642 102.963 49.1642 102.963C48.5355 104.097 48.1583 105.483 48.0325 106.869C47.9068 108.507 48.1583 110.145 48.787 111.909C49.4157 113.673 50.2959 115.564 51.5533 117.454C52.8106 119.344 54.3195 121.234 56.2056 123.124C58.5947 125.518 61.3609 127.787 64.253 129.551C67.145 131.315 70.1627 132.827 73.0547 133.835C75.9467 134.843 78.8388 135.473 81.605 135.599C84.2456 135.725 86.7604 135.347 88.7722 134.465C88.7722 134.339 88.8979 134.339 88.8979 134.213C89.0237 134.087 89.0237 133.961 89.1494 133.835C89.1494 133.835 89.1494 133.709 89.2751 133.709C89.2751 133.583 89.4009 133.583 89.4009 133.457C89.5266 133.331 89.5266 133.205 89.6524 133.079L89.7781 132.953C89.7781 132.827 89.9038 132.827 89.9038 132.701C90.0296 132.575 90.0296 132.449 90.1553 132.323L90.4068 132.071C90.5325 131.945 90.6583 131.819 90.6583 131.693L90.784 131.567C88.8979 132.323 86.5089 132.449 83.9941 132.197C81.4793 131.945 78.713 131.189 75.821 130.055C72.929 128.921 70.037 127.409 67.2707 125.518C64.5044 123.628 61.7382 121.486 59.3491 119.092Z" fill="#191E2B"/>
<path d="M84.7485 141.27C84.8743 141.144 84.8743 141.018 85 140.892C85 140.892 85 140.892 85 140.766C85 140.64 85.1257 140.64 85.1257 140.514C85.2515 140.388 85.2515 140.262 85.3772 140.136C85.3772 140.136 85.3772 140.136 85.3772 140.01C85.3772 139.884 85.503 139.884 85.503 139.758C85.6287 139.632 85.6287 139.506 85.7544 139.38V139.254C85.7544 139.128 85.8802 139.128 85.8802 139.002C86.0059 138.876 86.0059 138.749 86.1317 138.623C86.1317 138.623 86.1317 138.497 86.2574 138.497C83.9941 139.632 81.4793 140.262 78.713 140.388C75.9467 140.514 72.929 140.136 69.9112 139.254C66.8935 138.371 63.75 137.111 60.858 135.347C57.966 133.583 55.1997 131.567 52.6849 129.047C50.7988 127.157 49.4157 125.266 48.1583 123.376C47.0266 121.486 46.1465 119.596 45.5178 117.706C45.0148 115.816 44.7633 114.052 44.8891 112.287C45.0148 110.649 45.392 109.011 46.2722 107.625V107.751L44.3861 111.027L44.2604 111.279C44.2604 111.279 44.2604 111.279 44.2604 111.405C43.5059 112.917 43.1287 114.556 43.003 116.32C42.8772 118.084 43.1287 119.974 43.6317 121.864C44.1346 123.754 45.0148 125.644 46.1465 127.535C47.2781 129.425 48.787 131.315 50.5473 133.079C52.9364 135.473 55.7027 137.615 58.7204 139.254C61.7382 140.892 64.7559 142.152 67.8994 142.908C71.0429 143.664 74.0607 143.916 76.9527 143.664C79.8447 143.412 82.4852 142.656 84.8743 141.396C84.6228 141.396 84.6228 141.27 84.7485 141.27Z" fill="#191E2B"/>
<path d="M41.6198 116.446L40.4882 119.092L40.1109 119.722C39.9852 119.974 39.9852 120.1 39.8595 120.352C39.3565 121.864 38.9793 123.502 38.8535 125.14C38.7278 127.031 38.9793 128.921 39.3565 130.811C39.8595 132.701 40.6139 134.717 41.7456 136.481C42.8772 138.371 44.2604 140.136 45.895 141.9C48.284 144.294 51.176 146.31 54.1938 147.822C57.2115 149.334 60.4808 150.342 63.6243 150.846C66.8935 151.351 70.037 151.351 73.1805 150.72C76.1982 150.09 79.0902 149.082 81.605 147.318V147.192C81.605 147.066 81.7308 146.94 81.7308 146.814C81.7308 146.814 81.7308 146.688 81.8565 146.562C81.8565 146.436 81.9822 146.31 81.9822 146.184C81.9822 146.058 81.9823 146.058 82.108 145.932C82.108 145.806 82.2337 145.68 82.2337 145.554C82.2337 145.428 82.3595 145.428 82.3595 145.302C82.3595 145.176 82.4852 145.05 82.4852 144.924C82.4852 144.924 82.4852 144.924 82.4852 144.798C80.0962 146.31 77.2041 147.318 74.3121 147.822C71.2944 148.326 68.1509 148.2 65.0074 147.57C61.8639 146.94 58.5947 145.932 55.7027 144.294C52.6849 142.782 49.9186 140.766 47.5296 138.245C45.7692 136.481 44.3861 134.591 43.2544 132.701C42.1228 130.811 41.3683 128.921 40.8654 126.905C40.3624 125.014 40.2367 123.124 40.3624 121.234C40.4882 119.722 40.8654 118.084 41.6198 116.446C41.6198 116.32 41.6198 116.32 41.6198 116.32V116.446Z" fill="#191E2B"/>
<path d="M38.0991 125.14C37.8476 126.148 37.4704 127.409 37.2189 128.543C37.2189 128.669 37.0932 128.795 37.0932 128.921C37.0932 129.047 37.0932 129.173 36.9675 129.173C36.8417 129.677 36.716 130.307 36.716 130.811C34.2012 150.09 59.9778 166.598 79.8447 152.485C79.8447 152.359 79.8447 152.233 79.9704 152.107V151.981C79.9704 151.855 80.0962 151.603 80.0962 151.477C80.0962 151.35 80.2219 151.225 80.2219 151.098V150.972C80.2219 150.846 80.3476 150.72 80.3476 150.594C79.9704 150.846 79.3417 151.224 78.9645 151.477C61.6124 162.313 32.5666 147.444 38.0991 125.14Z" fill="#191E2B"/>
<path d="M42.8772 155.383C45.2663 157.777 48.1583 159.667 51.176 160.927C54.1938 162.187 57.463 162.943 60.858 163.069C64.1272 163.195 67.5222 162.691 70.6657 161.683C73.8092 160.549 76.8269 158.911 79.4675 156.643C79.4675 156.517 79.4675 156.517 79.4675 156.391V156.265C79.4675 156.139 79.4675 156.139 79.4675 156.013V155.887C79.4675 155.761 79.4675 155.761 79.4675 155.635V155.509C79.4675 155.383 79.4675 155.257 79.4675 155.131C63.3728 167.984 35.3328 158.533 36.0873 135.347V135.473L35.9615 136.607C35.9615 137.741 35.9615 139.254 35.9615 140.388C36.0873 141.774 36.213 143.034 36.5902 144.42C36.9675 145.806 37.3447 147.066 37.9734 148.326C38.4763 149.586 39.2308 150.846 39.9852 151.981C40.8654 153.115 41.7456 154.249 42.8772 155.383Z" fill="#191E2B"/>
<path d="M61.8639 166.976C65.1331 166.976 68.4024 166.346 71.5459 165.086C74.6894 163.826 77.5814 161.935 80.2219 159.541C80.2219 159.541 80.2219 159.415 80.0962 159.415C80.0962 159.415 80.0962 159.415 80.0962 159.289C80.0962 159.289 80.0962 159.163 79.9704 159.163C79.9704 159.163 79.9704 159.163 79.9704 159.037V158.911C79.9704 158.911 79.9704 158.911 79.9704 158.785V158.533C65.2589 171.134 44.0089 166.094 37.7219 148.578C37.7219 148.578 37.7219 148.578 37.7219 148.452V148.578C38.0991 149.838 38.8535 151.477 39.3565 152.737C39.7337 153.367 40.1109 154.249 40.4882 155.005C40.7396 155.383 40.9911 155.887 41.2426 156.265C41.4941 156.643 41.8713 157.147 42.1228 157.525C42.3743 157.903 42.7515 158.281 43.1287 158.659C43.5059 159.037 43.7574 159.415 44.1346 159.793C46.5237 162.187 49.4157 164.078 52.4334 165.212C55.3254 166.346 58.5947 166.976 61.8639 166.976Z" fill="#191E2B"/>
<path d="M75.6953 166.346C77.9586 165.086 80.0962 163.447 82.108 161.431C81.9823 161.431 81.9822 161.431 81.8565 161.305L81.7308 161.179C81.605 161.179 81.605 161.053 81.4793 161.053L81.3535 160.927C71.5459 170.378 58.3432 171.26 47.6553 163.447C47.6553 163.447 47.5296 163.447 47.5296 163.321L47.7811 163.447L48.9127 164.33L49.0385 164.456C49.1642 164.582 49.1642 164.582 49.2899 164.582C49.9186 165.086 50.2959 165.338 50.9246 165.59C51.4275 165.842 52.182 166.22 53.3136 166.976H53.4394L53.9423 167.228C56.2056 168.236 58.7204 168.992 61.1095 169.244C63.6243 169.496 66.1391 169.37 68.6538 168.992C71.0429 168.488 73.432 167.606 75.6953 166.346Z" fill="#191E2B"/>
<path d="M85.3772 161.935C85.2515 161.935 85.1257 161.935 85 161.935C85 161.935 85 161.935 84.8743 161.935C84.7485 161.935 84.6228 161.935 84.497 161.935C84.3713 161.935 84.3713 161.935 84.2456 161.935C84.1198 161.935 84.1198 161.935 83.9941 161.935C82.611 163.573 80.9763 164.834 79.3417 165.968C77.7071 167.102 75.9468 167.984 74.0607 168.614C72.3003 169.244 70.4142 169.748 68.5281 169.874C66.7678 170 65.1331 170 63.3728 169.874C63.247 169.874 62.9956 169.874 62.8698 169.748H63.247C64.1272 169.874 64.5044 169.874 65.2589 170C65.7618 170 66.5163 170 67.7737 170C68.0252 170 68.2766 170 68.5281 170C69.1568 170 69.7855 170 70.2885 169.874C78.4615 169.37 83.6169 163.826 85.3772 161.935Z" fill="#191E2B"/>
<path d="M74.8151 169.496C74.9408 169.496 74.9408 169.496 74.8151 169.496C75.318 169.37 75.821 169.244 76.324 169.118C76.4497 169.118 76.5754 169.118 76.5754 168.992C76.0725 169.244 75.4438 169.37 74.8151 169.496Z" fill="#191E2B"/>
<path d="M85 165.716C85.8802 165.086 86.7604 164.456 87.5148 163.699C88.2692 162.943 89.0237 162.061 89.7781 161.179C89.6524 161.179 89.5266 161.305 89.2752 161.305C89.2752 161.305 89.2752 161.305 89.1494 161.305C89.0237 161.305 88.8979 161.305 88.7722 161.431C88.7722 161.431 88.7722 161.431 88.6465 161.431C88.6465 161.431 88.6465 161.431 88.5207 161.431C88.395 161.431 88.2692 161.431 88.1435 161.557C88.1435 161.557 88.1435 161.557 88.0178 161.557C87.892 161.557 87.7663 161.557 87.6405 161.683C86.7604 162.817 85.8802 163.7 84.8743 164.582C83.8683 165.464 82.8624 166.22 81.7308 166.85C80.5991 167.48 79.4675 167.984 78.3358 168.488C77.7071 168.74 77.2041 168.866 76.5754 169.118C77.5814 168.866 78.5873 168.614 79.3417 168.488C79.4675 168.488 79.4675 168.488 79.5932 168.362H79.7189C80.5991 168.11 81.3536 167.732 82.2337 167.354C83.2396 166.85 84.1198 166.346 85 165.716Z" fill="#191E2B"/>
</svg>
