<svg width="128" height="128" viewBox="0 0 128 128" fill="none" xmlns="http://www.w3.org/2000/svg">
<path d="M2.24247 50.9072C2.24247 50.6384 2.33217 50.2798 2.33217 50.011C2.33217 50.3695 2.33217 50.6384 2.24247 50.9072Z" fill="#191E2B"/>
<path d="M8.25228 32.4444L7.35529 34.0577C7.35529 34.1473 7.26559 34.1473 7.26559 34.2369C7.17589 34.4162 7.08619 34.5954 6.9965 34.7747C7.08619 34.685 7.08619 34.5058 7.17589 34.4162C6.9965 34.685 6.9068 34.9539 6.8171 35.2228L6.27891 36.3879C6.36861 36.2983 6.36861 36.2087 6.4583 36.119C5.83041 37.4634 5.20252 38.8974 4.75403 40.4211C3.22915 46.426 2.60126 52.879 2.42186 63.9029C3.49825 43.4683 6.36861 36.3879 7.35529 34.0577C7.62439 33.5199 7.98318 32.9821 8.25228 32.4444Z" fill="#191E2B"/>
<path d="M1.79397 48.7562C1.61458 49.5628 1.43518 50.3695 1.25578 51.0865L1.16608 51.5346C0.807288 53.7752 1.52488 58.4358 2.42186 63.9029C2.33217 63.4548 2.33217 63.0066 2.24247 62.4689C1.25578 53.5064 1.43518 50.9072 1.79397 48.7562Z" fill="#191E2B"/>
<path d="M0.538192 55.3885C0.448493 56.1055 0.358795 57.0018 0.269096 57.6291C0.269096 57.7188 0.269096 57.8084 2.51156 63.9029C0.627891 56.8225 0.627891 56.1055 0.627891 55.2092C0.538192 55.2092 0.538192 55.2989 0.538192 55.3885Z" fill="#191E2B"/>
<path d="M124.322 85.5923C124.412 85.413 124.412 85.3234 124.502 85.1441C124.861 83.979 125.309 82.6346 125.668 81.4695C126.027 80.394 126.385 78.8703 126.655 77.7052C123.067 92.4934 114.994 105.041 102.615 115.169L106.114 112.301C106.472 111.942 106.831 111.673 107.19 111.315C108.266 110.239 109.522 108.984 110.778 107.73C111.495 106.923 112.392 105.937 113.559 104.593C114.097 103.876 114.725 103.069 115.352 102.263C120.465 95.1822 122.439 90.3424 124.322 85.5923Z" fill="#191E2B"/>
<path d="M0.0896987 60.6764C0.0896987 60.766 0 60.8556 0 60.9453C0 61.5726 0 62.0208 0 62.0208C0 62.3793 0 62.8274 0 63.2755C0 62.5585 0.0896986 62.4689 0.538192 62.2C1.34548 62.3793 1.34548 62.3793 2.60126 63.8133C0.807288 60.8556 0.448493 60.766 0.0896987 60.6764Z" fill="#191E2B"/>
<path d="M87.4562 123.593C115.173 111.852 125.758 82.4554 127.552 72.0588C127.552 71.9692 127.552 71.9692 127.552 71.8796C127.641 71.3418 127.731 70.6248 127.731 70.0871L127.821 69.0116C127.821 69.0116 127.821 69.0116 127.821 68.9219C127.282 75.0165 114.814 117.14 76.513 126.641C77.0511 126.551 77.5893 126.461 78.1275 126.372C80.8185 125.655 84.3167 124.579 86.918 123.683C87.1871 123.683 87.2768 123.593 87.4562 123.593Z" fill="#191E2B"/>
<path d="M0.448493 65.6954C0.986685 64.2614 1.34548 64.1718 2.51156 63.9029C0.0896984 62.8274 0.0896987 65.068 0 66.9502C0 67.6672 0.0896987 68.5634 0.179397 69.1908V69.9078C0.0896987 68.9219 0 66.8605 0.448493 65.6954Z" fill="#191E2B"/>
<path d="M128 65.3369C128 65.068 128 64.8888 128 64.6199V64.4407C128 64.1718 128 63.9029 128 63.634C128 63.3652 128 63.1859 128 62.917C127.91 67.7568 101.539 137.306 47.9888 126.103C49.5137 126.461 51.5767 126.82 53.0119 127.178C54.9853 127.447 57.5865 127.716 59.5599 127.985C107.638 129.061 127.372 71.7003 128 65.3369Z" fill="#191E2B"/>
<path d="M0.986685 75.8231C0.986685 75.9127 1.07638 76.092 1.07638 76.1816C-0.269096 68.3842 1.70427 65.1577 2.42186 63.9029C-2.38586e-07 66.1435 0.0896987 69.9974 0.986685 75.8231Z" fill="#191E2B"/>
<path d="M32.4709 119.74C87.0077 147.972 125.488 68.9219 127.91 59.4216C127.91 59.332 127.91 59.332 127.91 59.2424V58.7943C127.91 58.7046 127.91 58.7046 127.91 58.615C127.91 58.1669 127.821 57.5395 127.731 57.0914C127.731 57.0018 127.731 57.0018 127.731 56.9121C119.21 68.1153 114.545 81.7384 105.396 92.583C100.911 97.8709 90.4162 110.239 76.3336 117.499C48.1682 132.018 30.3181 119.112 22.6041 112.749C22.8732 112.928 23.1423 113.197 23.4114 113.376L24.6671 114.452C26.9993 116.155 30.1388 118.216 32.5606 119.74C32.4709 119.74 32.4709 119.74 32.4709 119.74Z" fill="#191E2B"/>
<path d="M1.61458 78.6911V78.6015C1.61458 78.6911 1.70427 78.7807 1.70427 78.8703C1.88367 79.5874 2.15277 80.4836 2.33217 81.2006C2.69096 82.6346 3.31885 84.5167 3.85704 85.9508C4.21584 86.7574 4.57463 87.9225 4.93343 88.8188C5.38192 89.8046 6.00981 91.149 6.4583 92.1349C6.9068 93.1208 7.62439 94.4652 8.16258 95.451C8.79047 96.6162 9.68746 97.9605 10.4947 99.2153C19.2852 112.032 33.4576 122.07 49.3343 120.725C86.918 117.409 112.662 74.9268 122.439 58.8839C125.758 53.3271 125.758 53.3271 127.103 53.0582V52.9686C126.924 52.0723 126.744 50.9968 126.565 50.1006V50.011C126.475 49.7421 126.027 49.4732 125.758 49.294C124.322 50.011 123.336 51.445 118.313 59.1528C105.306 78.96 90.4163 98.8568 69.2474 110.508C21.3483 136.589 -3.40855 85.6819 2.42186 63.9029C0.807288 68.1153 0.627891 73.3136 1.61458 78.6911Z" fill="#191E2B"/>
<path d="M112.841 56.5536C121.362 44.5438 123.425 41.5862 125.309 45.4401V45.3505C125.13 44.7231 124.861 44.0957 124.681 43.4683C124.502 43.0202 124.412 42.5721 124.233 42.1239C121.721 36.7464 118.223 41.4069 109.971 52.6997C100.821 65.1577 89.4296 80.5732 72.7456 93.7482C23.501 132.466 -0.807288 91.149 2.51156 63.9925C-4.21584 94.734 38.8395 161.236 112.841 56.5536Z" fill="#191E2B"/>
<path d="M103.243 49.4732C114.007 35.402 118.043 30.1141 122.08 37.1049C122.08 37.0153 121.99 37.0153 121.99 36.9257C121.452 35.7605 120.645 34.3265 120.106 33.1614C116.967 27.6942 113.2 29.9349 109.701 33.0718C94.9909 46.3363 85.3034 63.9029 70.9516 77.4363C24.7568 120.994 1.79397 91.7764 2.42186 63.9029C-0.179397 92.3142 31.3945 143.042 103.243 49.4732Z" fill="#191E2B"/>
<path d="M94.363 38.6285C105.127 25.2744 110.868 20.4346 116.698 27.6046C115.801 26.3499 114.635 24.8262 113.648 23.5715C113.11 22.9441 112.572 22.3167 112.034 21.6893C106.921 16.1326 104.23 19.2695 71.2207 56.6432C23.5011 110.867 6.6377 86.3989 3.04975 68.7427C6.09951 84.7856 21.5277 129.509 94.363 38.6285Z" fill="#191E2B"/>
<path d="M2.51156 64.6199C2.60126 65.9643 2.87036 67.3087 3.13945 68.8323C2.78066 66.9502 2.60126 65.4265 2.51156 64.6199Z" fill="#191E2B"/>
<path d="M2.42186 63.9029C2.42186 63.9029 2.42186 64.1718 2.51156 64.6199C2.51156 64.351 2.42186 64.1718 2.42186 63.9029Z" fill="#191E2B"/>
<path d="M73.2838 41.1381C91.1338 18.911 99.3861 10.5758 108.266 17.8355C108.177 17.7458 108.177 17.7458 108.087 17.6562C106.831 16.4911 105.217 15.1467 104.05 14.0712C104.05 14.0712 103.961 14.0712 103.961 13.9816C95.6188 7.61816 86.918 13.7127 66.6461 39.7937C13.7239 107.819 3.85704 71.7899 2.42186 63.9029C3.13945 69.6389 11.3917 118.037 73.2838 41.1381Z" fill="#191E2B"/>
<path d="M59.0217 36.5672C77.7687 11.4721 87.4562 4.48127 97.0539 9.23142C96.6952 9.05217 96.4261 8.87291 96.157 8.69366L95.8879 8.51441C95.7085 8.42479 95.4394 8.24554 95.26 8.15591L92.4793 6.7219C92.1205 6.54265 91.7617 6.3634 91.4029 6.18415C78.3966 0.537752 62.9685 21.779 52.6531 35.9398C19.1955 81.9176 6.9068 76.5401 2.42186 63.9029C5.29222 74.658 16.4149 93.5689 59.0217 36.5672Z" fill="#191E2B"/>
<path d="M44.4008 35.3124C59.9187 13.3542 70.2341 0.179251 83.1507 2.95764C82.7022 2.86801 82.2537 2.68876 81.8052 2.59914C80.1906 2.15101 78.3966 1.70288 76.9614 1.34438C64.1345 -0.537752 54.2677 12.7268 39.3777 34.5058C29.5109 48.9355 11.1226 75.7335 2.42186 63.9029C11.1226 82.4554 36.1486 46.9637 44.4008 35.3124Z" fill="#191E2B"/>
<path d="M33.0091 33.6992C49.0652 8.96254 56.4205 0.537752 67.4534 0.0896254C67.274 0.0896254 67.0049 0.0896254 66.8255 0.0896254L64.1345 0L61.5333 0.0896254C61.2642 0.0896254 60.9054 0.0896254 60.6363 0.0896254C48.9755 1.0755 39.3777 16.4911 27.3581 36.0294C18.8367 49.7421 9.14926 65.3369 2.42186 63.9029C9.23896 70.3559 23.5908 48.3081 33.0091 33.6992Z" fill="#191E2B"/>
<path d="M22.7835 35.3124C35.7001 12.5476 41.979 3.94352 51.487 1.25476C49.8725 1.61326 47.8094 2.15101 46.0154 2.59914C45.6566 2.68876 45.2978 2.77839 44.939 2.86801C35.3413 6.54265 28.3448 19.0006 17.0427 40.5107C9.05957 55.747 5.92011 60.766 2.42186 63.9029C7.53469 62.1104 13.9033 50.9072 22.7835 35.3124Z" fill="#191E2B"/>
<path d="M36.5971 6.18415C36.4177 6.27378 36.2383 6.3634 36.0589 6.45303L33.4576 7.70778L31.9327 8.60404C31.6636 8.78329 31.3945 8.96254 31.1254 9.05217C26.5508 12.0098 23.1423 17.2977 19.1955 24.9159C12.6475 37.4634 8.16258 50.9072 2.51156 63.9029C5.02313 59.8698 8.43167 52.4309 12.7372 43.0202C24.2186 18.194 29.1521 10.4862 36.5971 6.18415Z" fill="#191E2B"/>
<path d="M24.1289 13.8919C23.9495 13.9816 23.8598 14.1608 23.6804 14.2504C23.5907 14.3401 23.5011 14.4297 23.4114 14.5193C23.3217 14.6089 23.1423 14.6986 23.0526 14.7882C21.9762 15.7741 20.8101 16.76 19.8234 17.6562C14.0827 23.213 8.25228 38.8078 2.42186 63.9029C13.9033 25.8121 19.1955 18.4628 24.1289 13.8919Z" fill="#191E2B"/>
<path d="M13.7239 24.3781C13.0063 25.2744 12.2887 26.3499 11.5711 27.1565C11.4814 27.3357 11.302 27.515 11.2123 27.6942C7.35529 33.6992 4.39523 45.8882 2.42186 63.9029C4.12614 52.6997 7.80378 32.7133 14.3518 23.5715C14.1724 23.8404 13.9033 24.1092 13.7239 24.3781Z" fill="#191E2B"/>
<path d="M2.42186 49.7421C2.60126 48.2185 2.87036 46.7845 3.22915 45.3505C3.67765 42.7513 3.76734 42.4824 4.39523 40.5107C4.39523 40.6003 4.30554 40.6003 4.30554 40.6899C3.94674 41.6758 3.49825 42.9306 3.13945 43.9164C2.42186 46.2467 2.24247 49.0251 2.15277 52.162C2.15277 51.9827 2.15277 51.8931 2.24247 51.7139C2.06307 53.3271 1.97337 55.03 1.97337 56.6432C2.06307 59.2424 2.15277 59.6009 2.42186 63.7237C2.15277 57.2706 2.24247 54.2234 2.42186 49.7421ZM2.24247 50.9072C2.24247 50.6384 2.33217 50.2798 2.33217 50.011C2.33217 50.3695 2.33217 50.6384 2.24247 50.9072Z" fill="#191E2B"/>
</svg>
