<svg width="145" height="145" viewBox="0 0 145 145" fill="none" xmlns="http://www.w3.org/2000/svg">
<path d="M128.669 34.6389C128.669 39.7135 127.374 45.6838 124.785 52.3505C119.308 66.1815 108.753 81.4056 95.1104 95.0376C81.468 108.67 66.3318 119.217 52.3906 124.69C38.3499 130.162 27.2965 129.864 21.2221 123.794C15.1477 117.724 14.849 106.68 20.3259 92.6495C25.8028 78.8185 36.3583 63.5944 50.0007 49.9624C63.6432 36.3304 78.7793 25.783 92.7205 20.3103C106.761 14.8376 117.815 15.1361 123.889 21.2059C127.076 24.39 128.669 28.9671 128.669 34.6389ZM17.4381 110.361C17.4381 115.734 18.9318 120.013 21.9192 122.998C33.9684 135.038 66.4314 122.103 94.3138 94.2415C122.196 66.3805 135.142 33.9423 123.092 21.9024C111.043 9.96195 78.5802 22.7979 50.6978 50.659C37.1549 64.1915 26.699 79.2165 21.3217 92.948C18.7326 99.5153 17.4381 105.386 17.4381 110.361Z" fill="#191E2B"/>
<path d="M135.241 41.2061C135.241 46.2808 133.947 52.251 131.358 58.9178C125.881 72.7488 115.325 87.9728 101.683 101.605C88.0403 115.237 72.9041 125.784 58.9629 131.257C44.9221 136.73 33.8688 136.431 27.7944 130.361C21.72 124.292 21.4213 113.247 26.8982 99.2167C32.3751 85.3857 42.9305 70.1617 56.573 56.5297C70.2154 42.8977 85.3516 32.3503 99.1932 26.8776C113.234 21.4049 124.287 21.7034 130.362 27.7731C133.648 30.9572 135.241 35.5344 135.241 41.2061ZM24.0104 116.829C24.0104 122.103 25.5041 126.481 28.4915 129.565C40.5406 141.605 73.0037 128.67 100.886 100.809C128.768 72.9478 141.714 40.5096 129.665 28.4696C117.616 16.4297 85.1525 29.3652 57.2701 57.2262C36.4579 78.0225 24.0104 101.406 24.0104 116.829Z" fill="#191E2B"/>
<path d="M125.383 31.3552C125.383 36.4299 124.088 42.4001 121.499 49.0669C116.022 62.8979 105.467 78.122 91.8243 91.754C78.1819 105.386 63.0457 115.933 49.1045 121.406C35.0637 126.879 24.0104 126.58 17.936 120.511C11.8616 114.441 11.5629 103.396 17.0398 89.3659C22.5167 75.5349 33.0721 60.3108 46.7146 46.6788C60.357 33.0468 75.4932 22.4994 89.4344 17.0267C103.475 11.554 114.529 11.8525 120.603 17.9222C123.789 21.1064 125.383 25.6835 125.383 31.3552ZM14.1519 107.078C14.1519 112.451 15.6456 116.729 18.633 119.715C24.4087 125.486 35.0637 125.685 48.7062 120.312C62.4482 114.938 77.4848 104.49 91.0277 90.9579C118.91 63.0969 131.855 30.6587 119.806 18.6188C107.757 6.57882 75.294 19.5143 47.4116 47.3753C33.8688 61.0073 23.4129 75.9329 18.0356 89.6644C15.4465 96.2316 14.1519 102.102 14.1519 107.078Z" fill="#191E2B"/>
<path d="M118.81 24.788C118.81 29.8627 117.516 35.8329 114.927 42.4996C109.45 56.3307 98.8945 71.5547 85.252 85.1867C71.6096 98.8187 56.4734 109.366 42.5322 114.839C28.4915 120.312 17.4381 120.013 11.3637 113.943C5.28933 107.874 4.99059 96.8287 10.4675 82.7986C15.9444 68.8681 26.4999 53.7436 40.1423 40.1116C53.7848 26.4796 68.9209 15.9322 82.8621 10.4595C96.9029 4.98676 107.956 5.28527 114.031 11.355C117.217 14.5391 118.81 19.1163 118.81 24.788ZM7.57966 100.411C7.57966 105.684 9.07337 110.063 12.0608 113.147C17.8364 118.918 28.4915 119.117 42.1339 113.744C55.8759 108.371 70.9125 97.9232 84.4554 84.3907C112.338 56.5297 125.283 24.0915 113.234 12.0515C101.185 0.111085 68.7218 13.0466 40.8394 40.8081C20.1267 61.6044 7.57966 84.9877 7.57966 100.411Z" fill="#191E2B"/>
<path d="M115.524 21.5044C115.524 26.5791 114.23 32.5493 111.641 39.216C106.164 53.047 95.6083 68.2711 81.9659 81.9031C68.3234 95.5351 53.0877 106.082 39.2461 111.456C25.2053 116.928 14.1519 116.63 8.07757 110.56C2.00319 104.59 1.70445 93.4455 7.18135 79.515C12.6582 65.5845 23.2137 50.4599 36.8562 36.8279C50.4986 23.1959 65.6348 12.6485 79.576 7.17584C93.6168 1.70314 104.67 2.00165 110.744 8.07138C113.931 11.2555 115.524 15.8327 115.524 21.5044ZM4.39311 97.2267C4.39311 102.5 5.88681 106.879 8.8742 109.963C20.9234 122.003 53.3864 109.068 81.2688 81.2066C109.151 53.3455 122.097 20.9074 110.047 8.86741C97.8987 -3.17254 65.4356 9.76294 37.6528 37.624C16.8406 58.3207 4.39311 81.7041 4.39311 97.2267Z" fill="#191E2B"/>
<path d="M122.097 28.0716C122.097 33.1463 120.802 39.1165 118.213 45.7833C112.736 59.6143 102.181 74.8383 88.5382 88.4703C74.8957 102.102 59.7596 112.65 45.8184 118.122C31.7776 123.595 20.7242 123.297 14.6498 117.227C8.57546 111.157 8.27672 100.112 13.7536 86.0823C19.2305 72.2513 29.786 57.0272 43.4284 43.3952C57.0709 29.7632 72.2071 19.2158 86.1482 13.7431C100.189 8.27038 111.242 8.5689 117.317 14.6386C120.503 17.8227 122.097 22.3999 122.097 28.0716ZM10.8658 103.694C10.8658 108.968 12.3595 113.346 15.3469 116.431C21.1225 122.202 31.7776 122.401 45.42 117.028C59.1621 111.655 74.1987 101.207 87.7415 87.6743C115.624 59.8133 128.569 27.3751 116.52 15.3351C104.471 3.2952 72.0079 16.2307 44.1255 44.0917C23.4129 64.888 10.8658 88.2713 10.8658 103.694Z" fill="#191E2B"/>
<path d="M131.955 37.9225C131.955 42.9972 130.66 48.9674 128.071 55.6341C122.495 69.4651 112.039 84.5897 98.3966 98.3212C84.6546 111.953 69.5184 122.401 55.6768 127.874C41.636 133.347 30.5826 133.048 24.5083 126.978C18.4339 120.909 18.1351 109.864 23.612 95.8336C29.0889 82.0026 39.6444 66.7785 53.2869 53.1465C66.9293 39.5145 82.0655 28.9672 96.0067 23.4944C110.047 18.0217 121.101 18.3203 127.175 24.39C130.362 27.6736 131.955 32.2508 131.955 37.9225ZM20.7242 113.545C20.7242 118.819 22.2179 123.197 25.2053 126.282C37.2545 138.322 69.7176 125.386 97.5999 97.5252C125.482 69.6642 138.428 37.226 126.379 25.186C114.329 13.1461 81.8663 26.0815 53.9839 53.9426C33.1717 74.7388 20.7242 98.1222 20.7242 113.545Z" fill="#191E2B"/>
<path d="M145 51.057C145 56.1317 143.705 62.1019 141.116 68.7686C135.639 82.5996 125.084 97.8237 111.442 111.456C97.7991 125.088 82.6629 135.635 68.7217 141.108C54.681 146.58 43.6276 146.282 37.5532 140.212C31.4789 134.143 31.1801 123.098 36.657 109.068C42.1339 95.2366 52.6894 80.0125 66.3318 66.3805C79.9743 52.7485 95.1104 42.2011 109.052 36.7284C123.092 31.2557 134.146 31.5542 140.22 37.624C143.407 40.8081 145 45.3853 145 51.057ZM33.8688 126.68C33.8688 131.953 35.3625 136.332 38.3499 139.416C50.399 151.456 82.8621 138.521 110.744 110.66C138.627 82.7986 151.572 50.3604 139.523 38.3205C127.474 26.3801 95.0109 39.216 67.1285 67.0771C46.3163 87.8733 33.8688 111.157 33.8688 126.68Z" fill="#191E2B"/>
<path d="M138.527 44.4897C138.527 49.5644 137.233 55.5346 134.644 62.2014C129.167 76.0324 118.611 91.2565 104.969 104.888C91.3264 118.52 76.1902 129.068 62.2491 134.541C48.2083 140.013 37.1549 139.715 31.0805 133.645C25.0062 127.575 24.7074 116.53 30.1843 102.5C35.6612 88.5699 46.2167 73.4453 59.8591 59.8133C73.5016 46.1813 88.6377 35.6339 102.479 30.1612C116.52 24.6885 127.573 24.987 133.648 31.0567C136.834 34.2408 138.527 38.818 138.527 44.4897ZM27.2965 120.113C27.2965 125.386 28.7902 129.764 31.7776 132.849C43.8268 144.889 76.2898 131.953 104.172 104.092C132.055 76.2314 145 43.7932 132.951 31.7533C120.902 19.7133 88.4386 32.6488 60.5562 60.5098C39.744 81.3061 27.2965 104.689 27.2965 120.113Z" fill="#191E2B"/>
<path d="M141.813 47.7733C141.813 52.848 140.519 58.8183 137.93 65.485C132.453 79.316 121.897 94.5401 108.255 108.172C94.6125 121.804 79.4764 132.351 65.5352 137.824C51.4944 143.297 40.441 142.998 34.3667 136.929C28.2923 130.859 27.9936 119.814 33.4705 105.784C38.9473 91.953 49.5028 76.7289 63.1453 63.0969C76.7877 49.4649 91.9239 38.9175 105.865 33.4448C119.906 27.9721 130.959 28.2706 137.034 34.3404C140.121 37.5245 141.813 42.1016 141.813 47.7733ZM30.5826 123.396C30.5826 128.67 32.0763 133.048 35.0637 136.133C47.1129 148.173 79.576 135.237 107.458 107.376C135.341 79.515 148.286 47.0768 136.237 35.0369C124.188 22.9969 91.7247 35.9324 63.8423 63.7934C43.0301 84.5897 30.5826 107.874 30.5826 123.396Z" fill="#191E2B"/>
<path d="M112.238 18.2208C112.238 23.2954 110.944 29.2657 108.355 35.9324C102.878 49.7634 92.3222 64.9875 78.6797 78.6195C65.0373 92.2515 49.8016 102.799 35.9599 108.272C21.9192 113.744 10.8658 113.446 4.79143 107.376C-1.28295 101.306 -1.58169 90.2614 3.89521 76.2314C9.3721 62.3009 19.9276 47.1763 33.57 33.5443C47.2125 19.9123 62.3486 9.36493 76.2898 3.89222C90.3306 -1.58048 101.384 -1.28197 107.458 4.78776C110.645 7.97187 112.238 12.549 112.238 18.2208ZM1.10697 93.943C1.10697 99.2167 2.60067 103.595 5.58807 106.68C11.3637 112.451 22.0188 112.65 35.6612 107.277C49.4032 101.903 64.4398 91.4555 77.9827 77.923C91.5256 64.3905 101.981 49.3654 107.359 35.6339C112.736 22.0019 112.437 11.355 106.761 5.58379C94.6125 -6.45616 62.2491 6.47932 34.3667 34.3403C13.5545 55.0371 1.10697 78.4205 1.10697 93.943Z" fill="#191E2B"/>
</svg>
