<svg width="142" height="38" viewBox="0 0 142 38" fill="none" xmlns="http://www.w3.org/2000/svg">
<path d="M51.1912 1.28641C51.2146 1.05251 51.2615 0.421006 51.1678 0.327449C48.8015 0.397617 46.4118 0.491174 44.2095 0.491174C43.1787 0.444395 42.1713 0.397617 41.1638 0.374228C40.953 0.537952 40.7187 0.748455 40.6718 0.88879C40.625 0.88879 40.6015 0.88879 40.5781 0.91218C39.3598 2.52604 38.1416 4.13989 36.9233 5.75375V5.84731C36.8764 5.84731 36.8296 5.84731 36.8061 5.87069C36.0096 6.92321 35.2364 7.97572 34.4399 9.02824L32.7296 11.18C31.5816 12.677 30.457 14.1973 29.3325 15.7176C29.2856 15.7409 29.2387 15.7643 29.1919 15.8111C27.8565 17.5887 26.521 19.4131 25.1856 21.214C25.0216 21.4245 24.881 21.6584 24.7405 21.8689C24.5296 22.3601 24.2953 22.8279 24.1079 23.3191C23.4753 25.5878 22.9833 27.9267 22.3508 30.3358C22.3508 30.5931 22.3742 30.8504 22.3976 31.1311C22.5148 31.1311 22.6085 31.1311 22.7491 31.1544C22.7491 31.2948 22.8662 31.3649 22.9599 31.4351C26.6147 31.4117 30.2696 31.3883 33.9479 31.3883C33.9713 31.4117 33.9947 31.4351 34.0416 31.4585C34.0181 31.6222 34.0181 31.8093 34.0181 31.9965C33.6433 33.7273 33.2684 35.4347 32.917 37.1889V37.8671C32.9873 37.8905 33.081 37.9139 33.1513 37.9607C33.1513 38.0543 36.5953 37.8438 36.9701 37.8204C37.2278 37.8204 41.773 38.101 41.773 37.9607C42.265 37.6333 42.3118 37.0251 42.4758 36.6041C42.921 34.8265 43.3661 33.0957 43.8347 31.3416C43.8815 31.248 43.9518 31.1778 43.9987 31.1311L48.0284 30.9907C48.1221 30.9205 48.2158 30.8504 48.3329 30.8036L50.1604 23.5997C50.1604 23.436 50.1604 23.3191 50.1838 23.1787C49.9964 23.1787 49.8089 23.0852 49.6918 23.0384C48.5204 23.015 47.1849 23.0852 46.2478 22.898C46.037 22.6875 46.1307 22.0326 46.1307 21.8923C47.8644 15.0627 49.5278 8.16284 51.1912 1.28641ZM39.2193 12.56C38.7741 14.3376 38.3758 16.0918 37.9541 17.8694H37.8838C37.509 19.4131 37.1576 21.1205 36.5953 22.7811C36.4781 22.9214 36.361 23.0852 36.2439 23.2723C34.6976 23.2957 33.1513 23.3424 31.5816 23.3892C31.3239 23.3191 31.0896 23.2489 30.8319 23.2255V23.1319C30.7616 23.1319 30.7147 23.1553 30.6679 23.1787C30.6679 23.0384 30.6679 22.9448 30.6913 22.8279C31.0427 22.3601 31.4176 21.9391 31.7924 21.4947C32.2376 20.8866 32.6593 20.3018 33.1044 19.7171C35.0959 17.2846 36.9467 14.665 38.8913 12.2092H39.0787C39.0787 12.1156 39.0787 12.0454 39.1021 11.9753C39.1256 11.9987 39.1724 12.0221 39.2193 12.0688V12.56ZM141.789 5.96425C141.508 5.07546 141.086 4.42056 140.688 3.85922C140.149 3.13416 139.118 2.50265 138.486 2.31553V2.24536C138.251 2.12842 137.994 2.05825 137.759 1.96469C136.846 1.80097 135.955 1.63725 135.042 1.47352H132.652C130.637 1.66063 128.599 2.05825 126.842 2.78332C126.186 3.06399 125.53 3.39144 124.921 3.76566C124.475 5.19241 124.054 6.61915 123.655 8.04589C123.281 9.14519 122.929 10.2445 122.578 11.3672V11.5309H122.39V11.6011C122.437 11.6011 122.508 11.6011 122.554 11.6244C122.789 11.9285 123.866 11.9519 124.405 11.8349C125.881 9.68314 126.935 7.48455 129.887 7.06354C131.481 7.06354 133.097 7.46116 133.378 9.56619C133.378 10.0808 133.378 10.6187 133.144 11.1567C132.722 11.8349 132.347 12.0221 131.691 12.4898C129.325 13.3552 126.889 13.4488 124.663 14.1973C123.281 14.6884 122.203 15.624 121.032 16.4426C120.961 16.5128 120.914 16.583 120.891 16.6531C120.563 16.9806 120.235 17.3314 119.93 17.6823C119.532 18.267 119.134 18.688 118.923 19.3429H118.853C118.548 20.068 118.267 20.793 117.986 21.5181C117.822 22.3835 117.541 23.2723 117.424 24.1377C117.377 24.5119 117.353 24.8861 117.33 25.2837C117.33 26.2427 117.447 27.1783 117.658 28.1138C117.798 28.4413 117.939 28.7687 118.103 29.1196C118.337 29.4704 118.736 29.868 119.251 30.3124V30.406C119.86 30.6399 120.727 31.0141 121.617 31.1077L123.562 31.0375C124.101 30.8738 124.639 30.7334 125.202 30.5931C126.701 30.0084 128.739 28.5582 129.677 27.1549C129.934 27.1549 129.138 29.6341 129.067 29.9148V30.1955C129.091 30.2189 129.114 30.2423 129.161 30.2656C130.661 30.1955 132.183 30.1487 133.683 30.1019C135.135 30.0785 136.611 30.0551 138.087 30.0551C138.65 29.4938 138.603 28.5115 138.603 27.9267C137.549 27.1549 137.689 27.1549 137.689 26.1491C137.853 25.4943 138.134 24.699 138.181 24.0675C138.814 21.752 139.446 19.4598 140.079 17.1677C140.219 16.6765 140.43 15.4603 140.618 15.0627C140.993 13.5424 141.391 12.0221 141.766 10.5251C141.836 9.94042 141.906 9.35569 142 8.77096V7.48455C141.977 6.96999 141.883 6.47881 141.789 5.96425ZM129.958 22.0093C129.723 22.2665 129.466 22.5238 129.255 22.8045C128.599 23.3191 128.107 23.5296 127.427 23.6231C127.24 23.5763 127.053 23.5296 126.889 23.4828C126.092 22.9682 126.139 22.0794 126.209 21.4245C126.537 19.7405 127.146 19.2025 128.599 18.2436C128.786 18.1266 128.997 18.0331 129.185 17.9395C129.536 17.7758 129.911 17.6355 130.286 17.4951C130.45 17.4717 131.176 17.3314 131.317 17.0741H131.481C131.504 17.2145 131.551 17.3314 131.598 17.4951C131.551 18.9453 130.754 20.7462 129.958 22.0093ZM100.719 6.71271C100.602 6.38526 100.508 6.05781 100.414 5.75375C99.2665 3.43822 97.7905 2.66637 95.5179 2.12842H95.2836V2.05825C93.8076 1.94131 92.5425 1.91792 91.3008 1.91792C88.5596 2.26875 85.9122 2.87687 83.6631 4.28023V4.1165C83.5459 4.1165 83.5694 4.53751 83.5694 4.74801C83.0305 6.78287 82.3745 8.91129 81.742 10.9695V11.1333H81.6482C81.6014 11.3438 81.5077 11.718 81.5077 12.0688C81.6482 12.1156 81.8122 12.1858 81.9528 12.2326C82.398 12.2092 82.8197 12.2092 83.2882 12.2092L84.9282 9.84686C85.2094 9.51941 85.4905 9.19196 85.7951 8.86451C86.8025 8.11606 87.4116 7.69505 88.6299 7.43777H89.7076C90.6682 7.69505 91.3945 7.88217 92.0505 9.02824C92.3316 9.72992 92.3551 10.6187 92.0505 11.4607C91.8865 11.6946 91.6991 11.9519 91.5351 12.2092C90.2699 13.1681 88.7705 13.4488 87.3414 13.7295C85.7951 13.94 84.4128 14.244 83.0774 14.7352C82.1168 15.2498 81.2968 15.7877 80.43 16.3958C80.2191 16.5596 80.0082 16.7467 79.8208 16.9104C79.5631 17.1911 79.3054 17.4717 79.0243 17.7758C78.5088 18.4775 77.9934 19.2259 77.5717 20.0913C76.9391 21.5415 76.4705 23.0384 76.2597 24.7224C76.2597 25.5878 76.2597 26.4766 76.2831 27.342C76.3534 27.6694 76.4237 28.0203 76.494 28.3711C76.6345 28.722 76.7751 29.0728 76.9391 29.4236C77.1031 29.6809 77.2905 29.9148 77.478 30.1487C77.7825 30.406 78.2043 30.8504 78.8134 31.0843C79.446 31.2714 80.0785 31.4117 80.7111 31.5053C81.4608 31.5053 82.2105 31.4117 83.1242 31.2714C83.8037 31.0375 84.4831 30.7802 85.1625 30.5697V30.4762C85.5374 30.2423 85.9357 29.985 86.3105 29.7745C87.0602 29.1664 87.9739 28.3243 88.6065 27.5525V28.0671C88.4191 28.8389 88.0208 29.7043 88.0208 30.5697C88.5128 30.5697 89.0282 30.5697 89.5202 30.5931C91.8865 30.4995 94.4402 30.4294 97.0642 30.4294C97.0876 30.3592 97.111 30.289 97.1579 30.2189H97.2282C97.3219 29.7745 97.4156 29.3535 97.5328 28.9325C97.5093 28.6986 97.4859 28.4413 97.4859 28.2308C97.1813 28.0203 96.8767 27.8098 96.5722 27.6227C96.5722 27.1549 96.5956 26.7105 96.619 26.2427C97.275 23.7634 97.931 21.2842 98.587 18.8283C98.7979 18.3839 98.8916 17.7758 98.9619 17.3548C99.4305 15.5772 99.9224 13.7996 100.414 12.0221C100.836 10.2445 101.024 8.39673 100.719 6.71271ZM88.7705 22.477C88.4425 22.8045 88.1379 23.1553 87.8334 23.5062C87.5756 23.6231 87.3414 23.7634 87.0836 23.9272C86.7791 23.974 86.4745 24.0207 86.1699 24.0675C84.9751 23.6699 85.1157 22.8279 85.0454 21.9625C85.0922 21.7052 85.1625 21.4479 85.2094 21.1906C85.4671 20.6761 85.7248 20.1381 86.0996 19.7171C86.4511 19.4364 86.8025 19.1558 87.1774 18.8751C87.5991 18.6646 87.9974 18.4307 88.4425 18.2436C88.7939 18.1033 89.1453 17.9863 89.4968 17.8694C89.7545 17.8226 90.0122 17.7758 90.3168 17.7524C90.3402 17.8226 90.3636 17.8928 90.4105 17.9629C90.4105 19.3663 89.5905 21.2374 88.7705 22.477ZM121.805 3.11077C121.641 2.90026 121.5 2.68976 121.336 2.50265C119.626 1.26302 117.588 1.19285 115.76 1.19285C115.362 1.21624 114.964 1.26302 114.612 1.3098C114.12 1.40335 113.628 1.49691 113.16 1.59047C111.449 2.08164 110.09 2.73654 108.661 3.64872C108.169 4.02295 107.701 4.30362 107.256 4.74801C107.045 4.91174 106.834 5.05207 106.646 5.2158C105.944 5.96425 105.241 6.68932 104.561 7.46116C103.976 8.30317 103.39 9.16857 102.804 10.034C102.031 11.4841 101.258 13.0746 100.696 14.665C100.508 15.2965 100.297 15.9281 100.11 16.583C99.8053 17.7992 99.5476 19.2025 99.4539 20.6059L99.5242 22.898C99.6179 23.4594 99.6882 24.0441 99.8053 24.6522H99.8756C99.899 24.816 99.9225 24.9797 99.9693 25.1434C100.11 25.5644 100.25 25.9854 100.414 26.383C100.696 26.9678 101.117 27.6461 101.586 28.3945L102.476 29.2833C103.694 30.1721 104.842 30.6399 106.529 30.8738C107.185 30.8504 107.841 30.8504 108.497 30.8504C110.325 30.5229 112.363 30.0551 114.12 29.0026C114.636 28.4881 114.917 27.4823 115.151 26.8976C115.76 25.3773 116.369 23.8336 116.978 22.3133C117.119 21.9391 117.283 21.3777 117.283 21.1205C116.557 21.4011 115.877 21.8689 115.198 22.2431C114.284 22.5706 113.417 22.8747 112.527 22.9682H110.981C110.723 22.898 110.465 22.8279 110.208 22.7811C109.083 22.1028 108.919 21.331 108.685 20.2785C108.638 19.8107 108.591 19.3663 108.544 18.9219C108.544 18.4541 108.544 18.0097 108.568 17.5419C108.638 17.1209 108.708 16.6999 108.778 16.2789C109.036 15.3199 109.341 14.5247 109.645 13.6125C109.997 12.9108 110.348 12.2092 110.723 11.5075C111.074 10.9929 111.449 10.4784 111.824 9.9872C112.363 9.35569 112.972 8.93468 113.652 8.51368C115.596 7.76522 116.627 8.39673 117.049 10.6187C117.049 11.5075 117.049 12.4197 117.072 13.3552C117.142 13.5424 117.26 13.6593 117.752 13.7295C118.29 13.7763 118.9 13.7763 119.228 13.1681C119.626 11.718 120.024 10.2445 120.399 8.79435H120.469C120.891 7.1571 121.313 5.51986 121.758 3.88261C121.805 3.55516 121.805 3.34466 121.805 3.11077ZM80.3831 1.91792C78.954 2.33892 77.5717 2.73654 76.166 3.15754C74.3151 3.60194 72.6517 3.99956 70.8477 4.30362C70.6369 4.86496 70.4729 5.73036 70.4729 6.54898C70.8009 6.71271 71.1289 6.87643 71.4803 7.04016C71.3631 8.72418 70.9883 10.5485 70.5666 12.256C70.0043 14.0335 69.4186 15.7409 68.0363 17.1443L67.4506 17.5419C67.2397 17.5419 67.0054 17.5653 66.7946 17.5887C66.5837 17.4717 66.3729 17.4016 66.1854 17.308C66.0449 16.6999 66.0449 16.3257 66.0449 15.8579C67.146 11.3672 68.5517 6.7361 69.7934 2.36231C69.8169 2.15181 69.8637 1.87114 69.7466 1.77758C69.3249 1.77758 69.0906 1.84775 68.8329 1.91792C66.6774 2.71315 64.4986 3.39144 62.2963 3.97617C61.1249 4.21006 59.93 4.46734 58.782 4.70123C58.7118 4.95851 58.6415 5.23919 58.618 5.51986C58.454 5.91747 58.3135 6.17475 58.3135 6.61915C58.2432 6.64254 58.1963 6.68932 58.1495 6.7361C58.1963 6.7361 58.2432 6.7361 58.2901 6.75948C58.2901 6.82965 58.29 6.89982 58.3135 6.96999C58.8758 7.25066 59.4615 7.13371 59.6958 8.09267C59.6723 8.2564 59.6723 8.44351 59.6723 8.63062C59.2272 10.338 58.8055 12.0221 58.3603 13.7529C57.7746 15.9982 57.1421 17.7992 56.8375 20.068C56.8375 20.6059 56.8375 21.1672 56.8609 21.7052C56.9312 22.0794 57.0015 22.477 57.0718 22.8513C57.1889 23.2021 57.2826 23.5529 57.4232 23.9272H57.5169C57.7278 24.4183 58.1026 24.7926 58.6649 25.3305C59.0398 25.4943 59.438 25.6814 59.8129 25.8685C60.2346 25.9386 60.6563 26.0088 61.1015 26.079C61.57 26.0322 62.0855 25.9854 62.5775 25.962C63.2569 25.7983 64.0769 25.4709 64.8735 25.0499C65.67 24.4417 66.4666 23.857 67.2866 23.2723C67.3803 23.7401 67.0289 24.8394 66.9352 25.4007C66.654 26.1959 66.3729 26.9678 66.1152 27.763C65.998 27.9033 65.9277 28.0203 65.834 28.1606C64.7094 28.9091 64.4283 28.722 64.0535 30.0318C64.0535 30.1721 63.9597 30.9673 64.4049 31.1778C65.5529 31.1077 66.6774 31.0375 67.8254 30.9907C69.934 31.0375 72.0894 31.0843 74.2214 31.1311C74.3854 30.9205 74.5494 30.6867 74.7134 30.4762C74.854 30.0551 75.0883 29.3067 74.9477 28.9559C74.7368 28.7921 74.526 28.6284 74.3386 28.4647C74.2214 27.9735 74.3386 27.5525 74.4088 27.1549C74.8774 25.4241 75.3694 23.6933 75.8614 21.9625C77.5951 15.5538 79.3054 9.16857 81.0391 2.75993C81.0391 2.45587 81.0625 2.15181 81.086 1.84775C80.8517 1.87114 80.6174 1.89453 80.3831 1.91792ZM26.4039 5.4263C26.1227 4.44395 25.7713 3.76566 25.3496 3.11077C24.9748 2.71315 24.6233 2.31553 24.2719 1.96469C23.8736 1.68402 23.4753 1.42674 23.1005 1.16946C22.6788 0.982347 22.2805 0.771844 21.8822 0.60812C21.5542 0.491174 21.2262 0.397617 20.9216 0.30406C20.2656 0.187114 19.6096 0.0935569 18.9536 0H17.1965C16.5405 0.0701677 15.9079 0.140335 15.2754 0.187114C14.5959 0.327449 13.9399 0.467784 13.2605 0.631509C11.316 1.26302 9.55882 1.91792 8.08282 3.2511C7.75483 3.81244 7.70797 4.16328 7.68454 4.91174H7.61425C7.09883 7.6015 5.90398 10.3614 4.91998 13.098C4.82627 13.4488 4.75598 13.7996 4.66227 14.1739C4.6857 14.5949 5.83369 14.8054 6.11483 14.8054C6.27883 14.7586 6.44283 14.7118 6.60683 14.6884C7.2394 14.244 7.59083 13.4722 7.84854 12.8875C8.2234 12.3027 8.62168 11.718 8.99654 11.1099C10.4257 9.37908 12.2297 7.71844 14.6194 8.39673C14.7834 8.60723 14.9942 8.84113 15.1817 9.07502C15.5799 9.87025 15.5097 10.7824 15.5097 11.9051L15.3691 12.8875H15.2988C15.0645 13.7763 14.6662 14.665 14.2914 15.7176C13.7057 16.5362 13.1199 17.3782 12.5342 18.2202C12.3702 18.3605 12.2297 18.5243 12.0891 18.7114C11.48 19.2961 10.8708 19.9042 10.2617 20.5123C9.67596 20.9801 9.11368 21.4713 8.52797 21.9391C7.80168 22.4069 7.05197 22.8747 6.34912 23.3658L2.15542 25.4709C1.99142 25.6346 1.87428 25.8217 1.73371 26.079C1.148 27.7396 0.491998 29.564 0 31.2714V32.0432C0.374856 32.1134 1.00742 32.1368 1.52285 32.1134C2.92856 31.9965 4.33427 31.9029 5.76341 31.8093C7.21597 31.7392 8.64511 31.6924 10.0977 31.6456C11.5737 31.6222 13.0731 31.5988 14.5725 31.5988C16.6811 31.6456 18.8365 31.6924 20.9685 31.7626C21.2262 31.4117 21.3668 31.1311 21.4839 30.8504C22.2102 28.4881 22.7256 25.9386 23.241 23.6465H23.1473C23.0536 23.3424 22.8662 23.3191 22.7491 23.2489C22.3273 23.2021 21.9291 23.1553 21.5073 23.1319C19.4691 23.1553 17.3136 23.2957 15.5097 23.1086V23.0384C16.7514 22.2665 18.0165 21.5883 19.2348 20.7696C20.7576 19.5534 21.9525 18.1968 23.2176 16.7233C24.1313 15.4135 24.9982 13.94 25.5839 12.5132C25.7713 11.8349 25.9822 11.1567 26.1696 10.5018C26.4976 8.77096 26.7553 6.96999 26.4039 5.4263Z" fill="#57595C"/>
</svg>
