<svg width="238" height="34" viewBox="0 0 238 34" fill="none" xmlns="http://www.w3.org/2000/svg">
<path d="M145.769 21.6483C145.769 24.0449 145.822 26.3362 148.676 26.4152V26.7576H137.893V26.4152C140.774 26.3362 140.8 24.2556 140.8 21.8854V2.89698C135.33 2.89698 131.894 4.42448 130.203 8.24322L129.807 8.13788L132 0.34237C132.581 1.00077 133.797 0.842758 134.643 0.842758H151.9C152.745 0.842758 153.961 1.00077 154.543 0.34237L156.736 8.13788L156.34 8.24322C154.648 4.45081 151.239 2.89698 145.769 2.89698V21.6483ZM167.175 21.5957C167.175 23.7552 167.228 26.0465 170.082 26.3888V26.7312H159.299V26.3888C162.18 26.0728 162.206 24.0186 162.206 21.859V6.00465C162.206 3.84508 162.154 1.55383 159.299 1.21146V0.869094H170.082V1.21146C167.201 1.60651 167.175 3.60806 167.175 5.76762V21.5957ZM198.253 27.1526C197.804 26.9682 197.275 26.9946 196.773 27.0472L191.329 27.2843C186.625 27.2843 181.895 26.4152 178.221 23.7552C174.363 20.9636 172.434 16.8815 172.434 12.536C172.434 9.11232 173.834 5.66228 176.874 3.39737C180.098 1.07978 184.009 0.368706 188.052 0.368706L192.994 0.711077L194.421 0.816421C195.135 0.816421 195.848 0.579396 196.166 0L198.227 7.4268L197.857 7.53215C196.192 4.10844 192.122 2.37026 188.026 2.37026C185.066 2.37026 182.688 2.94965 180.653 5.00387C178.724 6.97909 177.772 9.6127 177.772 12.1936C177.772 19.0411 183.084 25.1774 191.303 25.1774C196.06 25.1774 199.31 22.7018 201.24 19.0411L201.689 19.1991L198.253 27.1526ZM35.1703 23.5182L26.7664 4.16112C26.5814 3.73974 26.3172 3.10767 26.3172 2.63362C26.3172 1.84353 26.8457 1.42215 27.7442 1.21146V0.869094H16.8562V1.21146C17.7019 1.31681 18.389 1.76452 18.389 2.4756C18.389 3.26569 17.9926 4.0031 17.649 4.76685L13.3149 13.8792C6.5231 14.3795 1.26407 16.7761 1.26407 16.7761C-0.268716 17.4872 0.0219842 17.8296 0.0219842 17.8296C0.0748389 18.3563 1.18479 17.8296 1.18479 17.8296C4.83176 16.6971 8.58444 16.0124 12.39 15.7754L9.74724 21.464C9.21869 22.5964 8.42587 24.0976 7.52734 25.1247C6.78738 25.9411 6.15312 26.1782 4.96389 26.3888V26.7312H14.9798V26.3888C13.5528 26.3098 12.2843 25.5198 12.2843 24.2556C12.2843 23.3075 12.6807 22.3594 13.0771 21.464L15.5877 15.8017C23.4894 15.907 29.4356 20.0682 29.4356 23.6235C29.4356 24.993 28.8013 26.0728 27.0307 26.3888V26.7312H38.183V26.3888C36.201 25.9938 35.9103 24.9404 35.1703 23.5182Z" fill="#57595C"/>
<path d="M16.3276 13.8002L21.1374 3.81874L26.5814 16.4074C23.9916 14.0372 16.4333 13.8002 16.3276 13.8002Z" fill="#FFE815"/>
<path d="M230.68 23.5182L222.276 4.16112C222.091 3.73974 221.826 3.10767 221.826 2.63362C221.826 1.84353 222.355 1.42215 223.254 1.21146V0.869094H212.365V1.21146C213.211 1.31681 213.898 1.76452 213.898 2.4756C213.898 3.26569 213.502 4.0031 213.158 4.76685L208.851 13.9055C202.059 14.4059 196.8 16.8025 196.8 16.8025C195.267 17.5136 195.558 17.8559 195.558 17.8559C195.611 18.3826 196.721 17.8559 196.721 17.8559C200.367 16.7235 204.12 16.0387 207.926 15.8017L205.257 21.464C204.728 22.5964 203.935 24.0976 203.037 25.1247C202.297 25.9411 201.662 26.1782 200.473 26.3888V26.7312H210.489V26.3888C209.062 26.3098 207.794 25.5198 207.794 24.2556C207.794 23.3075 208.19 22.3594 208.586 21.464L211.071 15.8017C218.972 15.907 224.918 20.0682 224.918 23.6235C224.918 24.993 224.284 26.0728 222.514 26.3888V26.7312H233.666V26.3888C231.71 25.9938 231.393 24.9404 230.68 23.5182Z" fill="#57595C"/>
<path d="M211.811 13.8002L216.62 3.81874L222.064 16.4074C219.501 14.0372 211.916 13.8002 211.811 13.8002Z" fill="#FFE815"/>
<path d="M131.736 23.5182L123.332 4.16112C123.147 3.73974 122.883 3.10767 122.883 2.63362C122.883 1.84353 123.411 1.42215 124.31 1.21146V0.869094H113.422V1.21146C114.267 1.31681 114.954 1.76452 114.954 2.4756C114.954 3.26569 114.558 4.0031 114.214 4.76685L109.907 13.9055C106.524 14.1689 103.511 14.8799 101.344 15.5383V5.74129C101.344 3.60806 101.397 1.5275 104.542 1.21146V0.869094H94.9753V1.21146C98.1202 1.18513 98.173 3.29202 98.173 5.97831V16.6708C97.9881 16.7498 97.8823 16.8025 97.8823 16.8025C96.3496 17.5136 96.6403 17.8559 96.6403 17.8559C96.6931 18.3826 97.8031 17.8559 97.8031 17.8559C97.9352 17.8296 98.0409 17.7769 98.1466 17.7506V18.251C98.1466 22.2541 95.3453 25.0194 89.0556 25.0194C84.0609 25.0194 81.101 22.9651 81.101 18.409V5.74129C81.101 3.18668 81.1539 1.26414 84.2987 1.21146V0.869094H72.4593L72.5121 1.21146C75.657 1.39582 75.7098 3.76607 75.7098 5.97831V18.725C75.7098 21.5167 76.1062 23.7552 79.2511 25.3354C81.841 26.6785 85.2765 27.2579 88.3685 27.2579C95.3982 27.2579 101.186 25.2037 101.318 16.9078C103.828 16.3284 106.392 15.9597 108.982 15.8017L106.286 21.464C105.758 22.5964 104.965 24.0976 104.066 25.1247C103.326 25.9411 102.692 26.1782 101.503 26.3888V26.7312H111.519V26.3888C110.092 26.3098 108.823 25.5198 108.823 24.2556C108.823 23.3075 109.22 22.3594 109.616 21.464L112.1 15.8017C120.002 15.907 125.948 20.0682 125.948 23.6235C125.948 24.993 125.314 26.0728 123.543 26.3888V26.7312H134.696V26.3888C132.766 25.9938 132.476 24.9404 131.736 23.5182Z" fill="#57595C"/>
<path d="M112.893 13.8002L117.703 3.81874L123.147 16.4074C120.583 14.0372 112.999 13.8002 112.893 13.8002Z" fill="#FFE815"/>
<path d="M51.7931 24.9404C51.7931 24.9404 46.9833 24.1503 44.3406 21.2006C42.385 19.0147 41.3807 16.5655 41.2486 12.773C41.1693 10.4555 41.6979 8.16421 43.3892 6.24167C45.2391 4.10844 48.1197 2.87064 51.4231 2.87064C59.9063 2.87064 64.5839 9.56003 64.5839 15.6173C64.5839 18.0666 64.2932 19.6995 62.3112 21.9117C62.3112 21.9117 62.2583 21.9907 62.1262 22.1224C62.8661 22.6754 63.8704 23.3865 64.8746 24.0976C68.548 21.701 70.5829 18.1983 70.5829 14.2479C70.5829 6.34702 62.7604 0.605732 52.9031 0.605732C43.1778 0.605732 35.3025 6.189 35.3025 14.0108C35.3025 17.7506 37.2052 21.4113 40.6408 23.9659C43.9706 26.4415 48.5161 27.495 53.0352 27.495C53.0352 27.495 56.2329 27.495 59.9591 26.3362C59.1663 25.7304 58.3735 25.0984 57.6335 24.44C56.1272 24.914 54.3301 25.2564 51.7931 24.9404Z" fill="#57595C"/>
<path d="M68.363 26.4679C68.363 26.4679 66.6188 25.3354 64.8482 24.0976C63.9232 23.4655 62.9983 22.8071 62.0998 22.1224C61.6505 21.78 61.3069 21.4903 61.1484 21.306C61.1484 21.306 54.3301 14.8009 46.9305 20.7792C46.9305 20.7792 51.6345 19.3044 56.6293 23.4655C56.6293 23.4655 56.9993 23.8606 57.6335 24.44C58.1885 24.9667 58.9813 25.6251 59.9591 26.3362C61.3598 27.3896 62.8662 28.3114 64.4518 29.0751C64.4518 29.0751 71.7457 32.4725 75.6834 27.3633C75.657 27.3896 71.64 28.4431 68.363 26.4679Z" fill="#57595C"/>
<path d="M235.199 30.2603H77.2162C70.1601 36.739 60.1441 30.2603 60.1441 30.2603H3.0347L0.682667 34H238L235.199 30.2603Z" fill="#57595C"/>
<path d="M227.799 6.74206C227.799 4.92486 229.279 3.55538 231.05 3.55538C232.794 3.55538 234.274 4.89853 234.274 6.74206C234.274 8.58559 232.794 9.92874 231.05 9.92874C229.279 9.92874 227.799 8.58559 227.799 6.74206Z" fill="#57595C"/>
<path d="M231.05 9.40201C232.503 9.40201 233.639 8.26956 233.639 6.74206C233.639 5.2409 232.503 4.10844 231.05 4.10844C229.596 4.10844 228.433 5.2409 228.433 6.74206C228.433 8.26956 229.57 9.40201 231.05 9.40201Z" fill="#FFE815"/>
<path d="M230.363 8.58559H229.808V4.92486H231.208C232.08 4.92486 232.503 5.2409 232.503 5.97831C232.503 6.63672 232.08 6.92641 231.552 6.97909L232.609 8.58559H231.975L230.997 7.00542H230.363V8.58559Z" fill="#57595C"/>
<path d="M231.023 6.53137C231.499 6.53137 231.922 6.50503 231.922 5.92564C231.922 5.47792 231.499 5.39892 231.129 5.39892H230.363V6.53137H231.023Z" fill="#FFE815"/>
</svg>
