<svg width="207" height="24" viewBox="0 0 207 24" fill="none" xmlns="http://www.w3.org/2000/svg">
<path d="M40.8754 0H13.2953C13.2126 0 12.9643 0.162025 12.9643 0.243038L0.0535943 23.4329C-0.111927 23.6759 0.136355 24 0.384638 24H27.2198C27.3854 24 27.5509 23.838 27.5509 23.757L29.3716 20.5975C29.4544 20.3544 29.2889 20.0304 29.0406 20.0304H10.1504L13.7091 13.7114H30.282C30.3647 13.7114 30.5303 13.5494 30.613 13.4684L32.02 10.957C32.1855 10.7139 32.02 10.3899 31.6889 10.3899H15.5299L18.6748 4.71899H38.7236C38.8064 4.71899 38.9719 4.63797 39.0546 4.55696L41.2064 0.587342C41.3719 0.324051 41.2064 0 40.8754 0ZM174.638 1.70127C173.148 0.486076 169.92 0 164.624 0H149.127C149.044 0 148.878 0.162025 148.796 0.243038L135.968 23.4329C135.802 23.6759 135.968 24 136.299 24H143.664C143.747 24 143.913 23.838 143.995 23.757L147.471 17.438H158.727C162.617 17.438 165.348 17.1139 167.665 15.7367C169.982 14.3595 171.969 12.0911 174.12 8.28354C175.879 5.1038 176.127 2.99747 174.638 1.70127ZM165.617 9.07342C164.872 10.4506 164.292 11.4228 163.382 11.9899C162.389 12.638 161.065 12.881 158.83 12.881H149.975L154.609 4.69873H162.389C164.127 4.69873 165.451 5.02278 166.03 5.67089C166.61 6.31899 166.527 7.45316 165.617 9.07342ZM138.45 1.45823C136.05 0.405063 132.078 0 127.257 0C124.112 0 121.05 0 118.402 0.486076C115.67 1.05316 113.519 2.10633 112.36 4.21266L101.684 23.4329C101.601 23.6759 101.767 24 102.098 24H109.381C109.463 24 109.629 23.838 109.712 23.757L113.188 17.438H126.781L123.471 23.4329C123.388 23.6759 123.553 24 123.802 24H131.002C131.085 24 131.25 23.838 131.333 23.757L140.602 7.12911C142.092 4.37468 141.099 2.59241 138.45 1.45823ZM131.498 9.07342L129.347 12.881H115.691L119.064 6.88608C119.643 5.83291 120.553 5.26582 121.878 5.02278C123.202 4.69873 125.105 4.69873 127.588 4.69873C129.243 4.69873 130.402 4.94177 131.064 5.34684C131.436 5.46835 131.726 5.73165 131.892 6.07595C132.057 6.31899 132.14 6.64304 132.14 6.96709C132.161 7.61519 131.912 8.3443 131.498 9.07342ZM105.987 1.86329C102.925 0.162025 96.201 0.0810127 92.6423 0H91.7319C84.449 0 77.9109 0 73.5866 7.85823C71.8486 10.9367 70.1934 13.8532 68.5382 16.8506C67.0485 19.5241 67.2968 21.3063 68.8692 22.4405C70.3589 23.4937 73.0073 23.9797 76.6487 23.9797C79.6281 23.9797 82.6075 23.9797 85.6697 23.9797C90.7181 23.9797 94.1113 23.1696 96.5113 21.8734C98.9942 20.6582 100.401 18.957 101.311 17.2557C101.477 17.0127 101.311 16.6886 100.98 16.6886H93.2009C93.2009 16.6886 93.0354 16.7696 92.9526 16.7696C91.2974 18.3899 90.1388 19.2 88.8146 19.6051C87.5732 20.0101 86.0007 20.0101 83.5179 20.0101C81.4489 20.0101 80.0419 19.7671 79.1316 19.2C78.5522 18.957 78.2212 18.6329 77.9729 18.1468C77.7246 17.7418 77.5591 17.3367 77.5591 16.7696C77.5591 15.7975 77.9729 14.6633 78.635 13.4481C79.6281 11.7468 80.6213 9.96456 81.6144 8.26329C82.6075 6.48101 83.9317 5.50886 85.5042 4.94177C87.1594 4.4557 89.0629 4.29367 91.2146 4.29367C93.863 4.29367 95.6837 4.53671 96.9251 5.1038C98.001 5.67089 98.5804 6.56203 98.4976 8.02025C98.4976 8.26329 98.6631 8.42532 98.8287 8.42532H105.946C106.029 8.42532 106.194 8.3443 106.277 8.26329C106.608 7.53418 107.022 6.88608 107.353 6.23797C108.553 4.21266 107.808 2.83544 105.987 1.86329ZM71.6831 1.2962C70.5244 0.324051 68.2899 0 64.8967 0H52.9791C49.9998 0 47.4342 0.405063 45.3651 1.2962C43.2134 2.18734 41.4754 3.64557 40.3167 5.7519L38.5788 8.83038C38.2477 9.55949 37.9994 10.2076 37.9994 10.7747C37.9994 11.2608 38.165 11.6658 38.4132 11.9899C38.6615 12.3139 38.9926 12.638 39.4064 12.881C40.3995 13.3671 41.972 13.6911 43.9582 13.6911H57.2C58.2758 13.6911 58.6069 13.8532 58.6069 14.1772C58.6896 14.6633 58.2758 15.3114 57.862 16.1215L56.7861 18.0658C55.7103 19.9291 55.2137 19.9291 53.393 19.9291H43.4617C42.634 19.9291 42.1375 19.8481 41.8064 19.6861C41.6409 19.6051 41.5581 19.443 41.4754 19.362C41.3926 19.2 41.3926 19.119 41.3926 18.957C41.3926 18.7949 41.3926 18.5519 41.5581 18.3899C41.6409 18.1468 41.4754 17.8228 41.2271 17.8228H33.8614C33.6959 17.8228 33.5303 17.9848 33.4476 18.0658C32.951 18.957 32.7027 19.7671 32.7027 20.4962C32.6821 21.0835 32.8683 21.6506 33.1993 22.1165C33.5303 22.5215 33.9442 22.9266 34.4407 23.1696C35.4338 23.7367 36.6753 23.9797 38.2477 23.9797H50.8481C54.5723 23.9797 57.4689 23.6557 59.6207 22.8456C61.938 22.0354 63.5105 20.6582 64.7519 18.3899L66.3243 15.3924C67.3175 13.6101 67.7313 12.3139 67.1519 11.4228C66.6554 10.4506 65.3312 9.96456 63.0139 9.96456H49.1101C48.0342 9.96456 47.2893 9.80253 47.0411 9.55949C46.7928 9.31646 46.8755 8.83038 47.2893 8.02025L48.3652 6.15696C48.6963 5.50886 49.0273 5.02278 49.5239 4.69873C49.9377 4.37468 50.5998 4.21266 51.7584 4.21266H62.2691C63.1794 4.21266 63.676 4.37468 63.8415 4.61772C64.007 4.86076 63.9243 5.26582 63.5932 5.7519C63.5105 5.99494 63.676 6.31899 63.9243 6.31899H71.2072C71.29 6.31899 71.5383 6.23797 71.5383 6.15696C72.8417 3.80759 72.9245 2.26835 71.6831 1.2962ZM206.625 0H182.272C182.189 0 182.024 0.162025 181.941 0.243038L169.01 23.4329C168.927 23.6759 169.093 24 169.424 24H193.693C193.776 24 194.024 23.838 194.024 23.757L195.845 20.5975C195.928 20.3544 195.762 20.0304 195.514 20.0304H179.189L182.686 13.7114H196.755C196.921 13.7114 197.086 13.5494 197.086 13.4684L198.576 10.957C198.742 10.7139 198.493 10.3899 198.245 10.3899H184.569L187.631 4.71899H204.369C204.535 4.71899 204.7 4.63797 204.7 4.55696L206.935 0.587342C207.121 0.324051 206.873 0 206.625 0Z" fill="white"/>
</svg>
