<svg width="135" height="41" viewBox="0 0 135 41" fill="none" xmlns="http://www.w3.org/2000/svg">
<path d="M-74.1434 18.3786C-73.1393 17.0716 -71.4724 16.5086 -69.1026 16.5086C-67.1546 16.5086 -65.8693 17.0917 -65.1463 18.1574C-64.6442 18.7406 -64.4233 19.6052 -64.4233 20.8318L-73.059 22.8426C-75.0673 23.2045 -76.7341 23.7072 -77.7985 24.2903C-79.9072 25.1349 -81.1925 26.5826 -82.0561 28.3722C-82.6787 29.5586 -83 30.8656 -83 32.1927C-83 34.5655 -82.0561 36.6567 -80.2687 38.3055C-78.4613 39.9544 -75.9509 40.819 -72.9385 40.819C-71.131 40.819 -69.4842 40.4571 -67.8977 39.874L-64.5237 37.9235L-64.4434 40.2359L-56.3901 40.2359C-56.9725 39.3713 -57.334 38.6474 -57.4746 38.0844L-57.6955 35.5709L-57.6955 20.8117C-57.6955 18.8612 -57.8361 17.4335 -58.057 16.5689C-58.5591 15.1211 -59.503 13.975 -61.0695 13.1103C-63.0778 11.8838 -65.8894 11.3006 -69.4842 11.3006C-75.0873 11.3006 -78.8428 12.9495 -80.6302 16.207C-81.1925 17.2928 -81.554 18.6601 -81.6946 20.4497L-74.8664 20.8117C-74.8664 19.746 -74.5853 19.0221 -74.1434 18.3786ZM-64.8049 31.8308C-65.1664 32.6954 -65.9496 33.4796 -67.0341 34.1432C-68.3997 34.7263 -69.8457 35.0883 -71.3519 35.0883C-72.7176 35.0883 -73.802 34.8671 -74.5853 34.2236C-75.4488 33.6405 -75.9509 32.7759 -75.9509 31.7102C-75.9509 30.4232 -75.3082 29.4782 -74.0029 28.8347L-70.2674 27.8897C-67.7571 27.5277 -65.8693 26.9446 -64.4434 26.2408L-64.4434 29.3374L-64.8049 31.8308ZM-33.355 0.643453L-33.355 14.3973C-35.3031 12.3865 -37.8134 11.3006 -40.9062 11.3006C-44.722 11.3006 -47.875 12.8892 -50.2649 15.845C-52.5744 18.8813 -53.6388 22.4806 -53.6388 26.8038C-53.6388 31.2678 -52.2731 34.7263 -49.7628 37.4007C-47.5336 39.7734 -44.6617 41 -41.1271 41C-37.8938 41 -35.3031 39.7734 -33.355 37.4811L-33.355 40.2962L-26.7277 40.2962L-26.7277 0.643453L-33.355 0.643453ZM-35.0219 20.0878C-34.078 21.5356 -33.576 23.5463 -33.5157 26.281C-33.5157 29.1565 -34.0981 31.3281 -35.3834 32.9166C-36.6085 34.2035 -38.195 34.9274 -39.9824 34.9274C-42.7137 34.9274 -44.722 33.4796 -45.8065 30.6042C-46.4491 29.1565 -46.67 27.6484 -46.67 25.9191C-46.67 23.6871 -46.0876 21.5959 -45.0232 20.0878C-43.6576 18.3585 -42.0108 17.5743 -39.8418 17.5743C-37.8135 17.5743 -36.0863 18.3786 -35.0219 20.0878ZM-14.1558 40.256L-23.1328 12.1653L-16.3047 12.1653L-10.4806 31.3281L-4.71682 12.1653L2.25195 12.1653L-6.9661 40.256L-14.1558 40.256ZM12.1729 18.3786C13.0365 17.0716 14.6833 16.5086 17.1334 16.5086C19.1417 16.5086 20.5877 17.0917 21.3106 18.1574C21.6721 18.7406 21.893 19.6052 21.893 20.8318L13.2574 22.8426C11.2491 23.2045 9.58222 23.7072 8.51782 24.2903C6.56979 25.155 5.1439 26.6027 4.2 28.3923C3.55734 29.5385 3.33643 30.9058 3.33643 32.2128C3.33643 34.5856 4.28033 36.6768 6.06771 38.3257C7.87517 39.9745 10.3855 40.8391 13.5586 40.8391C16.792 40.8391 19.5233 39.8941 21.8328 37.9637L21.9131 40.2761L29.8258 40.2761L28.8819 38.1246L28.661 35.591L28.661 20.8318C28.661 18.8813 28.5204 17.4537 28.1589 16.589C27.7974 15.1412 26.8736 13.9951 25.2871 13.1305C23.2788 11.9039 20.4672 11.3207 17.0129 11.3207C11.4098 11.3207 7.51367 12.9696 5.7263 16.2271C5.14389 17.3129 4.7824 18.6802 4.64182 20.4698L11.6106 20.8318C11.6106 19.746 11.8315 19.0221 12.1729 18.3786ZM21.5315 31.8308L19.3023 34.1432C17.9769 34.7666 16.5309 35.0883 15.0648 35.0883C13.6189 35.0883 12.5545 34.8671 11.7512 34.2236C10.8876 33.6405 10.5261 32.7759 10.5261 31.7102C10.5261 30.4232 11.1085 29.4782 12.3336 28.8347C13.1971 28.4728 14.3419 28.2516 16.069 27.8897C18.5794 27.5277 20.6077 26.9446 21.893 26.2408L21.893 29.3374L21.5315 31.8308ZM47.8 17.9362C46.7155 17.9362 45.7917 18.1574 44.7072 18.7205C43.8437 19.3639 43.1207 20.0878 42.6989 21.0329C41.976 22.3198 41.6145 24.7729 41.6145 28.0103L41.6145 40.256L34.7863 40.256L34.7863 12.1653L41.6145 12.1653L41.6145 15.4831C42.1567 14.5983 42.8998 13.8342 43.7834 13.2511C45.5909 11.8838 47.7397 11.3006 50.2501 11.3006C51.7563 11.3006 53.2023 11.6626 54.5679 12.2457C55.8733 12.8892 56.7971 13.6935 57.5201 14.6989C58.3837 15.7847 58.8858 17.0716 59.1067 18.7406L59.3276 23.7072L59.3276 40.2761L52.64 40.2761L52.64 25.8789L52.4191 21.6361C52.0576 20.4899 51.5555 19.4644 50.6919 18.7607C49.8886 18.1574 48.8845 17.9362 47.8 17.9362ZM85.4956 14.0554C87.1424 15.4228 88.4478 17.2325 89.3114 19.2433L83.3267 22.1187C82.9652 20.8921 82.3225 19.8063 81.3786 19.0221C80.2941 17.9362 78.7076 17.2928 76.9202 17.2928C74.9119 17.2928 73.3254 18.0167 72.02 19.6052C70.7347 21.1937 70.0719 23.3453 70.0719 25.9392C70.0719 28.4527 70.7146 30.6243 71.8794 32.3536C73.245 33.8617 75.0525 34.7263 77.2014 34.7263C80.2941 34.7263 82.6037 32.9166 83.889 29.1766L89.6528 32.3536C88.5683 35.0883 86.9215 37.4007 84.3911 38.9088C82.0815 40.2761 79.7117 41 76.9001 41C72.9438 41 69.7104 39.6327 67.18 36.898C64.4487 34.1633 63.1433 30.564 63.1433 26.2408C63.1433 21.998 64.4286 18.3987 67.18 15.5032C69.851 12.7685 73.225 11.3207 77.1813 11.3207C80.4548 11.3006 83.1861 12.2457 85.4956 14.0554ZM95.7781 15.1211C93.107 17.9362 91.8217 21.5356 91.8217 25.9191C91.8217 30.8857 93.2677 34.7062 96.2801 37.4409C98.8708 39.7533 102.245 40.9598 106.201 40.9598C111.804 40.9598 116.423 38.5066 119.878 33.8215L114.274 30.5841L111.965 33.0373C110.519 33.9823 108.872 34.485 106.924 34.485C104.755 34.485 102.968 33.8416 101.522 32.5346C100.216 31.4488 99.3528 29.7999 99.0114 27.4875L119.657 27.4875C119.516 22.8024 118.572 19.0623 116.785 16.5287C116.062 15.4429 115.058 14.357 113.913 13.5728C111.603 11.9843 108.872 11.2604 105.719 11.2604C101.682 11.3006 98.3085 12.6077 95.7781 15.1211ZM110.037 17.9362C111.262 19.0221 111.985 20.5302 112.346 22.6214L99.2524 22.6214C99.6139 20.6709 100.477 19.2433 101.562 18.1574C102.787 17.2124 104.213 16.7097 106.02 16.7097C107.647 16.7097 108.952 17.0716 110.037 17.9362ZM135 4.3232L127.429 1.63437e-06L119.737 4.3232L119.737 13.1103L127.429 17.5743L134.98 13.1103L134.98 4.3232L135 4.3232ZM128.373 5.77097L133.333 8.78715L131.385 9.87298L128.353 8.06327L128.353 9.28985L133.313 12.1653L131.365 13.2511L128.332 11.5218L128.332 15.0608L127.389 15.6439L126.445 15.0608L126.445 11.5218L123.272 13.2511L121.404 12.1653L126.445 9.28985L126.445 8.06327L123.272 9.87298L121.404 8.78715L126.445 5.77097L126.445 4.62482L123.272 6.43453L121.404 5.20795L127.429 1.80971L133.333 5.18784L131.385 6.41442L128.353 4.60471L128.373 5.77097Z" fill="white"/>
</svg>
