<svg width="179" height="43" viewBox="0 0 179 43" fill="none" xmlns="http://www.w3.org/2000/svg">
<path d="M41.0925 7.6614V1.46784H32.1641V7.6614H41.0925ZM41.1643 34.2257V9.77365H32.1641V34.2257H41.1643ZM109.401 34.2973V1.46784H100.437V34.2973H109.401ZM125.142 8.98603C117.397 8.98603 111.086 14.929 111.086 22.2682C111.086 29.6074 117.361 35.5503 125.142 35.5503C132.887 35.5503 139.198 29.6074 139.198 22.2682C139.162 14.929 132.887 8.98603 125.142 8.98603ZM125.142 15.2512C128.047 15.2512 130.377 18.4017 130.377 22.2682C130.377 26.1347 128.047 29.2852 125.142 29.2852C122.274 29.2852 119.907 26.1347 119.907 22.2682C119.907 18.4017 122.238 15.2512 125.142 15.2512ZM9.82492 13.3179H15.8131C18.0363 13.3179 19.3988 12.4945 19.3988 10.2749C19.3988 8.55642 17.9645 7.912 15.8131 7.912H9.82492V13.3179ZM9.82492 25.9915H16.4585C18.6817 25.9915 20.5821 25.5619 20.5821 22.9126C20.5821 20.9077 19.3988 19.7263 16.8888 19.7263H9.82492V25.9915ZM0 34.2257V0H19.2195C26.1759 0 28.4708 4.65412 28.4708 8.16261C28.4708 10.4539 27.0365 13.7834 24.4906 15.1796C27.5743 16.2178 30.4071 18.7955 30.4071 23.8076C30.4071 30.6814 24.9926 34.2257 19.865 34.2257H0ZM42.4551 21.3015C42.4193 30.7888 50.2362 33.4381 53.6068 33.5455C55.5072 33.5455 58.6268 32.9727 60.348 31.3974V34.0467C60.2762 37.3046 55.0411 38.7008 53.6785 35.6935H45.0369C45.5747 38.2712 47.4752 43.1401 56.9774 42.9969C64.364 42.8895 69.2406 40.6699 69.2406 33.0801V9.80945H60.3838V11.2773C59.1288 10.2033 56.7981 9.05763 54.1446 9.02183C49.5907 9.09344 42.5268 11.8143 42.4551 21.3015ZM51.4912 21.1225C51.4912 18.0795 53.6426 15.6092 56.2602 15.6092C58.8778 15.6092 61.0292 18.0795 61.0292 21.1225C61.0292 24.1656 58.8778 26.6359 56.2602 26.6359C53.6068 26.6359 51.4912 24.1656 51.4912 21.1225ZM79.9619 24.7742C80.7508 27.8173 82.9022 29.3926 85.1971 29.3926C86.7031 29.3926 88.4243 28.8913 88.8546 27.0297L97.9982 26.9939C95.9902 31.9702 90.8626 35.5145 84.8744 35.5145C77.1292 35.5145 70.8183 29.5716 70.8183 22.2324C70.8183 14.8932 77.0933 8.95023 84.8744 8.95023C92.6196 8.95023 98.3926 15.3586 98.4643 22.2324C98.4643 23.0916 98.3926 23.9508 98.2133 24.7384L79.9619 24.7742ZM80.0337 19.4041H89.1773C88.8187 16.898 87.0258 15.2512 84.9103 15.2512C82.6871 15.2512 80.7867 16.719 80.0337 19.4041ZM137.585 9.84525L144.433 34.2973H154.474L157.952 21.946L161.537 34.2973H171.578L178.462 9.84525H168.96L166.414 24.5594L162.219 9.84525H153.756L149.561 24.5594L147.051 9.84525H137.585ZM175.773 31.1826H176.598C176.956 31.1826 177.351 31.3258 177.351 31.7912C177.351 32.3282 176.849 32.364 176.382 32.364H175.737V32.5788H176.526L177.422 33.9751H177.709L176.813 32.5788C177.243 32.5072 177.602 32.2566 177.602 31.7912C177.602 31.2542 177.315 30.9678 176.633 30.9678H175.486V33.9751H175.737L175.773 31.1826Z" fill="#57595C"/>
<path d="M176.454 29.8938C177.853 29.8938 179 31.0394 179 32.4356C179 33.8319 177.853 34.9775 176.454 34.9775C175.056 34.9775 173.908 33.8319 173.908 32.4356C173.908 31.0394 175.02 29.8938 176.454 29.8938V30.1086C175.127 30.1086 174.159 31.111 174.159 32.4356C174.159 33.7245 175.163 34.7627 176.454 34.7627C177.745 34.7627 178.749 33.7245 178.749 32.4356C178.749 31.1468 177.781 30.1086 176.454 30.1086V29.8938Z" fill="#57595C"/>
</svg>
