<svg width="178" height="43" viewBox="0 0 178 43" fill="none" xmlns="http://www.w3.org/2000/svg">
<path d="M74.2858 21.5734H87.4425V26.0128H74.2858V21.5734Z" fill="#57595C"/>
<path d="M140.472 9.61263L149.964 34.4147L149.524 35.6988C148.865 37.68 147.252 38.2671 144.98 38.2671C144.1 38.2671 143.404 38.2671 142.488 37.8268L142.048 42.3396C143.221 42.7799 144.43 43 145.676 43C152.933 43 154.362 39.0742 155.608 35.8823L166.016 9.61263H159.456L155.168 22.3439L153.592 26.8567H153.372L152.016 22.564L147.509 9.61263H140.472ZM119.913 16.2167C122.845 14.2355 125.85 13.7585 128.159 13.7585C131.09 13.7585 134.096 15.5196 132.593 19.2619C132.446 19.6288 131.127 19.1886 130.614 19.0785C124.604 17.5375 117.641 19.5555 117.641 27.9206C117.641 31.6263 120.279 35.4053 126.216 36.5794C132.41 37.7901 135.781 37.3865 138.933 35.4053V19.1519C138.933 15.7031 138.53 9.09898 129.148 9.09898C126.216 9.09898 122.808 9.31911 119.876 10.8234L119.913 16.2167ZM132.813 24.1416L132.959 31.5896C129.001 32.4334 122.588 31.1126 123.211 27.0401C123.834 22.9676 127.059 22.8208 132.813 24.1416ZM112.95 1.46758C109.834 0.256826 106.719 0 102.908 0C92.3899 0 83.5211 5.43003 83.5211 18.2346C83.5211 28.8379 89.9712 36.9462 101.955 36.9462C105.803 36.9462 110.091 35.9923 114.122 34.7449V15.7765H100.013V21.2065H107.159V29.7918C105.73 30.3055 104.301 30.5256 102.395 30.5256C94.992 30.5256 91.1439 25.1323 91.1439 18.2346C91.1439 11.0802 94.992 5.68686 102.615 5.68686C105.767 5.68686 109.321 6.42065 112.693 7.92492L112.95 1.46758ZM59.6632 37.9002V18.0879C61.2024 14.8959 69.9246 14.7491 69.9246 21.9036V37.9369H75.8616V19.1519C75.8616 13.5017 70.4744 10.4565 64.7573 10.5666C59.0401 10.6766 57.9774 10.1997 53.7628 14.3089V37.9002H59.6632ZM48.7054 26.5998V24.8387C48.7054 14.2355 43.2448 10.8234 37.9675 10.8234C30.7111 10.8234 26.0935 16.7304 26.0935 24.3618C26.0935 34.4514 32.4702 38.3771 38.847 38.3771C41.4857 38.3771 44.3442 37.68 47.2028 36.3959V31.2594C44.5641 32.4701 42.1454 33.0205 39.7266 33.0205C35.3288 33.0205 32.91 30.3055 32.6901 26.6365L48.7054 26.5998ZM32.6901 21.6468C32.6901 18.7116 34.4492 15.5196 37.5277 15.5196C40.1664 15.5196 42.5851 17.721 42.3286 21.6468H32.6901ZM0 1.24744V38.3771H10.3348C21.3292 38.3771 23.125 31.9932 23.125 27.9206C23.125 22.8575 19.9732 19.7756 16.1618 19.0051C18.1775 18.2346 21.5491 16.2167 21.5491 10.3464C21.5491 1.94454 13.4499 1.21075 10.5547 1.21075L0 1.24744ZM9.45522 7.08106C14.3661 7.08106 14.8058 10.1263 14.8058 11.6672C14.8058 13.2082 14.1462 16.2534 9.63846 16.2534H6.48672V7.08106H9.45522ZM6.52337 22.087H10.3348C11.4709 22.087 16.1618 22.3072 16.1618 27.407C16.1618 30.4522 14.1462 32.4701 10.3348 32.4701H6.52337V22.087ZM173.126 6.45734C172.979 5.50341 173.566 3.63225 174.189 2.93515C174.005 2.01792 173.236 1.79778 172.796 1.79778C172.393 1.79778 171.587 2.05461 171.44 2.93515C172.21 3.74232 172.503 5.5401 172.503 6.45734C172.429 6.49403 172.356 6.53072 172.283 6.56741C171.147 6.31058 169.864 5.35666 169.278 4.5128C168.068 4.43942 167.702 5.35666 167.702 5.79693C167.702 6.31058 167.958 6.82423 168.435 7.15444C169.021 6.89761 169.461 6.89761 170.194 6.89761C170.67 6.89761 171.623 7.00768 172.136 7.22782C172.136 7.33788 172.136 7.41126 172.173 7.48464C171.697 8.43857 170.157 9.50256 169.278 9.68601C168.801 10.75 169.608 11.7039 170.597 11.7039C170.854 11.7039 171.183 11.5939 171.513 11.3003C171.403 10.273 172.026 8.6587 172.723 7.85154C172.796 7.88823 172.906 7.88823 172.979 7.88823C173.712 8.80546 174.262 10.2363 174.189 11.337C174.445 11.5205 174.775 11.7039 175.105 11.7039C176.131 11.7039 176.827 10.7133 176.424 9.7227C175.398 9.53925 173.932 8.21843 173.492 7.52133C173.529 7.44795 173.566 7.37457 173.602 7.30119C174.005 7.08106 174.885 6.9343 175.435 6.9343C176.241 6.9343 176.681 6.97099 177.23 7.19113C177.743 6.89761 178 6.34727 178 5.83362C178 5.17321 177.34 4.47611 176.387 4.54949C175.911 5.39334 174.189 6.53072 173.382 6.6041C173.272 6.56741 173.236 6.49403 173.126 6.45734Z" fill="#57595C"/>
</svg>
