<svg width="226" height="45" viewBox="0 0 226 45" fill="none" xmlns="http://www.w3.org/2000/svg">
<path d="M79.6787 43.719V3.98904H103.506V9.61791H87.4935V38.0901H104.38V43.719H79.6787ZM89.5702 25.6301C89.807 24.8286 90.144 23.9997 90.5812 23.1436C91.0366 22.2874 91.6287 21.5679 92.3573 20.9849C93.086 20.402 93.9786 20.1105 95.0351 20.1105H101.648V25.6301H89.5702Z" fill="white"/>
<path d="M126.234 43.719C124.849 41.4419 123.41 39.1649 121.917 36.8878C120.441 34.5926 118.947 32.3155 117.435 30.0567L107.872 15.4654H116.561L120.824 23.3895L121.151 24.5371L121.589 23.3895L125.906 15.4654H134.213L124.868 29.7288L134.759 43.719H126.234ZM107.38 43.719L115.796 31.6962C116.269 32.2791 116.743 33.026 117.217 33.9368C117.709 34.8294 118.027 35.804 118.173 36.8605C118.337 37.9171 118.164 38.9645 117.654 40.0028L115.632 43.719H107.38Z" fill="white"/>
<path d="M149.606 44.4294C146.964 44.4294 144.706 43.7827 142.829 42.4894C140.971 41.1778 139.55 39.3926 138.567 37.1338C137.583 34.8567 137.091 32.2791 137.091 29.4009C137.091 27.47 137.419 25.6392 138.075 23.9087C138.731 22.1781 139.623 20.6479 140.753 19.3181C141.882 17.9701 143.166 16.9136 144.605 16.1485C146.044 15.3652 147.547 14.9735 149.114 14.9735C150.043 14.9735 150.954 15.0373 151.846 15.1648C152.757 15.2741 153.923 15.5382 155.344 15.9572C154.852 17.2141 154.269 18.2343 153.595 19.0176C152.939 19.8009 152.156 20.2381 151.245 20.3291C149.751 20.4202 148.558 20.8665 147.666 21.668C146.791 22.4513 146.154 23.5079 145.753 24.8377C145.37 26.1675 145.179 27.6886 145.179 29.4009C145.179 31.095 145.407 32.6525 145.862 34.0734C146.318 35.4943 146.973 36.6419 147.83 37.5163C148.704 38.3725 149.751 38.8006 150.972 38.8006C152.01 38.8006 153.039 38.4909 154.06 37.8715C155.08 37.2522 156.164 36.2867 157.311 34.9751V2.29492H164.907V36.8332C164.907 37.8351 164.971 38.9098 165.099 40.0575C165.226 41.2051 165.436 42.4256 165.727 43.719H159.88C159.424 43.4639 159.042 43.0996 158.732 42.626C158.422 42.1524 158.167 41.6605 157.967 41.1505L157.694 39.8935L156.765 41.0958C155.344 42.371 154.06 43.2453 152.912 43.719C151.783 44.1926 150.68 44.4294 149.606 44.4294Z" fill="white"/>
<path d="M185.682 44.4294C183.113 44.4294 180.718 43.8556 178.495 42.708C176.273 41.5421 174.47 39.8571 173.085 37.6529C171.719 35.4305 171.036 32.7345 171.036 29.5648C171.036 26.9963 171.491 24.783 172.402 22.925C173.331 21.0487 174.533 19.5094 176.009 18.3071C177.484 17.1048 179.069 16.2122 180.763 15.6293C182.476 15.0464 184.115 14.7549 185.682 14.7549C188.578 14.7549 191.119 15.3834 193.305 16.6403C195.51 17.8973 197.231 19.646 198.47 21.8866C199.708 24.109 200.328 26.6684 200.328 29.5648C200.328 31.8783 199.909 33.955 199.071 35.7948C198.233 37.6347 197.113 39.2013 195.71 40.4947C194.307 41.7698 192.732 42.7444 190.983 43.4184C189.252 44.0924 187.485 44.4294 185.682 44.4294ZM185.682 38.8552C187.103 38.8552 188.296 38.4362 189.261 37.5983C190.227 36.7603 190.955 35.64 191.447 34.2373C191.939 32.8347 192.185 31.2772 192.185 29.5648C192.185 27.8707 191.939 26.3223 191.447 24.9197C190.955 23.517 190.227 22.4058 189.261 21.5861C188.296 20.7481 187.103 20.3291 185.682 20.3291C184.261 20.3291 183.059 20.7481 182.075 21.5861C181.11 22.4058 180.372 23.517 179.862 24.9197C179.37 26.3223 179.124 27.8707 179.124 29.5648C179.124 32.2973 179.716 34.5288 180.9 36.2594C182.102 37.9899 183.696 38.8552 185.682 38.8552Z" fill="white"/>
<path d="M215.43 44.2655C214.009 44.2655 212.388 44.1288 210.566 43.8556C208.745 43.6006 206.613 42.9721 204.172 41.9702L205.921 36.8878C207.615 37.5436 209.127 37.999 210.457 38.2541C211.787 38.5091 213.026 38.6366 214.173 38.6366C215.521 38.6366 216.505 38.3542 217.124 37.7895C217.744 37.2066 218.053 36.5782 218.053 35.9041C218.053 35.0844 217.735 34.4013 217.097 33.8548C216.459 33.2901 215.64 32.7891 214.638 32.352C213.636 31.8965 212.57 31.4229 211.441 30.9311C210.311 30.4392 209.246 29.8654 208.244 29.2096C207.242 28.5356 206.422 27.7159 205.785 26.7504C205.147 25.7667 204.828 24.5553 204.828 23.1162C204.828 21.9504 205.147 20.739 205.785 19.4821C206.44 18.2251 207.506 17.1595 208.982 16.2851C210.457 15.4107 212.443 14.9735 214.938 14.9735C216.177 14.9735 217.443 15.0646 218.736 15.2468C220.03 15.4289 221.551 15.8115 223.3 16.3944L221.551 21.3128C220.13 20.9303 218.982 20.6844 218.108 20.5751C217.252 20.4475 216.359 20.3838 215.43 20.3838C214.392 20.3838 213.563 20.5933 212.944 21.0123C212.343 21.4312 212.042 22.0233 212.042 22.7884C212.042 23.5534 212.361 24.2183 212.998 24.783C213.636 25.3295 214.456 25.8396 215.458 26.3132C216.459 26.7686 217.525 27.2605 218.654 27.7887C219.784 28.2988 220.85 28.8908 221.851 29.5648C222.853 30.2389 223.673 31.0677 224.311 32.0514C224.948 33.0169 225.267 34.21 225.267 35.6309C225.267 37.3979 224.803 38.9281 223.873 40.2214C222.944 41.5148 221.724 42.5167 220.212 43.2271C218.718 43.9194 217.124 44.2655 215.43 44.2655Z" fill="white"/>
<path d="M38.856 10.6939C40.0199 9.58175 40.7362 7.95627 40.7362 6.24525C40.7362 2.73764 37.7817 0 34.2005 0C31.8727 0 29.903 1.11217 28.7391 2.82319C28.381 3.1654 2.14872 33.9639 1.88013 34.3061C0.71624 35.5038 0 37.0437 0 38.7547C0 42.2623 2.95449 45 6.53569 45C8.86347 45 10.8331 43.8878 11.997 42.1768C12.3551 41.9201 38.5875 11.1217 38.856 10.6939Z" fill="url(#paint0_linear_0_5160)"/>
<path d="M53.9869 25.3233C55.1508 24.2111 55.9565 22.5857 55.9565 20.8746C55.9565 17.367 53.002 14.6294 49.4208 14.6294C47.0931 14.6294 45.1234 15.7416 43.9595 17.4526C43.6014 17.7948 29.9033 33.964 29.6347 34.3062C28.4708 35.4184 27.665 37.0438 27.665 38.7549C27.665 42.2625 30.6195 45.0001 34.2007 45.0001C36.5285 45.0001 38.4982 43.8879 39.6621 42.1769C39.9307 41.9203 53.7183 25.7511 53.9869 25.3233Z" fill="url(#paint1_linear_0_5160)"/>
<path d="M61.7759 12.4905C65.3855 12.4905 68.3116 9.6944 68.3116 6.24525C68.3116 2.79609 65.3855 0 61.7759 0C58.1664 0 55.2402 2.79609 55.2402 6.24525C55.2402 9.6944 58.1664 12.4905 61.7759 12.4905Z" fill="#FFE815"/>
<defs>
<linearGradient id="paint0_linear_0_5160" x1="20.3681" y1="0" x2="50.5505" y2="0" gradientUnits="userSpaceOnUse">
<stop stop-color="#0057FC"/>
<stop offset="1" stop-color="#71A2FF"/>
</linearGradient>
<linearGradient id="paint1_linear_0_5160" x1="33.4729" y1="39.6207" x2="42.3533" y2="2.73256" gradientUnits="userSpaceOnUse">
<stop stop-color="#FFE815"/>
<stop offset="1" stop-color="#FFF387"/>
</linearGradient>
</defs>
</svg>
