<svg width="85" height="85" viewBox="0 0 85 85" fill="none" xmlns="http://www.w3.org/2000/svg">
<path d="M1.48914 33.8056C1.48914 33.627 1.5487 33.389 1.5487 33.2104C1.5487 33.4485 1.5487 33.627 1.48914 33.8056Z" fill="#191E2B"/>
<path d="M5.48003 21.5451L4.88437 22.6164C4.88437 22.6759 4.82481 22.6759 4.82481 22.7354C4.76524 22.8545 4.70568 22.9735 4.64611 23.0925C4.70568 23.033 4.70568 22.914 4.76524 22.8545C4.64611 23.033 4.58654 23.2116 4.52698 23.3901L4.16959 24.1638C4.22915 24.1043 4.22915 24.0448 4.28872 23.9853C3.87176 24.878 3.4548 25.8303 3.15697 26.8421C2.14436 30.8297 1.7274 35.115 1.60827 42.4355C2.32306 28.8657 4.22915 24.1638 4.88437 22.6164C5.06307 22.2593 5.30133 21.9022 5.48003 21.5451Z" fill="#191E2B"/>
<path d="M1.19131 32.3772C1.07218 32.9128 0.953048 33.4485 0.833917 33.9246L0.774352 34.2222C0.53609 35.7101 1.01261 38.805 1.60827 42.4355C1.5487 42.1379 1.5487 41.8404 1.48914 41.4833C0.833917 35.5316 0.953048 33.8056 1.19131 32.3772Z" fill="#191E2B"/>
<path d="M0.357393 36.7814C0.297828 37.2576 0.238262 37.8527 0.178697 38.2693C0.178697 38.3289 0.178697 38.3884 1.66783 42.4355C0.416959 37.7337 0.416959 37.2576 0.416959 36.6624C0.357393 36.6624 0.357393 36.7219 0.357393 36.7814Z" fill="#191E2B"/>
<path d="M82.5578 56.8386C82.6174 56.7196 82.6174 56.6601 82.6769 56.541C82.9152 55.7673 83.213 54.8746 83.4513 54.1008C83.6896 53.3866 83.9278 52.3748 84.1065 51.6011C81.7239 61.4214 76.363 69.7538 68.143 76.4792L70.466 74.5746C70.7043 74.3366 70.9425 74.158 71.1808 73.9199C71.8956 73.2057 72.7295 72.3725 73.5634 71.5393C74.0399 71.0036 74.6356 70.3489 75.41 69.4562C75.7673 68.98 76.1843 68.4444 76.6013 67.9087C79.9965 63.2069 81.3069 59.993 82.5578 56.8386Z" fill="#191E2B"/>
<path d="M0.0595655 40.2929C0.0595655 40.3524 0 40.4119 0 40.4715C0 40.8881 0 41.1857 0 41.1857C0 41.4237 0 41.7213 0 42.0189C0 41.5428 0.0595655 41.4833 0.357393 41.3047C0.893483 41.4237 0.893483 41.4237 1.7274 42.376C0.53609 40.4119 0.297828 40.3524 0.0595655 40.2929Z" fill="#191E2B"/>
<path d="M58.0764 82.0738C76.4821 74.277 83.5109 54.7555 84.7022 47.8516C84.7022 47.792 84.7022 47.792 84.7022 47.7325C84.7617 47.3754 84.8213 46.8993 84.8213 46.5422L84.8809 45.828C84.8809 45.828 84.8809 45.828 84.8809 45.7685C84.5235 49.8156 76.2439 77.7885 50.8094 84.0973C51.1668 84.0378 51.5242 83.9783 51.8816 83.9188C53.6685 83.4426 55.9916 82.7284 57.719 82.1333C57.8977 82.1333 57.9572 82.0738 58.0764 82.0738Z" fill="#191E2B"/>
<path d="M0.297828 43.6259C0.655221 42.6736 0.893483 42.6141 1.66783 42.4355C0.0595654 41.7213 0.0595655 43.2092 0 44.4591C0 44.9352 0.0595655 45.5304 0.119131 45.947V46.4232C0.0595655 45.7685 0 44.3996 0.297828 43.6259Z" fill="#191E2B"/>
<path d="M85 43.3878C85 43.2092 85 43.0902 85 42.9117V42.7926C85 42.6141 85 42.4355 85 42.257C85 42.0784 85 41.9594 85 41.7808C84.9404 44.9947 67.4282 91.1798 31.8676 83.7402C32.8802 83.9783 34.2502 84.2164 35.2032 84.4544C36.5137 84.633 38.2411 84.8115 39.5515 84.9901C71.4786 85.7043 84.583 47.6135 85 43.3878Z" fill="#191E2B"/>
<path d="M0.655221 50.3513C0.655221 50.4108 0.714786 50.5298 0.714786 50.5893C-0.178697 45.4114 1.13174 43.2688 1.60827 42.4355C-1.58436e-07 43.9234 0.0595656 46.4827 0.655221 50.3513Z" fill="#191E2B"/>
<path d="M21.5627 79.5145C57.7785 98.2623 83.3322 45.7685 84.9404 39.4597C84.9404 39.4002 84.9404 39.4002 84.9404 39.3406V39.0431C84.9404 38.9835 84.9404 38.9835 84.9404 38.924C84.9404 38.6264 84.8809 38.2098 84.8213 37.9122C84.8213 37.8527 84.8213 37.8527 84.8213 37.7932C79.1626 45.2328 76.0652 54.2794 69.9895 61.4809C67.0112 64.9924 60.042 73.2057 50.6903 78.0266C31.9867 87.6683 20.1331 79.0979 15.0105 74.8722C15.1892 74.9912 15.3679 75.1698 15.5466 75.2888L16.3805 76.003C17.9292 77.1339 20.014 78.5027 21.6223 79.5145C21.5627 79.5145 21.5627 79.5145 21.5627 79.5145Z" fill="#191E2B"/>
<path d="M1.07218 52.2558V52.1963C1.07218 52.2558 1.13174 52.3153 1.13174 52.3748C1.25088 52.851 1.42957 53.4461 1.5487 53.9223C1.78697 54.8745 2.20392 56.1244 2.56132 57.0767C2.79958 57.6123 3.03784 58.386 3.2761 58.9812C3.57393 59.6359 3.99089 60.5287 4.28872 61.1833C4.58654 61.838 5.06307 62.7308 5.42046 63.3855C5.83742 64.1592 6.43308 65.0519 6.96917 65.8852C12.8066 74.3961 22.2179 81.062 32.761 80.1692C57.719 77.9671 74.8143 49.7561 81.3069 39.1026C83.5109 35.4125 83.5108 35.4125 84.4043 35.234V35.1745C84.2852 34.5793 84.1661 33.8651 84.0469 33.2699V33.2104C83.9874 33.0319 83.6895 32.8533 83.5108 32.7343C82.5578 33.2104 81.9026 34.1627 78.5669 39.2811C69.9299 52.4344 60.042 65.6471 45.9846 73.3843C14.1766 90.7037 -2.26349 56.8981 1.60827 42.4355C0.53609 45.2328 0.416959 48.6848 1.07218 52.2558Z" fill="#191E2B"/>
<path d="M74.9334 37.5551C80.5921 29.5799 81.9622 27.6158 83.213 30.1751V30.1155C83.0939 29.6989 82.9152 29.2823 82.7961 28.8657C82.6769 28.5681 82.6174 28.2705 82.4982 27.9729C80.8304 24.4019 78.5073 27.4968 73.0273 34.9959C66.9516 43.2688 59.3868 53.5057 48.3076 62.2546C15.6062 87.9659 -0.536089 60.5287 1.66783 42.495C-2.79958 62.9093 25.7919 107.071 74.9334 37.5551Z" fill="#191E2B"/>
<path d="M68.5599 32.8533C75.7078 23.5092 78.3882 19.9977 81.0687 24.64C81.0687 24.5805 81.0091 24.5805 81.0091 24.5209C80.6517 23.7472 80.1156 22.795 79.7582 22.0212C77.6734 18.3907 75.1717 19.8786 72.8486 21.9617C63.0799 30.7702 56.6468 42.4355 47.1163 51.4226C16.4401 80.3478 1.19131 60.9453 1.60827 42.4355C-0.119131 61.3024 20.8479 94.9889 68.5599 32.8533Z" fill="#191E2B"/>
<path d="M62.6629 25.6518C69.8108 16.7838 73.623 13.5698 77.4947 18.3312C76.8991 17.498 76.1247 16.4862 75.4695 15.6529C75.1121 15.2363 74.7547 14.8197 74.3973 14.4031C71.0021 10.713 69.2151 12.7961 47.295 37.6147C15.6062 73.6224 4.40785 57.3743 2.02523 45.6494C4.05046 56.3029 14.2957 86.0019 62.6629 25.6518Z" fill="#191E2B"/>
<path d="M1.66783 42.9117C1.7274 43.8044 1.9061 44.6972 2.08479 45.709C1.84653 44.4591 1.7274 43.4473 1.66783 42.9117Z" fill="#191E2B"/>
<path d="M1.60827 42.4355C1.60827 42.4355 1.60827 42.6141 1.66783 42.9117C1.66783 42.7331 1.60827 42.6141 1.60827 42.4355Z" fill="#191E2B"/>
<path d="M48.665 27.3182C60.5186 12.5581 65.9986 7.02299 71.8956 11.8439C71.836 11.7843 71.836 11.7843 71.7764 11.7248C70.9425 10.9511 69.8703 10.0584 69.096 9.34415C69.096 9.34415 69.0364 9.34415 69.0364 9.28463C63.4968 5.05893 57.719 9.10608 44.2572 26.4255C9.11352 71.5988 2.56132 47.673 1.60827 42.4355C2.08479 46.2446 7.56482 78.3837 48.665 27.3182Z" fill="#191E2B"/>
<path d="M39.1941 24.2829C51.6433 7.61816 58.0764 2.97584 64.4499 6.13024C64.2116 6.0112 64.0329 5.89217 63.8542 5.77314L63.6755 5.6541C63.5564 5.59459 63.3777 5.47555 63.2586 5.41604L61.412 4.46376C61.1738 4.34473 60.9355 4.2257 60.6973 4.10666C52.0603 0.357101 41.815 14.4626 34.965 23.8663C12.747 54.3984 4.58654 50.8274 1.60827 42.4355C3.51437 49.5775 10.9005 62.1356 39.1941 24.2829Z" fill="#191E2B"/>
<path d="M29.4849 23.4496C39.7898 8.86801 46.6398 0.119034 55.2172 1.96406C54.9194 1.90454 54.6216 1.78551 54.3237 1.72599C53.2516 1.4284 52.0603 1.13082 51.1072 0.892753C42.5893 -0.357101 36.0371 8.45139 26.1493 22.914C19.5971 32.4962 7.38612 50.2918 1.60827 42.4355C7.38612 54.7555 24.0049 31.1868 29.4849 23.4496Z" fill="#191E2B"/>
<path d="M21.9201 22.3783C32.5823 5.95169 37.4667 0.357101 44.7933 0.0595169C44.6741 0.0595169 44.4954 0.0595169 44.3763 0.0595169L42.5893 0L40.8619 0.0595169C40.6832 0.0595169 40.445 0.0595169 40.2663 0.0595169C32.5228 0.714202 26.1493 10.9511 18.1675 23.9258C12.5088 33.0319 6.07568 43.3878 1.60827 42.4355C6.13525 46.7207 15.6657 32.0796 21.9201 22.3783Z" fill="#191E2B"/>
<path d="M15.1296 23.4496C23.7071 8.33236 27.8767 2.61874 34.1906 0.833236C33.1184 1.0713 31.7484 1.4284 30.5571 1.72599C30.3189 1.78551 30.0806 1.84502 29.8423 1.90454C23.4688 4.34473 18.8227 12.6176 11.3175 26.9016C6.01612 37.0195 3.93132 40.3524 1.60827 42.4355C5.0035 41.2452 9.23266 33.8056 15.1296 23.4496Z" fill="#191E2B"/>
<path d="M24.3027 4.10666C24.1836 4.16618 24.0645 4.2257 23.9453 4.28521L22.2179 5.11845L21.2053 5.71362C21.0266 5.83265 20.8479 5.95169 20.6692 6.0112C17.6314 7.97526 15.3679 11.4868 12.747 16.5457C8.39874 24.878 5.42046 33.8056 1.66783 42.4355C3.33567 39.7573 5.59916 34.8174 8.4583 28.5681C16.0827 12.0819 19.3588 6.96347 24.3027 4.10666Z" fill="#191E2B"/>
<path d="M16.0231 9.22511C15.904 9.28463 15.8444 9.40366 15.7253 9.46318C15.6657 9.5227 15.6062 9.58222 15.5466 9.64173C15.487 9.70125 15.3679 9.76077 15.3083 9.82028C14.5936 10.475 13.8192 11.1297 13.164 11.7248C9.35179 15.4149 5.48003 25.7708 1.60827 42.4355C9.23266 17.1409 12.747 12.2605 16.0231 9.22511Z" fill="#191E2B"/>
<path d="M9.11352 16.1886C8.637 16.7838 8.16048 17.498 7.68395 18.0336C7.62439 18.1526 7.50526 18.2717 7.44569 18.3907C4.88437 22.3783 2.91871 30.4726 1.60827 42.4355C2.74001 34.9959 5.1822 21.7237 9.53048 15.6529C9.41135 15.8315 9.23266 16.01 9.11352 16.1886Z" fill="#191E2B"/>
<path d="M1.60827 33.0319C1.7274 32.0201 1.9061 31.0678 2.14436 30.1155C2.44219 28.3895 2.50175 28.211 2.91871 26.9016C2.91871 26.9611 2.85915 26.9611 2.85915 27.0207C2.62088 27.6753 2.32306 28.5086 2.08479 29.1633C1.60827 30.7107 1.48914 32.5557 1.42957 34.6388C1.42957 34.5198 1.42957 34.4603 1.48914 34.3412C1.37001 35.4125 1.31044 36.5434 1.31044 37.6147C1.37001 39.3406 1.42957 39.5787 1.60827 42.3165C1.42957 38.0313 1.48914 36.0077 1.60827 33.0319ZM1.48914 33.8056C1.48914 33.627 1.5487 33.389 1.5487 33.2104C1.5487 33.4485 1.5487 33.627 1.48914 33.8056Z" fill="#191E2B"/>
</svg>
