<svg width="182" height="36" viewBox="0 0 182 36" fill="none" xmlns="http://www.w3.org/2000/svg">
<path d="M13.333 35.4543H0V10.5053C1.05669 11.0206 2.20663 11.3844 3.32548 11.6269C4.38217 11.9301 5.59426 12.0816 6.80635 12.0816C7.95628 12.0816 9.01298 11.9301 10.1318 11.6269C11.2507 11.3844 12.3074 11.0206 13.3019 10.5053L13.333 35.4543ZM5.8429 6.80687C5.8429 5.77616 6.15369 4.89704 6.89959 4.13917C7.64549 3.47224 8.57787 3.10846 9.63456 3.10846C10.6291 3.10846 11.5304 3.47224 12.2763 4.13917C12.96 4.86672 13.333 5.77616 13.333 6.80687C13.333 7.83757 12.96 8.7167 12.2763 9.38362C11.5304 10.1112 10.598 10.5053 9.63456 10.5053C8.57787 10.5053 7.67657 10.1415 6.89959 9.38362C6.12261 8.7167 5.8429 7.83757 5.8429 6.80687ZM17.9638 35.4543V10.5053H30.6752V13.0214C31.6387 12.0816 32.7575 11.3238 34.0007 10.8084C35.2128 10.3537 36.5803 10.1415 38.1031 10.1415C41.1489 10.1415 43.4177 10.8084 44.9095 12.2938C46.4945 13.7793 47.2715 15.9013 47.2715 18.7812V35.4543H35.2439V20.7517C35.2439 19.63 35.0263 18.7509 34.5601 18.2355C34.1872 17.7202 33.5034 17.508 32.6021 17.508C32.2292 17.508 31.9184 17.5686 31.6076 17.6596C31.2657 17.8414 30.9549 18.0537 30.7063 18.3265V35.4543H17.9638ZM64.2408 35.4543H51.2807V3.92696H64.2408V18.569C65.8258 17.8414 66.9758 16.8714 67.7217 15.5375C68.4676 14.2946 68.8716 12.597 68.9337 10.5053H81.8938C81.9559 10.8084 81.9559 11.0813 81.9559 11.2328C81.9559 11.445 82.0181 11.5966 82.0181 11.7482C82.0181 13.5974 81.5519 15.2344 80.7439 16.6895C79.9047 18.1749 78.6926 19.5694 76.9522 20.7517C78.6926 22.2371 79.998 23.9347 80.806 25.7839C81.6451 27.6938 82.0803 29.9067 82.0803 32.4229C82.0803 32.9382 82.0181 33.4536 82.0181 33.9689C82.0181 34.4236 81.9559 34.939 81.8627 35.4543H69.0581V34.848C69.0581 31.4528 68.6851 28.7245 67.846 26.7843C67.0068 24.8745 65.7947 23.6013 64.2097 23.0859L64.2408 35.4543Z" fill="#57595C"/>
<path d="M168.605 3.92696H182V35.4543H168.605V3.92696ZM150.952 3.92696H164.285V35.4543H150.952V3.92696ZM134.076 20.1757H139.919V19.8725C139.919 18.7509 139.608 17.8718 139.08 17.2048C138.489 16.5379 137.805 16.2348 136.873 16.2348C135.972 16.2348 135.288 16.5379 134.822 17.2048C134.387 17.8718 134.076 18.9025 134.076 20.1757ZM147.875 25.9355V30.1492C146.352 32.0591 144.612 33.5445 142.654 34.5146C140.696 35.4846 138.427 36 135.91 36C134.014 36 132.273 35.7878 130.75 35.3331C129.227 34.9693 127.86 34.3024 126.648 33.4839C124.752 32.15 123.322 30.513 122.328 28.6032C121.333 26.6934 120.898 24.6016 120.898 22.328C120.898 18.7206 122.11 15.7497 124.535 13.3852C126.959 11.0813 130.067 9.98992 133.92 9.98992C138.24 9.98992 141.659 11.1722 144.145 13.5974C146.632 15.9619 147.937 19.2056 147.937 23.2678V23.9953C147.937 24.1469 147.875 24.2985 147.875 24.4501H134.853C135.226 25.7839 135.91 26.8753 136.904 27.5422C137.961 28.2697 139.266 28.6638 140.758 28.6638C141.815 28.6638 142.964 28.4516 144.083 28.0575C145.202 27.6331 146.508 26.9056 147.875 25.9355ZM99.1428 35.4543H91.7148L80.4952 10.475H94.0458L96.5321 15.5072L98.8941 10.475H105.172L107.441 15.5072L109.927 10.475H123.695L112.414 35.4543H105.048L102.095 28.967L99.1428 35.4543Z" fill="#57595C"/>
<path d="M152.413 8.5045C152.879 7.77694 154.681 6.29152 155.831 6.95844C158.193 8.35292 153.718 10.4446 152.506 11.2328C150.019 12.9305 152.972 14.4159 155.085 13.5367C157.665 12.506 158.722 11.3844 161.612 11.6875C161.985 11.6875 162.607 12.9305 162.296 13.2336C160.182 15.2344 154.029 13.2942 153.749 16.1135C153.687 16.8411 157.603 17.9021 157.168 18.1749C156.702 18.5387 152.786 16.6289 152.63 18.3265C152.413 20.1151 156.422 21.8127 155.893 23.0556C155.427 24.0863 152.63 19.2056 150.672 20.3879C150.144 20.691 150.361 22.1765 149.926 22.6009C149.087 23.2678 148.341 24.6623 147.191 24.2985C146.508 24.0863 149.025 19.2056 146.29 19.721C143.804 20.1757 142.188 26.2083 139.08 25.1776C136.593 24.3591 138.458 21.6914 140.136 20.6607C141.348 19.9332 145.451 19.3269 145.358 17.5686C145.295 16.447 143.835 17.417 143.089 16.8411C142.623 16.4773 144.612 15.5982 144.612 14.9919C144.55 13.9612 141.721 13.4458 142.125 12.8395L142.188 12.6879C142.405 12.3242 142.933 12.1726 143.337 12.112C143.866 11.9604 144.767 12.7789 145.295 12.6273C145.606 12.5667 146.57 12.0513 146.663 11.7482C147.813 9.32299 141.069 4.50294 144.86 2.95689L145.171 2.80532C147.968 1.62304 145.016 9.7474 148.341 9.95961C149.336 10.0202 148.807 8.04977 149.491 8.04977C150.33 8.1104 148.434 11.536 149.709 11.7482C150.952 11.9604 151.884 9.38362 152.413 8.5045ZM151.946 0.0163557C154.588 -0.347422 152.009 5.47302 150.734 5.92774C150.051 6.13994 149.833 0.380133 151.946 0.0163557ZM161.861 18.4781C162.917 18.5387 164.658 20.1757 164.067 20.691C163.321 21.358 159.436 19.4481 159.53 18.8418C159.685 18.1749 161.332 18.4781 161.861 18.4781ZM142.032 10.7175C142.343 10.7175 142.716 11.8391 142.25 12.2029C141.721 12.6576 140.727 13.3852 140.043 12.9305C139.826 12.7789 139.888 11.8088 140.043 11.6875C140.509 11.2935 141.255 10.7175 142.032 10.7175Z" fill="#57595C"/>
</svg>
