<svg width="186" height="40" viewBox="0 0 186 40" fill="none" xmlns="http://www.w3.org/2000/svg">
<path d="M151.221 2.228L161.696 1.09127C161.56 6.68401 155.166 18.4151 148.002 19.1427C149.952 16.3235 151.72 9.77594 151.221 2.228ZM180.332 4.59242C173.53 4.45601 162.331 5.22899 157.887 15.0049L166.865 27.6C165.142 28.9641 162.557 29.3278 160.698 28.9641V39.9677C166.003 40.195 175.888 39.4675 182.055 29.6916L173.394 16.6873C174.755 14.9595 177.974 14.9595 180.287 15.3232V4.59242H180.332ZM183.053 33.5565C184.413 33.5565 185.456 34.6477 185.456 36.0573C185.456 37.5123 184.413 38.6036 183.053 38.6036C181.692 38.6036 180.604 37.5123 180.604 36.0573C180.649 34.6477 181.692 33.5565 183.053 33.5565V33.1018C181.42 33.1018 180.06 34.3749 180.06 36.0573C180.06 37.7397 181.42 39.0128 183.053 39.0128C184.685 39.0128 186 37.6942 186 36.0573V36.0118C186 34.3295 184.64 33.0563 183.053 33.0563V33.5565Z" fill="#57595C"/>
<path d="M182.463 34.7842H183.189C183.551 34.7842 183.96 34.8751 183.96 35.3298C183.96 35.8754 183.506 35.9209 183.053 35.9209H182.509V36.3756H183.098L184.05 37.8761H184.64L183.642 36.3301C184.141 36.2846 184.549 36.0118 184.549 35.3753C184.549 34.6932 184.141 34.3749 183.325 34.3749H182.01V37.8306H182.554L182.463 34.7842ZM69.3759 2.95552C59.5363 2.95552 51.5558 10.9581 51.5558 20.7796C51.5558 30.6464 59.5363 38.6491 69.3759 38.6491C79.2155 38.6491 87.196 30.6464 87.196 20.7796C87.196 10.9127 79.2155 2.95552 69.3759 2.95552ZM69.3759 13.9591C73.1394 13.9591 76.1775 17.0056 76.1775 20.7796C76.1775 24.5535 73.1394 27.6 69.3759 27.6C65.6124 27.6 62.5744 24.5535 62.5744 20.7796C62.5744 17.0056 65.6124 13.9591 69.3759 13.9591ZM0 33.4201L16.1877 0L27.9317 17.3239L39.1316 0.727512L54.9113 33.4201L44.6636 39.1038L37.2725 24.6445L27.8864 38.5126L18.0015 24.0079L10.2477 39.1038L0 33.4201ZM90.5968 4.68336L87.2413 15.687H96.3554V38.6036H108.372V15.7324H126.509V38.6491H138.48V15.7324H148.727L144.51 4.72883H120.07L117.758 10.9127L115.4 4.72883H90.5968V4.68336Z" fill="#57595C"/>
</svg>
