<svg width="214" height="37" viewBox="0 0 214 37" fill="none" xmlns="http://www.w3.org/2000/svg">
<path d="M23.7636 0.843786H32.378V31.3888H24.0607V13.1631L9.9298 31.3888H0L23.7636 0.843786ZM44.9812 13.1209H45.3206C46.9332 13.1209 48.1214 12.1927 48.1214 10.4629C48.1214 8.18472 46.6786 8.01596 44.9812 8.01596H41.841V13.1631L44.9812 13.1209ZM44.9812 24.3854H45.448C47.5273 24.3854 49.0549 23.8791 49.0549 21.5165C49.0549 19.0696 47.3575 18.732 45.0236 18.6477H41.8834V24.3432L44.9812 24.3854ZM78.2927 21.2212V22.4025C78.2078 22.6556 78.2078 22.8666 78.2078 23.1197L72.8186 26.1574L67.005 29.4059L72.8186 26.6636L78.123 24.2166C77.8683 25.3136 77.5289 26.3683 77.0196 27.2543L72.861 29.5747L69.254 31.5998L72.861 29.9122L76.3831 28.2246C75.5344 29.4481 74.3038 30.4185 72.861 31.0935C71.0787 31.9373 68.957 32.4014 66.5382 32.4014C61.5308 32.4014 57.839 29.7434 56.2265 26.0308C54.8685 30.0388 51.0494 31.5576 45.9147 31.5576H33.5661V0.843786H45.6601C51.3464 0.843786 55.8445 2.44698 55.8445 8.56442C55.8445 11.7286 54.232 14.0068 52.577 15.2303C55.2505 16.0741 56.6932 18.8164 56.7357 22.0228H63.2282C63.2282 22.1494 63.2282 22.2759 63.3131 22.4025L61.2338 23.5838L63.3131 22.5291C63.5677 23.3729 64.0345 24.0057 64.6286 24.4698C65.2651 24.9339 65.9865 25.187 66.7928 25.187L64.3316 26.6214L67.2596 25.187C68.7024 25.187 69.8057 24.6807 70.1876 23.8369L72.861 22.5291L78.2078 20.0821C78.2503 20.4196 78.2503 20.8415 78.2927 21.2212ZM72.8186 13.5428C73.8794 14.0068 74.8979 14.6397 75.7466 15.4413L72.8186 17.0445L67.0898 20.293C62.7615 18.943 55.8445 17.9726 55.8445 9.8301C55.8445 3.29076 60.5124 0 66.7504 0C69.2116 0 71.2485 0.59065 72.8186 1.47662C75.7041 3.24857 77.1894 6.2862 77.5713 9.70354H69.7208C69.5086 8.6488 69.0843 8.01596 68.4902 7.63626C67.8961 7.25656 67.1747 7.12999 66.4109 7.12999C64.5862 7.12999 63.7375 7.72064 63.7375 8.81756C63.7799 11.5599 68.7024 11.6864 72.8186 13.5428ZM72.8186 18.0992L76.5953 16.3273C77.2318 17.0867 77.6562 17.9726 77.9108 18.943L72.8186 21.854L70.3573 23.2041V22.9932C70.3573 21.6853 69.2965 21.0525 67.7264 20.4618L72.8186 18.0992ZM92.6782 1.09692C93.145 1.01254 93.6118 1.01254 94.121 1.01254C96.0305 1.01254 97.8977 1.35006 99.5951 1.9829L92.6782 5.9065L78.5049 13.8381C79.8204 7.00342 85.5491 1.68757 92.6782 1.09692ZM92.6782 8.69099L103.117 3.83922L103.881 4.42987L92.6782 10.6739L78.3776 18.732C78.2927 18.268 78.2927 17.8039 78.2927 17.382C78.2078 17.171 78.2078 17.0023 78.2078 16.7913C78.2078 16.5804 78.2078 16.4116 78.2927 16.2007V15.5678L92.6782 8.69099ZM92.6782 13.2474L106.3 6.83466L106.639 7.17218L92.6782 15.0194L79.3536 22.4447C79.0141 21.6853 78.7595 20.7571 78.5897 19.9133L92.6782 13.2474ZM92.6782 17.2554L105.663 11.1802L92.6782 18.4367L80.7539 25.187C80.4144 24.5964 80.075 23.9635 79.7779 23.3729L92.6782 17.2554ZM92.6782 20.5884L109.398 12.7412C109.737 13.9647 109.907 15.3569 109.907 16.7491C109.907 25.4401 102.778 32.4436 94.121 32.4436C93.6118 32.4436 93.145 32.4436 92.6782 32.3592C87.9679 31.9795 83.9366 29.4903 81.2631 25.9464L92.6782 20.5884ZM118.818 0.843786V24.3854H130.191V31.5154H110.543V0.843786H118.818ZM204.537 1.94071H203.264V5.1049H202.33V1.94071H201.142V1.1813H204.537V1.94071ZM209.629 5.14709H208.696V1.94071L207.507 5.1049H206.998L205.895 1.94071L205.81 5.1049H204.961V1.1813H206.404L207.253 3.50171L208.186 1.1813H209.629V5.14709ZM187.478 24.3854H200.293V31.5154H179.203V0.843786H199.742V7.97377H187.478V12.4036H197.875V19.5336H187.478V24.3854ZM155.312 8.90194V0.843786H178.397V8.90194H170.971V31.5576H162.696V8.90194H155.312ZM129.979 0.843786H138.084V19.1961C138.084 22.2338 138.55 24.8495 141.945 24.8495C144.958 24.8495 145.807 22.5291 145.807 19.1961V0.843786H154.082V18.1836C154.082 28.0559 150.347 32.4014 141.945 32.4014C135.156 32.4014 130.912 29.6169 130.021 21.8119C129.894 20.5884 129.809 19.4071 129.809 18.1836V0.843786H129.979ZM129.979 35.6921H213.958V37H23.4242V35.6921H129.979Z" fill="#57595C"/>
</svg>
