<svg width="91" height="67" viewBox="0 0 91 67" fill="none" xmlns="http://www.w3.org/2000/svg">
<path d="M89.6697 53.5972C81.5398 51.4897 74.0124 47.1236 65.5811 46.22C63.9253 46.0697 63.6239 48.1772 64.3767 49.0808C65.4303 50.2852 66.7856 52.0916 68.2911 53.5972C64.0753 53.8985 60.161 55.4038 55.9455 56.3074C52.0311 57.2107 48.1167 56.6085 44.5036 55.2535C45.407 54.3502 46.1595 53.2963 47.063 52.2425C53.0849 43.6609 56.8488 15.5073 41.1915 13.5501C32.3088 12.3457 24.1789 23.6372 23.7273 31.6166C23.125 42.1553 29.4483 51.038 38.0298 56.3074C34.4166 58.7163 30.0505 59.9207 25.3833 60.2216C15.5974 60.6735 8.6719 54.1996 5.35973 45.4673C-0.662166 29.5086 4.45665 7.67825 21.6198 1.50554C22.3725 1.20443 22.3725 0 21.4692 0C-0.0599518 0.301108 -3.07102 32.3691 2.3489 47.2739C8.5216 64.2865 28.8463 67.9001 41.6434 57.9633C42.6972 58.4149 43.9017 59.0171 45.1061 59.3182C53.3863 62.1788 60.7634 58.1138 68.7428 57.2107C67.6889 59.1679 66.635 61.2754 65.1295 63.0823C64.0756 64.4373 64.9789 66.6956 66.9361 66.0932C75.066 63.6843 83.3464 61.8777 90.2719 56.9094C91.326 56.0061 91.326 53.8985 89.6697 53.5972ZM41.1917 53.5972C39.3851 52.5433 37.5784 51.3389 36.0729 49.9839C25.6847 41.2518 24.1792 24.9919 37.1268 17.7654C43.1489 14.4532 46.6114 21.8303 47.8161 26.4975C49.6227 33.2724 48.5688 41.1012 45.7083 47.4245C44.3533 49.8333 42.8478 51.7905 41.1917 53.5972ZM73.711 55.5544C73.8616 55.5544 74.0124 55.2533 74.0124 55.1027C73.5607 53.4466 72.2055 52.0916 70.7002 50.7367C75.5179 52.0916 80.0343 54.1994 84.852 55.7049C80.3356 58.1138 75.3671 59.6193 70.2485 61.1249C71.1519 59.4688 71.9044 57.8125 73.2594 56.4575C73.5607 56.1566 73.711 55.8555 73.711 55.5544Z" fill="#BEC3CB"/>
</svg>
