<svg width="257" height="81" viewBox="0 0 257 81" fill="none" xmlns="http://www.w3.org/2000/svg">
<path fill-rule="evenodd" clip-rule="evenodd" d="M24.9603 28.9086V74.1056H0V21.3469H48.4699C48.4699 21.3469 59.2027 21.0892 59.2027 33.2902V44.3757C59.2027 44.3757 59.0323 47.2122 55.2835 50.3923L67.8062 74.1056H42.5932L30.7518 50.2191V28.9086H24.9603ZM93.2788 29.3368H99.0718V43.687H124.456C124.456 43.687 125.479 31.3128 121.731 26.8453C117.982 22.3765 113.042 20.4005 95.9205 20.4005C95.9205 20.4005 73.3463 19.5413 69.4272 26.9312C69.4272 26.9312 65.7278 30.6989 65.5931 47.6403C65.4668 63.6409 69.4272 68.3467 69.4272 68.3467C73.3463 75.7379 95.9205 74.8774 95.9205 74.8774C113.042 74.8774 117.984 72.9014 121.731 68.434C125.479 63.9665 124.456 49.7023 124.456 49.7023H99.0718V65.9411H93.2788V29.3368ZM145.326 21.3469H189.11V74.1056H164.321V28.9086H158.869V50.1318L148.223 74.1056H122.411L145.326 21.3469ZM224.973 13.0979C224.973 13.0979 223.098 7.08263 217.136 5.70803C217.136 5.70803 211.853 0.55188 206.062 0.55188L202.144 4.16021C202.144 4.16021 204.7 9.66001 200.781 12.581L196.523 15.5021L195.669 15.8457L195.501 20.1427L196.182 20.3146V22.3765L199.589 25.2975C199.589 25.2975 206.401 26.3285 207.764 27.3594C207.764 27.3594 207.935 40.7632 209.129 45.577C210.32 50.3895 211.683 64.3088 210.661 69.1199L206.571 72.7282V76.1647C206.571 76.1647 210.15 80.1195 214.577 77.0253L215.09 77.883L217.815 78.0562L220.881 80.6322L228.377 80.9759L230.081 79.4308C230.081 79.4308 250.695 85.4447 257 73.0705L256.319 71.3522L255.978 66.713C255.978 66.713 259.213 42.4828 240.132 27.7017C238.625 26.5349 229.232 15.5035 224.973 13.0979Z" fill="black"/>
<path fill-rule="evenodd" clip-rule="evenodd" d="M223.439 16.0189C223.439 16.0189 223.439 3.64473 209.471 6.39532C209.471 6.39532 203.678 7.42627 204.36 12.0669C204.36 12.0669 201.293 15.6753 199.417 16.7076L198.909 19.4568H198.056V22.0342L199.759 23.237C199.759 23.237 207.084 22.3779 209.64 25.2989C209.64 25.2989 216.283 29.5959 222.248 20.83L224.633 19.7991L224.973 21.861C224.973 21.861 221.567 29.5945 211.515 32.8606C211.515 32.8606 210.721 39.3692 212.706 50.2177C214.75 61.3891 213.897 64.6538 213.557 70.1536L209.979 73.0733C209.979 73.0733 210.832 77.1985 215.091 74.9647C215.091 74.9647 219.521 61.2159 215.432 47.6403L217.307 46.7798L221.225 51.0782L221.565 47.1235L223.097 47.6403L225.653 56.4034L224.972 73.4155C224.972 73.4155 220.882 75.6506 221.223 77.5407C221.223 77.5407 222.927 79.6026 227.357 78.4012L227.016 73.7592L229.229 69.634L229.401 56.9189L229.742 52.6205C229.742 52.6205 232.126 49.7009 232.808 48.1517C232.808 48.1517 233.148 54.1655 231.786 57.4316L232.636 57.9485C232.636 57.9485 236.043 55.5429 240.473 56.5739L239.963 57.9485C239.963 57.9485 232.126 60.1808 234.511 67.3989C236.896 74.6169 244.733 74.2733 244.733 74.2733L244.22 75.4747C244.22 75.4747 239.109 75.3042 236.383 77.3661L247.969 77.5366L248.651 76.5056C248.651 76.5056 252.74 76.6788 253.593 73.9296C253.593 73.9296 252.74 71.8677 251.208 71.3509V70.4931C251.208 70.4931 255.639 66.8834 255.298 59.4935C255.298 59.4935 253.764 52.4487 250.015 46.6025C250.015 46.6025 246.438 31.1368 233.659 26.6693C233.662 26.6735 229.573 19.1118 223.439 16.0189Z" fill="white"/>
<path fill-rule="evenodd" clip-rule="evenodd" d="M219.523 74.2774C219.523 74.2774 224.465 72.5592 223.44 62.2469C223.44 62.2469 223.271 55.8866 221.396 55.8866C219.524 55.8866 220.034 64.1384 220.034 64.1384L219.523 74.2774Z" fill="white"/>
<path fill-rule="evenodd" clip-rule="evenodd" d="M211.176 12.2388C211.176 12.2388 218.669 9.31774 220.204 15.5034C220.204 15.5034 219.182 21.0032 214.411 21.0032C214.411 21.0032 209.64 22.0342 211.176 12.2388ZM205.688 17.7372C205.688 17.5295 205.729 17.324 205.808 17.1322C205.887 16.9405 206.002 16.7663 206.148 16.6196C206.294 16.4729 206.467 16.3566 206.657 16.2773C206.847 16.198 207.051 16.1573 207.257 16.1575C207.463 16.1577 207.666 16.1988 207.856 16.2784C208.047 16.358 208.219 16.4746 208.365 16.6216C208.51 16.7685 208.625 16.9429 208.704 17.1348C208.783 17.3267 208.823 17.5323 208.823 17.7399C208.822 18.1593 208.657 18.5613 208.363 18.8575C208.069 19.1538 207.67 19.32 207.254 19.3196C206.838 19.3193 206.44 19.1523 206.146 18.8556C205.852 18.5588 205.688 18.1565 205.688 17.7372Z" fill="black"/>
</svg>
