<svg width="260" height="99" viewBox="0 0 260 99" fill="none" xmlns="http://www.w3.org/2000/svg">
<path fill-rule="evenodd" clip-rule="evenodd" d="M3.7976 93.8906H0V94.667H1.35068V97.8423H2.44543V94.667H3.7976V93.8906ZM12.6133 95.8992C12.6133 95.5118 12.4846 95.2525 12.2908 95.0588C12.097 94.8651 11.8396 94.7996 11.4549 94.7996C11.2626 94.7996 11.0688 94.7996 10.9401 94.8636C10.7463 94.9277 10.554 95.0588 10.3602 95.187V93.6969H9.33052V97.8438H10.3602V95.704C10.4889 95.64 10.6176 95.64 10.6812 95.5759H11.2596C11.3884 95.64 11.452 95.64 11.452 95.704C11.5156 95.7711 11.5156 95.8992 11.5156 95.9663C11.5156 96.0944 11.5792 96.2256 11.5792 96.3537V97.8438H12.6088V95.8992H12.6133ZM21.6228 96.157C21.6228 95.7026 21.4941 95.3807 21.2367 95.1214C20.9792 94.8622 20.5931 94.7981 20.0783 94.7981C19.4984 94.7981 19.0486 94.9262 18.7261 95.1855C18.4051 95.5118 18.2113 95.8992 18.2113 96.3522C18.2113 96.8708 18.4036 97.2597 18.7261 97.519C19.1123 97.7782 19.562 97.9093 20.2706 97.9093C20.4644 97.9093 20.7218 97.9093 20.9156 97.8423C21.1079 97.7782 21.3654 97.7141 21.6243 97.6501V96.8708H21.4956C21.3668 97.0019 21.173 97.066 20.9792 97.13C20.7869 97.1971 20.5931 97.2612 20.3357 97.2612C20.0132 97.2612 19.7558 97.1971 19.5635 97.066C19.3711 96.9378 19.3061 96.7426 19.3061 96.4833H21.6228V96.157ZM19.3046 95.9663C19.3046 95.7711 19.3697 95.5759 19.4984 95.5118C19.6271 95.3807 19.7558 95.3807 20.0132 95.3807C20.207 95.3807 20.3357 95.3807 20.4644 95.5118C20.545 95.6498 20.5893 95.8062 20.5931 95.9663H19.3046ZM37.5159 95.8992C37.2722 95.744 37.0134 95.6142 36.7436 95.5118C36.6149 95.4448 36.4211 95.4448 36.2924 95.3807C36.1637 95.3807 35.9714 95.3807 35.8427 95.3166C35.5853 95.2525 35.4566 95.2525 35.3279 95.1855C35.2642 95.1214 35.1992 95.0573 35.1992 94.9262C35.1992 94.8621 35.2628 94.7981 35.3279 94.734C35.3279 94.6669 35.4566 94.667 35.5217 94.6029C35.5853 94.6029 35.6504 94.6029 35.7791 94.5388H36.0365C36.2939 94.5388 36.5513 94.6029 36.8087 94.667C37.0661 94.734 37.2585 94.8621 37.4523 94.9903H37.581V94.0858C37.3471 94.0124 37.1108 93.9473 36.8723 93.8906C36.5513 93.8266 36.2924 93.8266 36.0365 93.8266C35.4566 93.8266 35.0068 93.9547 34.6207 94.1499C34.2982 94.4092 34.1059 94.7355 34.1059 95.0574C34.1007 95.3089 34.1674 95.5567 34.2982 95.7711C34.492 95.9663 34.7494 96.0944 35.1355 96.1585C35.275 96.2327 35.428 96.2773 35.5853 96.2896C35.7791 96.3537 35.9714 96.3537 36.1001 96.4178C36.2924 96.4178 36.3575 96.4848 36.4862 96.5489C36.5498 96.613 36.6149 96.68 36.6149 96.7441C36.6149 96.8723 36.5513 96.9393 36.4862 97.0034C36.4211 97.0034 36.3575 97.0675 36.2924 97.0675C36.2288 97.1315 36.1637 97.1315 36.035 97.1315C35.9063 97.1315 35.8427 97.1986 35.7776 97.1986C35.5202 97.1986 35.2628 97.1315 34.9417 97.0034C34.6843 96.9393 34.4269 96.8082 34.1695 96.68H34.0423V97.5845C34.2982 97.6516 34.5571 97.7797 34.8145 97.7797C35.0719 97.8438 35.393 97.9108 35.714 97.9108C36.359 97.9108 36.8087 97.7797 37.1948 97.5204C37.5159 97.2612 37.7097 97.0019 37.7097 96.613C37.7239 96.3602 37.6558 96.1096 37.5159 95.8992ZM46.2043 95.1855C45.8818 94.9262 45.4321 94.7981 44.8522 94.7981C44.3373 94.7981 43.8876 94.9262 43.5651 95.1855C43.2426 95.4448 43.1139 95.8352 43.1139 96.3522C43.1139 96.8067 43.2426 97.1956 43.5651 97.519C43.8861 97.7782 44.3373 97.9093 44.8522 97.9093C45.4321 97.9093 45.8818 97.7782 46.2043 97.519C46.5254 97.1956 46.6541 96.8052 46.6541 96.3522C46.6541 95.8352 46.5254 95.4448 46.2043 95.1855ZM45.1747 97.1971C45.046 97.2612 44.9809 97.2612 44.9173 97.2612C44.7886 97.2612 44.6599 97.2612 44.5948 97.1971C44.5311 97.1971 44.4661 97.13 44.4024 97.066C44.3388 97.0019 44.2737 96.8708 44.2101 96.7426V95.8977C44.2582 95.8004 44.3234 95.7126 44.4024 95.6385C44.4661 95.5103 44.5311 95.5103 44.5948 95.4433H45.1747C45.2383 95.5103 45.3034 95.5744 45.367 95.6385C45.4306 95.7026 45.4957 95.7696 45.4957 95.8977C45.5593 96.0289 45.5593 96.157 45.5593 96.3522C45.5593 96.5474 45.5593 96.6785 45.4957 96.8067C45.4957 96.8708 45.4306 97.0019 45.367 97.066C45.3034 97.13 45.2383 97.1971 45.1747 97.1971ZM55.5334 94.8621H54.5037V96.9378C54.375 97.0019 54.3114 97.066 54.1827 97.066C54.054 97.13 53.9889 97.13 53.9253 97.13C53.7966 97.13 53.6679 97.13 53.6028 97.066C53.5392 97.066 53.4741 97.0019 53.409 96.9378C53.409 96.8708 53.3454 96.8067 53.3454 96.6786V94.8621H52.3157V96.8067C52.3157 97.13 52.3793 97.4564 52.5731 97.6501C52.8185 97.8213 53.1105 97.9118 53.409 97.9093C53.6028 97.9093 53.7951 97.8423 53.9889 97.7782C54.1176 97.7141 54.3114 97.6501 54.5037 97.519V97.8423H55.5334V94.8621ZM62.485 93.6954H61.4539V97.8423H62.485V93.6954ZM78.958 94.3451C78.5719 94.0218 77.9935 93.8266 77.35 93.8266C76.6413 93.8266 76.128 94.0218 75.6768 94.3451C75.4861 94.5418 75.3366 94.775 75.237 95.031C75.1374 95.2869 75.0897 95.5604 75.0968 95.8352C75.0968 96.4848 75.2906 97.0019 75.6768 97.3252C76.128 97.7156 76.6413 97.9108 77.35 97.9108C77.9935 97.9108 78.5719 97.7156 78.958 97.3252C79.3442 97.0019 79.5365 96.4848 79.5365 95.8352C79.5365 95.2525 79.3442 94.734 78.958 94.3451ZM77.7346 97.066C77.6059 97.13 77.4772 97.13 77.3485 97.13C77.1562 97.13 77.026 97.13 76.8973 97.066C76.7686 97.066 76.7049 96.9378 76.5762 96.8708C76.5126 96.7426 76.3839 96.6115 76.3839 96.4833C76.3038 96.276 76.2602 96.0561 76.2552 95.8337C76.2552 95.6385 76.3188 95.4433 76.3839 95.2511C76.4203 95.1088 76.4858 94.9759 76.5762 94.8607C76.6893 94.7526 76.8199 94.6649 76.9624 94.6014C77.026 94.6014 77.2198 94.5373 77.3485 94.5373C77.4772 94.5373 77.6059 94.6014 77.7346 94.6014C77.8633 94.6655 77.992 94.7325 78.0571 94.8607C78.1858 94.9247 78.2494 95.1199 78.3145 95.2511C78.3781 95.4433 78.3781 95.6385 78.3781 95.8337C78.3781 96.0929 78.3781 96.2881 78.3145 96.4163C78.2691 96.5876 78.1804 96.7442 78.0571 96.8708C77.9935 96.9378 77.8648 97.066 77.7346 97.066ZM87.324 93.7595C87.2604 93.6954 87.1317 93.6954 87.0015 93.6954H86.6154C86.1642 93.6954 85.8431 93.7595 85.6508 93.9547C85.5419 94.065 85.4569 94.197 85.4014 94.3422C85.3459 94.4874 85.321 94.6426 85.3283 94.7981V94.8621H84.8786V95.5118H85.3283V97.8423H86.358V95.5118H87.1302V94.8621H86.2929C86.2929 94.6669 86.358 94.5388 86.4216 94.4717C86.4852 94.4077 86.6139 94.3436 86.8713 94.3436H87.0651C87.1287 94.4077 87.1938 94.4077 87.2574 94.4077H87.3211V93.7595H87.324ZM102.124 97.8423C102.187 97.8423 102.316 97.8423 102.51 97.7782C102.574 97.7782 102.702 97.7141 102.767 97.7141C102.896 97.6501 103.025 97.583 103.088 97.583V96.6115H102.961C102.961 96.6786 102.896 96.7426 102.767 96.7426C102.693 96.8223 102.606 96.8883 102.51 96.9378C102.421 97.018 102.307 97.0635 102.187 97.066C102.059 97.13 101.866 97.13 101.736 97.13C101.608 97.13 101.479 97.13 101.35 97.066C101.221 97.066 101.093 96.9378 100.964 96.8708C100.835 96.8067 100.707 96.6785 100.641 96.4833C100.576 96.2881 100.513 96.0929 100.513 95.8337C100.513 95.6385 100.576 95.4433 100.641 95.2511C100.705 95.1199 100.835 94.9888 100.899 94.8607C101.028 94.7325 101.156 94.6655 101.285 94.6655C101.477 94.6014 101.606 94.6014 101.735 94.6014H102.121L102.507 94.7966C102.571 94.8607 102.699 94.8607 102.764 94.9247L102.958 95.1199H103.085V94.1484C103.022 94.0843 102.958 94.0843 102.828 94.0203C102.709 94.0171 102.595 93.9705 102.507 93.8891C102.378 93.8891 102.25 93.8891 102.056 93.8251H101.605C101.284 93.8251 100.961 93.8891 100.704 93.9532C100.454 94.0553 100.216 94.1863 99.9965 94.3436C99.8111 94.5321 99.6585 94.7507 99.5453 94.9903C99.4165 95.2525 99.4166 95.5759 99.4166 95.8337C99.4166 96.2241 99.4165 96.4834 99.5453 96.7411C99.674 96.9989 99.8027 97.1956 99.9965 97.3908C100.189 97.583 100.446 97.7141 100.704 97.7782C100.961 97.8423 101.284 97.9093 101.605 97.9093C101.803 97.9093 101.995 97.9093 102.124 97.8423ZM111.648 95.1855C111.327 94.9262 110.876 94.7981 110.297 94.7981C109.783 94.7981 109.331 94.9262 109.01 95.1855C108.689 95.4448 108.561 95.8352 108.561 96.3522C108.561 96.8067 108.689 97.1956 109.01 97.519C109.331 97.7782 109.783 97.9093 110.297 97.9093C110.876 97.9093 111.327 97.7782 111.648 97.519C111.906 97.1956 112.099 96.8052 112.099 96.3522C112.105 96.1373 112.068 95.9234 111.99 95.7231C111.913 95.5227 111.797 95.34 111.648 95.1855ZM110.618 97.1971C110.49 97.2612 110.426 97.2612 110.297 97.2612C110.234 97.2612 110.105 97.2612 110.04 97.1971C109.976 97.1971 109.848 97.13 109.783 97.066C109.718 97.0019 109.719 96.8708 109.654 96.7426C109.654 96.6786 109.59 96.4833 109.59 96.3522C109.59 96.157 109.654 96.0289 109.654 95.8977C109.702 95.8004 109.767 95.7126 109.846 95.6385C109.91 95.5103 109.975 95.5103 110.039 95.4433H110.617L110.811 95.6385C110.874 95.7026 110.94 95.7696 110.94 95.8977C111.003 96.0289 111.003 96.157 111.003 96.3522C111.003 96.5474 111.003 96.6785 110.94 96.8067C110.923 96.9041 110.878 96.9944 110.811 97.066C110.747 97.13 110.684 97.1971 110.618 97.1971ZM121.236 95.5759H121.751C121.815 95.64 121.88 95.64 121.943 95.704C121.943 95.7711 122.007 95.8992 122.007 95.9663V97.8438H123.036V95.8992C123.036 95.5118 122.973 95.2525 122.779 95.0588C122.587 94.8636 122.329 94.7996 121.943 94.7996C121.751 94.7996 121.621 94.7996 121.428 94.9277C121.181 94.9929 120.958 95.1285 120.785 95.3181C120.757 95.2262 120.707 95.1425 120.64 95.0744C120.573 95.0064 120.49 94.956 120.399 94.9277C120.27 94.7996 120.078 94.7996 119.819 94.7996C119.627 94.7996 119.433 94.7996 119.304 94.8636C119.112 94.9277 118.983 95.0588 118.789 95.187V94.8636H117.76V97.8438H118.789V95.704C118.853 95.704 118.981 95.64 119.047 95.5759H119.627C119.69 95.64 119.755 95.64 119.819 95.704C119.819 95.7711 119.882 95.8992 119.882 95.9663V97.8438H120.912V95.704C121.044 95.64 121.107 95.64 121.236 95.5759ZM131.984 95.1855C131.858 95.0582 131.707 94.9582 131.541 94.8916C131.375 94.825 131.198 94.7932 131.019 94.7981C130.826 94.7981 130.633 94.7981 130.439 94.8621C130.247 94.9262 130.117 95.0574 129.925 95.1855V94.8621H128.893V98.8809H129.923V97.6501C130.05 97.7141 130.244 97.7782 130.373 97.8423C130.502 97.8423 130.63 97.9093 130.823 97.9093C131.016 97.9093 131.21 97.8423 131.401 97.7782C131.531 97.7141 131.725 97.583 131.852 97.4549C131.982 97.3237 132.11 97.1956 132.176 96.9363C132.24 96.7411 132.303 96.5459 132.303 96.2867C132.305 95.8352 132.178 95.4448 131.984 95.1855ZM131.018 97.0019C130.889 97.13 130.695 97.1971 130.373 97.1971H130.18C130.115 97.1971 130.052 97.1971 129.923 97.13V95.64C130.05 95.5759 130.115 95.5759 130.244 95.5118H130.565C130.759 95.5118 130.95 95.5759 131.08 95.704C131.167 95.8866 131.212 96.087 131.21 96.2896C131.224 96.5417 131.157 96.7917 131.018 97.0019ZM141.184 94.8621H140.156V96.9378C140.029 97.0019 139.962 97.066 139.835 97.066C139.705 97.13 139.641 97.13 139.514 97.13C139.384 97.13 139.32 97.13 139.254 97.066C139.126 97.066 139.126 97.0019 139.063 96.9378C138.996 96.8708 138.996 96.8067 138.996 96.6786V94.8621H137.904V96.8067C137.904 97.13 138.032 97.4564 138.225 97.6501C138.471 97.8215 138.764 97.912 139.063 97.9093C139.254 97.9093 139.447 97.8423 139.641 97.7782C139.771 97.7141 139.962 97.6501 140.156 97.519V97.8423H141.184V94.8621ZM149.164 97.13H149.037C149.037 97.13 148.97 97.1971 148.843 97.1971C148.779 97.1971 148.713 97.2612 148.649 97.2612C148.519 97.2612 148.455 97.1971 148.392 97.1971C148.262 97.13 148.262 97.066 148.198 97.0019V95.5118H149.163V94.8621H148.198V94.0218H147.103V94.8621H146.719V95.5118H147.103V96.8708C147.103 97.2612 147.233 97.5204 147.427 97.6501C147.621 97.7782 147.942 97.9093 148.328 97.9093C148.519 97.9093 148.649 97.8423 148.779 97.8423C148.907 97.8423 149.037 97.8423 149.164 97.7782V97.13ZM157.852 96.157C157.852 95.7026 157.722 95.3807 157.465 95.1214C157.207 94.8622 156.82 94.7981 156.307 94.7981C155.728 94.7981 155.278 94.9262 154.954 95.1855C154.633 95.5118 154.44 95.8992 154.44 96.3522C154.44 96.8708 154.633 97.2597 154.954 97.519C155.342 97.7782 155.792 97.9093 156.437 97.9093C156.694 97.9093 156.952 97.9093 157.145 97.8423C157.339 97.7782 157.597 97.7141 157.787 97.6501V96.8708H157.724C157.597 97.0019 157.403 97.066 157.209 97.13C157.003 97.2119 156.785 97.2563 156.564 97.2612C156.243 97.2612 155.986 97.1971 155.793 97.066C155.599 96.9378 155.536 96.7426 155.472 96.4833H157.852V96.157ZM155.472 95.9663C155.536 95.7711 155.599 95.5759 155.73 95.5118C155.857 95.3807 155.987 95.3807 156.181 95.3807C156.438 95.3807 156.565 95.3807 156.696 95.5118C156.776 95.65 156.82 95.8064 156.823 95.9663H155.472ZM165.897 94.8621H165.637C165.51 94.8621 165.316 94.8621 165.189 94.9262C164.995 94.9903 164.801 95.1214 164.544 95.3166V94.8621H163.516V97.8423H164.544V95.8337C164.671 95.7696 164.801 95.7696 164.931 95.7696C165.059 95.7026 165.189 95.7026 165.316 95.7026H165.573C165.637 95.7696 165.704 95.7696 165.767 95.7696H165.897V94.8621ZM181.725 93.8906H177.928V94.667H179.28V97.8423H180.376V94.667H181.725V93.8906ZM190.414 96.157C190.414 95.7026 190.284 95.3807 190.026 95.1214C189.769 94.8622 189.381 94.7981 188.868 94.7981C188.289 94.7981 187.84 94.9262 187.519 95.1855C187.195 95.5118 187.001 95.8992 187.001 96.3522C187.001 96.8708 187.195 97.2597 187.519 97.519C187.903 97.7782 188.353 97.9093 188.998 97.9093C189.256 97.9093 189.513 97.9093 189.707 97.8423C189.901 97.7782 190.158 97.7141 190.352 97.6501V96.8708H190.285C190.158 97.0019 189.964 97.066 189.77 97.13C189.565 97.2119 189.346 97.2563 189.125 97.2612C188.804 97.2612 188.547 97.1971 188.355 97.066C188.161 96.9378 188.097 96.7426 188.097 96.4833H190.414V96.157ZM188.032 95.9663C188.096 95.7711 188.159 95.5759 188.289 95.5118C188.417 95.3807 188.547 95.3807 188.741 95.3807C188.998 95.3807 189.125 95.3807 189.256 95.5118C189.336 95.65 189.379 95.8064 189.383 95.9663H188.032ZM198.391 97.8423C198.521 97.7782 198.715 97.7141 198.842 97.6501V96.8708H198.715L198.585 97.0019C198.521 97.0019 198.457 97.066 198.391 97.066C198.327 97.13 198.264 97.13 198.133 97.1971H197.812C197.491 97.1971 197.298 97.13 197.167 97.0019C196.974 96.8708 196.91 96.6115 196.91 96.3522C196.91 96.0929 196.974 95.8337 197.167 95.7026C197.298 95.5103 197.491 95.4433 197.812 95.4433C197.924 95.433 198.035 95.4563 198.133 95.5103C198.2 95.5103 198.264 95.5744 198.391 95.5744C198.457 95.6385 198.521 95.6385 198.585 95.7026C198.648 95.7696 198.715 95.7696 198.715 95.8337H198.842V94.9903C198.682 94.9099 198.506 94.8661 198.327 94.8621C198.133 94.7981 197.94 94.7981 197.749 94.7981C197.491 94.7981 197.231 94.7981 197.04 94.8621C196.811 94.9078 196.592 94.9957 196.395 95.1214C196.268 95.2525 196.074 95.4448 196.007 95.64C195.88 95.8352 195.88 96.0944 195.88 96.3537C195.88 96.613 195.88 96.8723 196.007 97.0675C196.074 97.2627 196.201 97.3938 196.395 97.5219C196.589 97.6531 196.783 97.7171 196.973 97.7812C197.231 97.8453 197.491 97.9123 197.747 97.9123C198.003 97.9123 198.201 97.9093 198.391 97.8423ZM207.724 95.8992C207.724 95.5118 207.594 95.2525 207.4 95.0588C207.206 94.8651 206.949 94.7996 206.629 94.7996C206.436 94.7996 206.242 94.7996 206.051 94.8636C205.857 94.9277 205.727 95.0588 205.533 95.187V93.6969H204.505V97.8438H205.533V95.704C205.6 95.64 205.727 95.64 205.857 95.5759H206.436C206.499 95.64 206.566 95.64 206.566 95.704C206.629 95.7711 206.629 95.8992 206.693 95.9663V97.8438H207.724V95.8992ZM216.861 95.8992C216.861 95.5118 216.734 95.2525 216.54 95.0588C216.346 94.8651 216.089 94.7996 215.703 94.7996C215.509 94.7996 215.318 94.7996 215.188 94.8636C214.994 94.9277 214.8 95.0588 214.609 95.187V94.8636H213.578V97.8438H214.609V95.704C214.737 95.64 214.867 95.64 214.93 95.5759H215.575C215.639 95.64 215.703 95.64 215.703 95.704C215.769 95.7711 215.769 95.8992 215.769 95.9663C215.769 96.0944 215.833 96.2256 215.833 96.3537V97.8438H216.861V95.8992ZM225.549 95.1855C225.225 94.9262 224.841 94.7981 224.261 94.7981C223.682 94.7981 223.233 94.9262 222.975 95.1855C222.651 95.4448 222.46 95.8352 222.46 96.3522C222.46 96.8067 222.651 97.1956 222.975 97.519C223.233 97.7782 223.684 97.9093 224.261 97.9093C224.842 97.9093 225.225 97.7782 225.549 97.519C225.87 97.1956 226.001 96.8052 226.001 96.3522C226.001 95.8352 225.87 95.4448 225.549 95.1855ZM224.518 97.1971C224.455 97.2612 224.327 97.2612 224.261 97.2612C224.134 97.2612 224.067 97.2612 223.94 97.1971C223.876 97.1971 223.81 97.13 223.746 97.066C223.682 97.0019 223.619 96.8708 223.619 96.7426C223.552 96.6786 223.552 96.4833 223.552 96.3522C223.552 96.157 223.552 96.0289 223.619 95.8977C223.619 95.7696 223.682 95.7026 223.746 95.6385C223.81 95.5103 223.876 95.5103 224.003 95.4433H224.518C224.615 95.4924 224.702 95.5585 224.776 95.6385C224.842 95.7026 224.842 95.7696 224.906 95.8977C224.906 96.0289 224.969 96.157 224.969 96.3522C224.969 96.5474 224.906 96.6785 224.906 96.8067C224.842 96.8708 224.842 97.0019 224.776 97.066C224.705 97.1343 224.615 97.18 224.518 97.1971ZM232.756 93.6954H231.664V97.8423H232.756V93.6954ZM241.444 95.1855C241.184 94.9262 240.735 94.7981 240.155 94.7981C239.577 94.7981 239.191 94.9262 238.87 95.1855C238.546 95.4448 238.419 95.8352 238.419 96.3522C238.419 96.8067 238.546 97.1956 238.87 97.519C239.191 97.7782 239.578 97.9093 240.155 97.9093C240.737 97.9093 241.184 97.7782 241.444 97.519C241.765 97.1956 241.959 96.8052 241.959 96.3522C241.959 95.8352 241.765 95.4448 241.444 95.1855ZM240.413 97.1971C240.349 97.2612 240.286 97.2612 240.155 97.2612C240.092 97.2612 239.962 97.2612 239.898 97.1971C239.771 97.1971 239.704 97.13 239.641 97.066C239.577 97.0019 239.577 96.8708 239.513 96.7426C239.447 96.6786 239.447 96.4833 239.447 96.3522C239.447 96.157 239.513 96.0289 239.513 95.8977C239.577 95.7696 239.577 95.7026 239.641 95.6385C239.771 95.5103 239.834 95.5103 239.898 95.4433H240.413C240.509 95.4924 240.597 95.5585 240.67 95.6385C240.737 95.7026 240.8 95.7696 240.8 95.8977C240.864 96.0289 240.864 96.157 240.864 96.3522C240.864 96.5474 240.864 96.6785 240.8 96.8067C240.785 96.9046 240.739 96.9952 240.67 97.066C240.607 97.13 240.543 97.1971 240.413 97.1971ZM250.775 94.8621H249.746L249.68 94.9903C249.563 94.9192 249.431 94.8755 249.295 94.8621C249.165 94.7981 249.038 94.7981 248.844 94.7981C248.65 94.7981 248.456 94.7981 248.262 94.8621C248.072 94.9262 247.941 95.0574 247.811 95.1855C247.684 95.3166 247.554 95.4448 247.49 95.64C247.427 95.8352 247.363 96.0304 247.363 96.2896C247.363 96.8082 247.49 97.13 247.748 97.3923C248.005 97.6516 248.329 97.7797 248.779 97.7797C248.97 97.7797 249.163 97.7797 249.294 97.7156C249.436 97.652 249.566 97.5643 249.678 97.4564V97.8438C249.615 97.9108 249.615 97.9749 249.551 98.039C249.487 98.106 249.357 98.1701 249.227 98.2342H248.779C248.649 98.2342 248.455 98.2342 248.328 98.1701C248.147 98.1662 247.97 98.1214 247.81 98.039H247.683V98.8183C247.876 98.8183 248.07 98.8824 248.261 98.8824C248.518 98.9464 248.712 98.9464 248.97 98.9464C249.227 98.9464 249.487 98.8824 249.678 98.8824C249.936 98.8183 250.066 98.7512 250.26 98.6231C250.387 98.492 250.517 98.3638 250.644 98.1686C250.711 97.9734 250.775 97.7782 250.775 97.4549V94.8621ZM249.422 97.0019C249.359 97.066 249.229 97.066 249.101 97.066C248.911 97.0721 248.726 97.0019 248.586 96.8708C248.52 96.7426 248.456 96.5474 248.456 96.2881C248.456 96.0289 248.52 95.8337 248.65 95.7026C248.725 95.623 248.814 95.5591 248.914 95.5146C249.013 95.4701 249.12 95.4459 249.229 95.4433C249.295 95.4433 249.422 95.5103 249.489 95.5103C249.553 95.5103 249.616 95.5103 249.68 95.5744V96.8693C249.615 96.9378 249.551 97.0019 249.422 97.0019ZM257.339 94.8621H256.244L257.466 97.7782L257.015 98.8824H258.111L259.91 94.8621H258.818L258.111 96.7426L257.339 94.8621ZM126.77 46.2516C126.77 46.2516 124.325 35.1684 113.193 35.2325C102.06 35.2325 100.001 46.2516 100.001 46.2516V77.2987C100.001 77.2987 100.965 88.0585 113.128 88.0585C125.355 88.0585 126.577 77.2987 126.577 77.2987L126.77 46.2516ZM116.731 48.6491C116.731 48.6491 116.41 46.1219 113.514 46.1219C110.617 46.1219 109.91 48.5195 109.91 48.5195V73.28C109.91 73.28 110.746 76.0649 113.062 76.0649C115.314 76.0649 116.73 75.3512 116.73 73.28L116.731 48.6491Z" fill="#6CAE7E"/>
<path fill-rule="evenodd" clip-rule="evenodd" d="M30.0524 0.427063H47.7488L26.8347 35.557H46.5254L55.3411 44.8908L29.2786 88.0581H10.8114L31.2743 54.1575H11.1975L2.38182 44.8908L30.0524 0.427063Z" fill="#3A4E8D"/>
<path fill-rule="evenodd" clip-rule="evenodd" d="M92.922 49.0381C92.922 49.0381 92.2134 40.3525 87.7101 37.566C83.2705 34.7781 75.2907 34.0659 70.4649 38.6031C65.574 43.1404 64.5444 45.5379 64.2233 49.7503C63.8372 53.8987 65.253 55.648 65.253 55.648L82.8844 74.4453H67.3108V88.0571H87.3876L96.0761 73.0834L78.0571 49.0381H92.922ZM143.116 35.4278V74.8342H158.367L151.095 88.0586H130.309V35.103L143.116 35.4278ZM153.863 35.8152H186.36L174.969 54.6139V88.0586H163.192V49.0381H153.475L153.863 35.8152ZM190.541 35.4278V88.0586H207.467L216.861 74.4468H201.931V67.512L210.232 54.9358H201.931V48.001L215.445 35.4278H190.541ZM221.879 35.4278V88.0586H229.473V67.8353L238.482 88.0586H248.199L238.87 66.086L247.492 35.4278H238.87L235.009 49.3629L228.832 35.4278H221.879Z" fill="#6CAE7E"/>
<path d="M260 29.3345C260 30.914 259.373 32.3221 258.362 33.3398C257.839 33.8667 257.218 34.2843 256.534 34.5686C255.851 34.853 255.118 34.9985 254.378 34.9968C253.638 35.0023 252.904 34.86 252.219 34.5782C251.533 34.2963 250.91 33.8805 250.385 33.3548C249.864 32.826 249.451 32.1984 249.171 31.5081C248.891 30.8179 248.75 30.0786 248.755 29.3331C248.755 27.7759 249.376 26.3723 250.396 25.359C251.457 24.3081 252.889 23.7236 254.377 23.7334C255.865 23.7315 257.294 24.321 258.353 25.3739C258.875 25.8909 259.29 26.5074 259.572 27.1874C259.855 27.8674 260 28.5973 260 29.3345ZM257.873 32.8481C258.33 32.3869 258.693 31.839 258.94 31.236C259.186 30.6329 259.312 29.9867 259.309 29.3345C259.309 27.9771 258.754 26.7552 257.867 25.8716C256.938 24.9468 255.683 24.4294 254.377 24.4322C252.995 24.4322 251.761 24.9746 250.878 25.8567C250.421 26.3111 250.06 26.8528 249.814 27.4501C249.568 28.0473 249.444 28.6881 249.448 29.3345C249.448 30.7292 249.987 31.972 250.875 32.8645C251.336 33.3251 251.882 33.6892 252.483 33.9357C253.084 34.1823 253.728 34.3064 254.377 34.3009C255.738 34.3009 256.978 33.7496 257.873 32.8481Z" fill="#6CAE7E"/>
<path fill-rule="evenodd" clip-rule="evenodd" d="M252.767 32.185V29.5282H254.119L254.507 29.7234C254.634 29.7875 254.764 29.9171 254.892 30.1123C255.022 30.306 255.216 30.5668 255.473 30.9542L256.244 32.185H257.272L256.18 30.5653C256.002 30.2578 255.785 29.9749 255.535 29.7234C255.403 29.6088 255.249 29.5208 255.084 29.4642C255.665 29.4001 256.049 29.2049 256.373 28.88C256.63 28.6208 256.757 28.2319 256.757 27.843C256.757 27.5196 256.694 27.1948 256.5 26.9355C256.373 26.6762 256.112 26.481 255.855 26.3529C255.597 26.2233 255.146 26.1577 254.633 26.1577H251.995V32.185H252.767ZM252.767 26.8714H254.698C255.085 26.8714 255.406 26.9355 255.665 27.1307C255.856 27.3244 255.923 27.5196 255.923 27.8444C255.923 28.0382 255.923 28.1693 255.793 28.363C255.665 28.4926 255.535 28.6223 255.341 28.6863C255.148 28.816 254.827 28.816 254.507 28.816H252.767V26.8714Z" fill="#6CAE7E"/>
</svg>
