<svg width="210" height="99" viewBox="0 0 210 99" fill="none" xmlns="http://www.w3.org/2000/svg">
<path fill-rule="evenodd" clip-rule="evenodd" d="M0 63.5233H63.3262V48.4683H27.1109V39.9551H61.0509V24.8989H27.1109V16.0271H62.6022V0.970886H0V63.5233ZM68.6702 73.9886H94.7463V57.5193H94.9528C98.9881 62.5388 104.266 64.6003 111.198 64.6003C127.444 64.6003 134.17 53.5768 134.17 40.9407C134.17 27.4081 127.752 15.7576 110.473 15.7576C101.99 15.7576 96.7117 18.3558 93.0906 25.3466H92.8841V16.8334H68.6702V73.9886ZM94.0223 40.4028C94.0223 36.0126 94.8495 30.8138 100.437 30.8138C106.128 30.8138 107.06 36.0126 107.06 40.9407C107.06 45.8689 106.128 50.6188 100.645 50.6188C94.8495 50.6188 94.0223 45.87 94.0223 40.4028ZM138.397 63.5233H180.303C195.307 63.5233 210 61.9107 210 46.1384C210 39.8649 203.792 33.0534 193.755 31.8885V31.7103C203.376 29.5598 208.653 24.9891 208.653 16.3857C208.653 4.46682 196.338 0.972013 183.821 0.972013H138.396L138.397 63.5233ZM164.469 37.8045H171.921C177.095 37.8045 182.269 38.7901 182.269 44.1683C182.269 49.0073 176.784 50.6199 171.714 50.6199H164.471V12.8007H172.025C176.993 12.8007 181.543 14.234 181.543 18.8949C181.543 23.6449 176.267 24.9 171.404 24.9H164.469V12.8007V37.8045Z" fill="#C23C40"/>
<path fill-rule="evenodd" clip-rule="evenodd" d="M90.9613 78.2198H88.5401V85.4643L88.4852 85.656C87.9071 84.8282 86.8059 83.1953 84.1917 83.1953C80.3663 83.1953 78.191 86.3473 78.191 90.4127C78.191 93.8681 79.6222 98.485 84.5217 98.485C85.9248 98.485 87.5771 98.0418 88.6221 96.0795H88.6771V98.0711H90.9613V78.2198ZM80.6952 90.7984C80.6952 88.9456 80.8883 85.3797 84.6306 85.3797C88.126 85.3797 88.511 89.1677 88.511 91.5179C88.511 95.3612 86.1179 96.3829 84.5767 96.3829C81.9344 96.384 80.6952 93.9786 80.6952 90.7984ZM104.208 93.5365C104.124 94.6157 102.776 96.384 100.492 96.384C97.7118 96.384 96.3087 94.6417 96.3087 91.6284H106.821C106.821 86.5119 104.786 83.1942 100.629 83.1942C95.8687 83.1942 93.7226 86.7623 93.7226 91.2405C93.7226 95.4164 96.1168 98.485 100.162 98.485C102.474 98.485 103.411 97.9324 104.069 97.4892C105.885 96.2735 106.547 94.2267 106.63 93.5354H104.208V93.5365ZM96.3087 89.6921C96.3087 87.4524 98.0688 85.3797 100.299 85.3797C103.244 85.3797 104.181 87.4524 104.318 89.6921H96.3087ZM112.555 89.6662C112.555 87.5652 113.984 85.7936 116.243 85.7936H117.151V83.2787C116.946 83.2164 116.732 83.1882 116.518 83.1953C114.703 83.1953 113.435 84.3298 112.472 86.0169H112.417V83.6092H110.133V98.0711H112.555V89.6662ZM121.946 83.6092H119.526V98.0711H121.946V83.6092ZM121.946 80.9838V78.2198H119.526V80.9838H121.946ZM130.703 95.3882H130.649L126.905 83.6092H124.099L129.355 98.0711H131.943L137.419 83.6092H134.777L130.703 95.3882ZM140.986 88.005C141.152 86.8999 141.536 85.2117 144.29 85.2117C146.572 85.2117 147.675 86.0417 147.675 87.5641C147.675 88.9997 146.987 89.223 146.408 89.2782L142.417 89.7756C138.399 90.2729 138.042 93.0922 138.042 94.309C138.042 96.8001 139.914 98.485 142.555 98.485C145.362 98.485 146.822 97.1588 147.758 96.1348C147.839 97.2399 148.168 98.3462 150.316 98.3462C150.866 98.3462 151.224 98.1816 151.636 98.0711V96.3006C151.362 96.3581 151.059 96.4133 150.838 96.4133C150.343 96.4133 150.04 96.1641 150.04 95.554V87.2325C150.04 83.528 145.857 83.1953 144.702 83.1953C141.152 83.1953 138.868 84.5497 138.756 88.0062L140.986 88.005ZM147.62 93.0674C147.62 95.0014 145.417 96.4686 143.16 96.4686C141.343 96.4686 140.545 95.5281 140.545 93.9515C140.545 92.128 142.445 91.7682 143.627 91.6013C146.629 91.2157 147.234 90.9935 147.62 90.689V93.0674ZM159.517 85.6289V83.6092H157.204V79.5742H154.784V83.6092H152.828V85.6289H154.784V95.1683C154.784 96.9106 155.306 98.265 157.7 98.265C157.948 98.265 158.636 98.1523 159.517 98.0711V96.1641H158.664C158.169 96.1641 157.204 96.1641 157.204 95.0296V85.6289H159.517ZM164.448 83.6092H162.028V98.0711H164.448V83.6092ZM164.448 80.9838V78.2198H162.028V80.9838H164.448ZM173.207 95.3882H173.152L169.407 83.6092H166.601L171.857 98.0711H174.445L179.921 83.6092H177.279L173.207 95.3882ZM191.139 93.5365C191.056 94.6157 189.708 96.384 187.423 96.384C184.645 96.384 183.239 94.6417 183.239 91.6284H193.753C193.753 86.5119 191.717 83.1942 187.56 83.1942C182.798 83.1942 180.652 86.7623 180.652 91.2405C180.652 95.4164 183.046 98.485 187.093 98.485C189.404 98.485 190.34 97.9324 190.999 97.4892C192.816 96.2735 193.476 94.2267 193.559 93.5354H191.139V93.5365ZM183.24 89.6921C183.24 87.4524 185.003 85.3797 187.231 85.3797C190.175 85.3797 191.113 87.4524 191.249 89.6921H183.24ZM207.249 87.7299C207.249 87.0093 206.892 83.1953 201.744 83.1953C198.91 83.1953 196.296 84.6332 196.296 87.8145C196.296 89.8038 197.616 90.8277 199.626 91.3251L202.432 92.0163C204.498 92.5407 205.296 92.9287 205.296 94.0891C205.296 95.6927 203.727 96.384 201.992 96.384C198.581 96.384 198.25 94.5605 198.167 93.426H195.828C195.911 95.1683 196.323 98.485 202.021 98.485C205.269 98.485 207.717 96.6874 207.717 93.7034C207.717 91.7389 206.671 90.6326 203.672 89.8861L201.249 89.2782C199.379 88.8091 198.634 88.5317 198.634 87.3419C198.634 85.5443 200.754 85.2962 201.497 85.2962C204.554 85.2962 204.883 86.8164 204.911 87.7299H207.249Z" fill="black"/>
</svg>
