<svg width="236" height="113" viewBox="0 0 236 113" fill="none" xmlns="http://www.w3.org/2000/svg">
<path fill-rule="evenodd" clip-rule="evenodd" d="M198.902 23.4275C190.2 31.0495 182.494 37.9514 175.36 44.7099L172.507 54.3442C181.353 44.8534 189.769 35.0756 198.902 23.4275ZM126.562 98.0593C137.835 87.9932 147.395 79.3658 155.955 71.1687L159.095 60.8158C148.535 71.7439 138.262 83.3919 126.562 98.0593Z" fill="#3169B1"/>
<path fill-rule="evenodd" clip-rule="evenodd" d="M133.124 74.1893C120.855 87.1231 109.284 100.198 99.3722 112.44H99.5186C111.773 101.769 124.301 89.988 136.549 77.9286H131.983C131.983 77.9286 132.41 76.49 133.124 74.1893Z" fill="#6BAC5E"/>
<path fill-rule="evenodd" clip-rule="evenodd" d="M106.728 92.1642C112.007 87.5629 117.287 82.8168 122.564 77.9272H118.571C114.433 82.672 110.439 87.4181 106.728 92.1642ZM125.418 70.0184L123.422 77.0652C127.561 73.1825 131.697 69.2998 135.695 65.2737C136.691 61.9661 137.835 58.3703 138.689 55.4945C134.123 60.3854 129.701 65.1289 125.418 70.0184ZM195.049 0.85141C180.781 13.0746 165.515 27.5985 150.675 42.841H157.953C171.935 28.3171 184.634 13.7932 195.049 0.85141Z" fill="#D15230"/>
<path fill-rule="evenodd" clip-rule="evenodd" d="M161.376 45.7168C161.376 45.8602 161.376 46.005 161.235 46.1485L160.808 47.5857C160.522 49.0229 158.951 50.0298 157.525 50.0298H156.812L149.25 57.6517C148.392 60.671 147.252 64.4102 146.111 68.2929C146.111 68.1495 146.252 68.1495 146.252 68.1495C151.532 62.6847 156.67 57.3635 161.521 52.0436C161.521 52.0436 161.662 52.0436 161.662 51.9001L164.375 42.841H169.938C176.93 35.0756 183.35 27.4537 188.916 20.4083C179.543 28.6282 170.36 37.0667 161.376 45.7168Z" fill="#6BAC5E"/>
<path fill-rule="evenodd" clip-rule="evenodd" d="M17.8355 16.8125H22.6871C25.2546 16.8125 25.8253 18.2497 25.5407 19.9752C25.2546 22.4193 23.4002 26.1585 18.6909 26.1585H14.5536L17.8355 16.8125ZM17.6932 24.5779H18.4075C21.4034 24.5779 22.6885 21.7021 22.9732 20.2635C23.1155 18.538 21.9741 18.3945 21.1187 18.3945H19.6926L17.6932 24.5779ZM29.6779 16.8125H32.1044L28.9649 26.1599H26.5397L29.6779 16.8125ZM41.5204 21.8455L40.0943 26.0165C38.8105 26.3034 37.6691 26.4482 36.2417 26.4482C33.6728 26.4482 32.6738 24.8661 32.9598 22.8537C33.2445 20.1214 36.098 16.5269 40.2366 16.5269C41.2357 16.5269 42.2334 16.6704 43.0901 16.9587L42.5194 18.6828C41.6627 18.3959 40.8073 18.1076 39.8082 18.1076C37.6678 18.1076 35.9557 20.5531 35.5273 22.5655C35.3863 23.8606 36.098 24.8661 37.5254 24.8661H38.0961L39.2375 21.8469L41.5204 21.8455ZM46.2297 16.8125H48.7972L45.5166 26.1599H43.0901L46.2297 16.8125ZM53.5065 18.3945H50.0823L50.653 16.8125H59.9279L59.3572 18.3945H55.933L53.2218 26.1599H50.7953L53.5065 18.3945ZM63.0661 16.8125H65.6349L66.0633 26.1585H63.6381L63.4958 23.8579H60.0716L58.5018 26.1585H56.7897L63.0661 16.8125ZM63.4944 22.2772L63.3521 19.1131L61.0693 22.2772H63.4944ZM71.1996 16.8125H73.6261L71.0559 24.5779H75.1945L74.7662 26.1599H68.0601L71.1996 16.8125ZM86.0393 16.8125H89.1788L88.8928 22.7089L93.1724 16.8125H95.8836L92.7454 26.1599H90.4626L92.7454 19.6883H92.6017L88.4644 25.5847H86.7523L86.8946 19.4014L84.6118 26.1599H82.756L86.0393 16.8125ZM99.5938 16.8125H102.163L98.8808 26.1585H96.4556L99.5938 16.8125ZM105.872 16.8125H108.012L110.009 22.7089L112.007 16.8125H113.861L110.723 26.1599H108.583L106.585 20.2648L104.588 26.1599H102.732L105.872 16.8125ZM117.715 16.8125H120.142L117.001 26.1599H114.433L117.715 16.8125ZM123.849 16.8125H126.276L123.708 24.5779H127.844L127.417 26.1599H120.569L123.849 16.8125ZM134.55 16.8125H137.121L137.548 26.1585H135.121L134.98 23.8579H131.555L129.983 26.1585H128.274L134.55 16.8125ZM134.98 22.2772L134.836 19.1131L132.555 22.2772H134.98ZM142.684 16.8125H145.396C146.682 16.8125 148.677 16.8125 148.391 18.538C148.25 19.9752 146.823 20.9834 145.537 21.2703C146.537 21.7007 147.395 22.2772 147.25 23.571C146.964 25.5834 144.823 26.1585 143.827 26.1585H139.402L142.684 16.8125ZM142.256 24.5779H142.969C143.827 24.5779 144.681 24.291 144.823 23.4275C144.967 22.2772 143.968 22.1338 143.111 22.1338L142.256 24.5779ZM143.541 20.5517H144.254C144.681 20.5517 145.68 20.12 145.822 18.9697C145.966 18.3945 145.395 18.3945 144.823 18.3945H144.396L143.541 20.5517ZM165.229 44.1347L155.527 76.7769H164.657L174.216 43.9913L165.229 44.1347ZM200.473 52.6187C201.042 50.0298 199.615 48.4478 195.907 48.4478C191.626 48.4478 187.63 49.885 185.775 55.638C185.489 56.5001 185.634 56.7883 186.347 56.7883H195.335C197.76 56.7883 199.901 55.4945 200.473 52.6187ZM207.179 52.6187C205.608 58.6586 201.472 61.2462 195.906 61.2462H183.92C181.921 66.5674 181.352 72.1742 188.201 72.1742H200.328L198.902 76.7755H186.774C178.783 76.7755 171.222 73.8997 175.074 60.8144C177.642 52.3291 182.636 43.9899 196.903 43.9899C202.754 43.9913 209.033 45.1416 207.179 52.6187ZM31.8184 57.0766H17.2648C15.5527 57.0766 15.268 57.6517 14.8383 58.8007C14.5536 59.8076 9.55962 76.7755 9.55962 76.7755H0L12.6992 33.3488H40.2366L38.5245 39.2438H20.5467L17.1224 51.1788H33.5305L31.8184 57.0766ZM79.0471 43.2727C92.317 43.2727 93.8868 50.3194 90.8909 60.3854C87.8951 70.5949 81.616 77.6403 68.9168 77.6403C56.36 77.6403 54.0772 70.5949 57.0744 60.3854C60.0702 50.3181 65.9196 43.2727 79.0471 43.2727ZM70.3429 72.7508C77.049 72.7508 79.3318 68.7233 81.9007 60.3841C83.8988 53.1939 84.3258 48.0161 77.6197 48.0161C71.0559 48.0161 68.3448 53.1925 66.2056 60.3841C63.7791 68.7246 63.7791 72.7508 70.3429 72.7508ZM29.5356 76.7769H38.6668L44.3739 57.2214C46.2283 51.1815 51.507 49.7443 55.6456 49.7443C57.2154 49.7443 57.6437 49.8877 57.6437 49.8877C58.6428 50.0312 59.6419 49.3125 59.9265 48.4505C59.9265 48.4505 60.3536 46.725 60.7819 45.143C61.3526 43.1292 60.2112 43.274 59.2122 43.274C54.0758 43.274 48.2251 48.0188 48.2251 48.0188C47.5121 48.7374 46.0846 49.1691 45.2293 49.1691H37.6678L29.5356 76.7769ZM204.752 76.7769H213.882L219.592 57.2214C221.446 51.1815 226.725 49.7443 230.862 49.7443C232.433 49.7443 232.86 49.8877 232.86 49.8877C233.86 50.0312 234.859 49.3125 235.145 48.4505C235.145 48.4505 235.572 46.725 236 45.143V43.6421C235.709 43.2199 235.043 43.2727 234.432 43.2727C229.294 43.2727 223.445 48.0174 223.445 48.0174C222.731 48.736 221.304 49.1677 220.447 49.1677H212.886L204.752 76.7769ZM120.855 43.2727C127.844 43.2727 131.556 45.4299 129.556 52.0436L122.281 76.7769H113.148L119.856 54.3442C120.997 50.0298 119.712 48.4491 115.289 48.4491C111.579 48.4491 107.299 50.6063 106.158 54.7759L99.5938 76.7769H90.4626L99.0231 47.874H106.158C107.155 47.874 108.583 47.4436 109.438 47.0119C109.438 47.0119 115.86 43.2727 120.855 43.2727ZM142.398 76.7769C142.398 76.7769 149.817 51.6119 150.103 50.6063C150.533 49.5995 151.529 48.8808 152.53 48.8808H157.524C158.523 48.8808 159.522 48.1609 159.808 47.1554L160.235 45.7181C160.521 44.8547 159.949 44.1361 158.95 44.1361H133.981L132.555 48.8822H141.829L133.554 76.7782L142.398 76.7769Z" fill="#2B2C2D"/>
</svg>
