<svg width="68" height="68" viewBox="0 0 68 68" fill="none" xmlns="http://www.w3.org/2000/svg">
<path d="M67.9999 5.57203C67.9999 2.49954 65.4915 0 62.4084 0H13.6859C10.603 0 8.09472 2.49954 8.09472 5.57203H8.06993V7.79717L6.44891 3.58316C5.79093 1.87239 3.85898 1.01416 2.14239 1.66999C1.31089 1.98754 0.653178 2.60897 0.29067 3.41966C-0.0719716 4.23022 -0.0960944 5.13308 0.222833 5.96157L8.07007 26.3612V68L58.8115 67.7487V66.7473C58.8115 64.4651 58.812 61.4942 58.8131 58.0928H68L67.9999 5.57203ZM2.10867 5.24106C2.04641 5.08059 2.01672 4.9094 2.02132 4.73741C2.02592 4.56543 2.06471 4.39606 2.13546 4.23912C2.20537 4.08179 2.30587 3.93984 2.43116 3.82146C2.55645 3.70308 2.70405 3.61062 2.86541 3.54942C3.02648 3.48746 3.19828 3.45792 3.37087 3.46251C3.54346 3.46709 3.71344 3.5057 3.87097 3.57612C4.02887 3.64574 4.17134 3.74588 4.29013 3.87074C4.40893 3.9956 4.5017 4.1427 4.56307 4.30353L18.3077 40.0339L15.8533 40.9714L2.10867 5.24106ZM18.3276 46.2713C17.9016 46.0008 17.4461 45.7524 16.9632 45.552C16.9147 44.7054 16.7752 43.8664 16.5473 43.0494L19.17 42.0475C19.6689 42.9892 20.2713 43.7128 20.7137 44.1746C20.5045 44.6244 20.3422 45.0887 20.2133 45.5505L19.7019 44.2212L17.8159 44.9416L18.3276 46.2713ZM57.7383 2.51295C57.663 2.62655 57.592 2.74293 57.5255 2.86185C57.5086 2.89213 57.4914 2.92254 57.475 2.95309C57.4501 2.99958 57.4262 3.04646 57.4028 3.09374C57.3882 3.12283 57.3732 3.15178 57.3592 3.1814C57.3331 3.23585 57.3084 3.2911 57.284 3.34675C57.274 3.36946 57.2634 3.39177 57.2538 3.41475C57.2204 3.49336 57.1889 3.57276 57.1594 3.65288C57.1531 3.66988 57.1477 3.68741 57.1417 3.70441C57.1185 3.76826 57.0967 3.83255 57.0761 3.89726C57.0668 3.92661 57.0585 3.95649 57.0497 3.98611C57.0339 4.0395 57.0183 4.09289 57.0037 4.14681C56.9948 4.18015 56.9869 4.21375 56.9785 4.24735C56.9573 4.33351 56.9381 4.42017 56.9211 4.50727C56.911 4.5588 56.9019 4.6106 56.8933 4.66279C56.8874 4.69812 56.8817 4.73331 56.8765 4.76891C56.8686 4.8227 56.8619 4.87688 56.8557 4.93121C56.8518 4.96534 56.8474 4.99921 56.8442 5.03347C56.8386 5.09338 56.834 5.15337 56.8305 5.21343C56.8286 5.24265 56.8261 5.27187 56.8246 5.30122C56.8202 5.39116 56.8179 5.48119 56.8177 5.57123C56.8174 6.02 56.7929 49.6765 56.792 65.7458L10.0897 65.9774V31.6118L14.0303 41.8555L13.9831 41.8735L13.4956 42.0598L14.2184 43.9392L14.6511 43.774C15.0001 45.1239 14.9572 46.2013 14.9568 46.2123L14.9168 47.0003L15.675 47.227C17.7985 47.8621 19.5416 49.9353 19.9201 50.4116L20.3267 51.4687L20.6216 51.356L21.4069 52.4193H15.6073V54.4321H27.8256V52.4193H22.071L21.9177 50.8608L22.2127 50.7482L21.8057 49.6899C21.7663 49.0857 21.6668 46.3931 22.8272 44.4945L23.2824 43.7427L22.5998 43.1885C22.5893 43.1798 21.7444 42.484 21.0741 41.3198L21.5139 41.1518L20.791 39.2723L20.2757 39.4692L20.2562 39.4766L10.0896 13.0477V5.57203H10.1144C10.1145 3.60945 11.7166 2.01278 13.6859 2.01278H58.1097L58.1026 2.02154C58.0862 2.0412 58.0706 2.06179 58.0543 2.08184C58.0173 2.12734 57.9809 2.17343 57.9453 2.2201C57.9256 2.24626 57.9064 2.27309 57.8871 2.29952C57.8564 2.34149 57.8259 2.38359 57.7965 2.42636C57.7767 2.45478 57.7575 2.48386 57.7383 2.51295ZM58.8135 56.0801C58.8196 36.6818 58.8369 5.94855 58.8371 5.57243L57.8272 5.57189H58.8371C58.8371 3.60932 60.4392 2.01264 62.4084 2.01264C64.3778 2.01264 65.9799 3.60932 65.9799 5.57189V56.0801H58.8135Z" fill="#0A0E1A"/>
<path d="M60.1583 18.4153H62.1781V39.7921H60.1583V18.4153ZM60.1583 43.7237H62.1781V45.927H60.1583V43.7237ZM23.7276 62.5549L13.4562 62.6059V58.9206H11.4365V64.6287L23.7375 64.5676L23.7276 62.5549ZM26.8896 62.5408L29.3526 62.5286L29.3626 64.5413L26.8996 64.5536L26.8896 62.5408ZM43.428 3.35449V5.36727H53.4255V10.1949H55.4453V3.35449H43.428ZM37.4318 3.35449H39.5101V5.36727H37.4318V3.35449ZM15.6076 7.20261H20.7675V9.21539H15.6076V7.20261ZM23.28 7.20261H28.4399V9.21539H23.28V7.20261ZM30.4826 20.1221H50.8876V22.1349H30.4826V20.1221ZM23.7325 26.5817H50.8876V28.5945H23.7325V26.5817ZM23.7325 33.0413H50.8876V35.0541H23.7325V33.0413ZM24.1311 39.4996H50.8876V41.5124H24.1311V39.4996ZM24.1311 45.9591H50.8876V47.9719H24.1311V45.9591ZM37.8924 58.8783H50.8876V60.8911H37.8924V58.8783Z" fill="#FF5B15"/>
</svg>
