<svg width="72" height="76" viewBox="0 0 72 76" fill="none" xmlns="http://www.w3.org/2000/svg">
<path d="M29.9989 63.7144L29.8125 65.9369C30.7238 66.0133 31.6514 66.052 32.5698 66.052V63.8217C31.7132 63.8217 30.8483 63.7855 29.9989 63.7144Z" fill="#0A0E1A"/>
<path d="M62.9195 21.6457L62.9055 21.6074C60.5478 15.5887 56.4874 10.4472 51.1629 6.73848C45.7141 2.94304 39.3119 0.928436 32.6487 0.912744L32.5682 0.912598C23.861 0.912598 15.6911 4.27599 9.55726 10.3877C3.40492 16.5179 0.0108769 24.7049 2.44424e-05 33.4407C-0.00906819 40.822 2.51898 48.0551 7.11911 53.8079C9.13504 56.3288 11.5132 58.5273 14.1505 60.3379V76.0001H51.188V66.0017C57.4343 65.4365 62.345 60.1707 62.345 53.7799V47.576H72L62.9195 21.6457ZM60.1145 41.8093V53.7799C60.1145 59.3169 55.6097 63.8217 50.0727 63.8217H48.9575V73.7698H16.3807V61.7408C19.0753 63.2887 21.9878 64.4529 25.0237 65.1733L25.5386 63.0031C11.7974 59.7428 2.21261 47.5874 2.23036 33.4437C2.24048 25.3039 5.40163 17.6769 11.1315 11.9678C16.8449 6.27505 24.4549 3.14293 32.5684 3.14293L32.6434 3.14308C45.1826 3.173 56.2409 10.7319 60.8213 22.402L68.8557 45.3455H62.3448V41.8092H60.1145V41.8093Z" fill="#0A0E1A"/>
<path d="M33.4611 16.6021H33.4599L33.377 16.6023C32.4337 16.6096 31.4954 16.742 30.5869 16.9963L31.1892 19.1437C31.9059 18.9431 32.6459 18.8385 33.3901 18.8327L33.464 18.8324C33.5073 18.8324 33.5505 18.8328 33.5935 18.8334L33.6269 16.6034C33.5716 16.6025 33.5164 16.602 33.4611 16.6021ZM37.7496 17.4971L36.8545 19.5397C39.9454 20.8944 41.9427 23.9446 41.9427 27.3107C41.9427 28.6842 41.6287 29.9896 41.0093 31.1903L42.9913 32.2128C43.7645 30.7142 44.1731 29.0191 44.1731 27.3107C44.1731 23.0591 41.6518 19.2071 37.7496 17.4971Z" fill="#FF5B15"/>
<path d="M43.6245 17.07C40.8738 14.341 37.2251 12.8616 33.3479 12.8855C25.4612 12.9479 19.0421 19.4162 19.0388 27.3042C19.0369 31.2457 20.5952 34.9275 23.4266 37.6708C24.9236 39.1217 25.7824 41.1835 25.7824 43.328V54.2629H28.8964C29.3313 56.3866 31.2144 57.989 33.4647 57.989C35.7151 57.989 37.5981 56.3866 38.0331 54.2629H41.1471V43.2852C41.1471 41.1549 42.0059 39.1394 43.5654 37.6099C43.6945 37.4832 43.82 37.354 43.9436 37.2235C43.9873 37.1783 44.0164 37.1472 44.0272 37.1351C46.5231 34.458 47.8903 30.9952 47.8903 27.3109C47.8904 23.4361 46.3753 19.7992 43.6245 17.07ZM33.4645 55.7588C32.4551 55.7588 31.5878 55.1405 31.2201 54.2631H35.7091C35.3416 55.1405 34.4739 55.7588 33.4645 55.7588ZM38.9166 52.0329H28.0126V50.0884H38.9166V52.0329ZM38.9166 47.8578H28.0126V45.7351H38.9166V47.8578ZM42.2838 35.7291C41.7709 36.2317 39.1677 38.5723 35.0367 38.7373L35.1258 40.9658C36.6033 40.9085 38.0613 40.6097 39.4422 40.0812C39.0941 41.1136 38.9166 42.1958 38.9166 43.2853V43.5047H28.0126V43.3282C28.0125 40.5837 26.9067 37.9377 24.9783 36.0693C22.5848 33.7498 21.2673 30.6375 21.269 27.3053C21.2719 20.6368 26.6984 15.1687 33.3655 15.1159C33.3987 15.1157 33.4317 15.1155 33.4648 15.1155C36.705 15.1155 39.7518 16.3697 42.0537 18.6534C44.3793 20.9607 45.6601 24.0354 45.6601 27.3112C45.6602 30.4784 44.4625 33.4506 42.2838 35.7291ZM32.3018 9.85366L32.3474 5.95703L34.5773 5.98314L34.5317 9.87977L32.3018 9.85366ZM12.2051 26.1013L15.9191 26.0597L15.9441 28.2897L12.2302 28.3312L12.2051 26.1013ZM50.7121 28.2915L50.7348 26.0616L54.7235 26.1022L54.7008 28.3322L50.7121 28.2915ZM20.1795 38.892C19.9428 39.1369 19.7094 39.385 19.476 39.6333C18.8821 40.2654 18.321 40.8624 17.7069 41.4002L19.1763 43.0781C19.8722 42.4686 20.497 41.8038 21.1012 41.1606C21.3272 40.9202 21.553 40.6797 21.7823 40.4427L20.1795 38.892ZM47.6959 11.4079C46.7805 12.3302 45.8627 13.2501 44.9423 14.1675L46.517 15.747C47.4403 14.8267 48.361 13.9039 49.2792 12.9786L47.6959 11.4079ZM19.2321 11.4064L17.6514 12.9799C18.5535 13.8865 19.4573 14.7914 20.3626 15.6948L21.9379 14.1159C21.0343 13.2144 20.1324 12.3112 19.2321 11.4064Z" fill="#FF5B15"/>
<path d="M45.0452 40.3721L46.6238 38.7966L49.2739 41.4518L47.6953 43.0273L45.0452 40.3721ZM1.11523 9.15905H3.02307V11.3894H1.11523V9.15905ZM53.7564 2.89833H55.6643V5.12866H53.7564V2.89833ZM62.1916 10.1953H64.0994V12.4256H62.1916V10.1953ZM66.7785 20.5396H68.6864V22.77H66.7785V20.5396ZM69.0163 1.98438H70.924V4.21471H69.0163V1.98438ZM8.8579 1.98438H10.7657V4.21471H8.8579V1.98438Z" fill="#FF5B15"/>
</svg>
