<svg width="73" height="77" viewBox="0 0 73 77" fill="none" xmlns="http://www.w3.org/2000/svg">
<path d="M51.9365 38.1835L51.2881 37.7907L50.6739 38.2348C46.7872 41.0454 42.282 42.531 37.6456 42.531C33.0091 42.531 28.5039 41.0454 24.6173 38.2348L24.0031 37.7907L23.3547 38.1835C13.6565 44.0583 7.63184 55.3584 7.63184 67.6737V77.0001H67.6592V67.6737C67.6592 55.3585 61.6347 44.0585 51.9365 38.1835ZM14.6755 74.7129H9.91883V67.6737C9.91883 56.4232 15.2612 46.0982 23.9106 40.5326C27.7191 43.1189 32.0366 44.5769 36.502 44.79V50.6904H14.6755V74.7129ZM57.4596 74.7129H16.9625V52.9776H57.4596V74.7129ZM65.3722 74.7129H59.7465V50.6904H38.7892V44.79C43.2544 44.5769 47.5723 43.1187 51.3806 40.5326C60.03 46.0982 65.3724 56.4233 65.3724 67.6737V74.7129H65.3722ZM41.3845 15.1534L40.5838 17.2959C43.8382 18.5121 47.1485 19.2097 50.4223 19.3696L50.5341 17.0852C47.4959 16.9369 44.4175 16.2869 41.3845 15.1534ZM36.7598 13.0312L35.6624 15.0379C36.3501 15.4139 37.0544 15.7721 37.756 16.1025L38.7305 14.0335C38.0637 13.7192 37.4065 13.3849 36.7598 13.0312Z" fill="#0A0E1A"/>
<path d="M59.5678 19.2817C58.9178 14.1787 56.5127 9.47536 52.7166 5.93502C48.6129 2.10787 43.2606 0 37.6461 0C32.0931 0 26.7843 2.06772 22.6977 5.82207C18.8385 9.36753 16.3831 14.1205 15.725 19.2795C13.3278 20.3155 11.6453 22.7024 11.6453 25.4757C11.6453 29.1959 14.6721 32.2227 18.3925 32.2227H21.7289V30.9259C24.84 36.5148 30.8081 40.305 37.6459 40.305C43.9407 40.305 49.499 37.0932 52.7694 32.2227H53.5616V32.224H56.898C60.6184 32.224 63.6452 29.1973 63.6452 25.4769C63.6453 22.7046 61.9639 20.3182 59.5678 19.2817ZM16.1574 29.3329C14.8285 28.5599 13.9326 27.121 13.9326 25.4759C13.9325 23.8306 14.8284 22.392 16.1574 21.6188V29.3329ZM19.4419 29.9357H18.4445V21.0157H19.4419V29.9357ZM51.4972 29.9354H44.3212V27.4789H32.5854V34.6793H44.3212V32.2227H49.9216C46.9995 35.7602 42.5816 38.0181 37.6461 38.0181C29.2197 38.0181 22.3029 31.4363 21.7641 23.1438C27.2293 22.5154 31.0268 19.729 32.71 18.2316C33.6672 18.8066 34.6479 19.3416 35.6495 19.8353C39.2619 21.6149 44.572 23.5179 50.7592 23.5179C51.6586 23.5179 52.5769 23.4766 53.5109 23.3898C53.3263 25.6926 52.6389 27.927 51.4972 29.9354ZM42.0339 29.7664V32.3925H34.8724V29.7664H42.0339ZM36.7252 17.8157C32.2514 15.6227 29.4939 13.1446 29.4672 13.1205L27.9281 14.8124C27.9967 14.8748 28.9731 15.7548 30.6913 16.935C29.0711 18.2529 25.9791 20.2803 21.779 20.8393C22.4243 12.6504 29.294 6.18421 37.6459 6.18421C46.0827 6.18421 53.0061 12.7824 53.5299 21.0893C46.6306 21.7884 40.6222 19.7258 36.7252 17.8157ZM56.8461 29.9372H55.8488V22.2067C55.8489 22.1715 55.8501 22.1364 55.8501 22.1011C55.8501 22.0658 55.8489 22.0309 55.8488 21.9955V21.0171H56.8461V29.9372ZM56.8982 18.7301H55.5359C53.9505 10.2974 46.5321 3.89707 37.6459 3.89707C28.7601 3.89707 21.3422 10.2968 19.7562 18.7287H18.3925C18.2998 18.7287 18.2076 18.7321 18.1159 18.7358C19.7168 9.25504 27.8525 2.28729 37.6461 2.28729C47.3269 2.28729 55.5648 9.37385 57.1746 18.7372C57.0825 18.7329 56.9904 18.7306 56.8982 18.7301ZM59.1333 29.3341V21.6202C60.4623 22.3933 61.3582 23.8321 61.3582 25.4772C61.3582 27.1222 60.4623 28.561 59.1333 29.3341ZM39.6237 54.5023H41.9472V56.7895H39.6237V54.5023ZM44.5171 54.5023V56.7895H53.6479V60.1096H55.9351V54.5023H44.5171ZM20.775 70.9011V68.4088H18.4878V73.1882H23.0228V70.9011H20.775ZM37.6461 59.6375C34.6253 59.6375 32.1678 62.0951 32.1678 65.1158C32.1678 68.1366 34.6253 70.5941 37.6461 70.5941C40.6668 70.5941 43.1244 68.1366 43.1244 65.1158C43.1242 62.0951 40.6667 59.6375 37.6461 59.6375ZM37.6461 68.307C35.8865 68.307 34.4549 66.8754 34.4549 65.1158C34.4549 63.3563 35.8865 61.9247 37.6461 61.9247C39.4056 61.9247 40.8372 63.3563 40.8372 65.1158C40.8371 66.8755 39.4056 68.307 37.6461 68.307ZM4.59398 42.5315H6.55041V44.8187H4.59398V42.5315ZM0.0810547 31.0012H2.03749V33.2884H0.0810547V31.0012ZM7.79745 18.169H9.75388V20.4561H7.79745V18.169ZM64.7546 11.7619H66.711V14.049H64.7546V11.7619ZM68.533 3.89692H70.4894V6.18406H68.533V3.89692ZM63.7757 39.854H65.7321V42.1411H63.7757V39.854ZM70.9618 28.5769H72.9182V30.8641H70.9618V28.5769ZM3.61554 6.63584H5.57197V8.92298H3.61554V6.63584ZM13.253 2.28714H15.2094V4.57428H13.253V2.28714Z" fill="#FF5B15"/>
</svg>
