<svg width="70" height="78" viewBox="0 0 70 78" fill="none" xmlns="http://www.w3.org/2000/svg">
<path d="M40.1588 72.7911L39.0229 70.8242L37.8199 71.5187C37.3606 71.0246 36.7799 70.6594 36.1355 70.4594V70.1433H33.864V70.4594C33.1953 70.6669 32.5955 71.0522 32.1288 71.574L30.4725 70.5254L29.3368 72.4926L31.176 73.6568C31.1551 73.8184 31.1445 73.9811 31.1442 74.144C31.1442 76.2701 32.8739 77.9998 34.9998 77.9998C37.1258 77.9998 38.8555 76.2701 38.8555 74.144C38.8555 73.9514 38.8411 73.759 38.8124 73.5685L40.1588 72.7911ZM34.9997 75.7284C34.126 75.7284 33.4155 75.0177 33.4155 74.144C33.4155 73.2705 34.126 72.5598 34.9997 72.5598C35.8734 72.5598 36.5839 73.2703 36.5839 74.144C36.5839 75.0177 35.8734 75.7284 34.9997 75.7284ZM40.9882 69.6889L42.9552 68.5532L44.0909 70.5202L42.1239 71.6559L40.9882 69.6889ZM25.404 70.2229L26.5397 68.2556L28.5068 69.3914L27.3711 71.3584L25.404 70.2229ZM44.9224 67.4179L46.8895 66.2822L48.0252 68.2492L46.0582 69.385L44.9224 67.4179ZM21.4665 67.9511L22.6022 65.984L24.5693 67.1198L23.4336 69.0868L21.4665 67.9511ZM48.8558 65.1457L50.8229 64.01L51.9586 65.977L49.9915 67.1128L48.8558 65.1457ZM17.5319 65.68L18.6677 63.7131L20.6347 64.8488L19.499 66.8158L17.5319 65.68ZM52.7902 62.8741L54.7573 61.7384L55.893 63.7054L53.9259 64.8412L52.7902 62.8741ZM13.5992 63.4082L14.7349 61.4411L16.702 62.5769L15.5662 64.5439L13.5992 63.4082ZM56.7259 60.6028L58.6929 59.4671L59.8287 61.4341L57.8616 62.5699L56.7259 60.6028ZM9.66278 61.1365L10.7985 59.1694L12.7656 60.3051L11.6298 62.2722L9.66278 61.1365ZM64.0282 50.6814H66.2998V52.953H64.0282V50.6814ZM3.7002 50.3801H5.97179V52.6517H3.7002V50.3801ZM64.0282 46.1382H66.2998V48.4098H64.0282V46.1382ZM3.7002 45.8369H5.97179V48.1085H3.7002V45.8369ZM64.0282 41.5952H66.2998V43.8668H64.0282V41.5952ZM3.7002 41.2938H5.97179V43.5654H3.7002V41.2938ZM64.0282 37.0521H66.2998V39.3237H64.0282V37.0521ZM3.7002 36.7506H5.97179V39.0222H3.7002V36.7506ZM64.0282 32.5089H66.2998V34.7805H64.0282V32.5089ZM3.7002 32.2076H5.97179V34.4792H3.7002V32.2076ZM64.0282 27.9659H66.2998V30.2375H64.0282V27.9659ZM3.7002 27.6646H5.97179V29.9362H3.7002V27.6646ZM56.8219 18.5677L57.9576 16.6007L59.9246 17.7365L58.7889 19.7035L56.8219 18.5677ZM10.1683 17.8227L12.1353 16.6868L13.271 18.6539L11.304 19.7896L10.1683 17.8227ZM52.8877 16.2962L54.0234 14.329L55.9905 15.4647L54.8548 17.4318L52.8877 16.2962ZM14.1025 15.5513L16.0696 14.4154L17.2053 16.3824L15.2383 17.5182L14.1025 15.5513ZM48.9538 14.0246L50.0895 12.0576L52.0565 13.1933L50.9208 15.1603L48.9538 14.0246ZM18.0367 13.28L20.0037 12.1442L21.1394 14.1113L19.1724 15.247L18.0367 13.28ZM45.0195 11.7529L46.1554 9.7858L48.1224 10.9215L46.9867 12.8886L45.0195 11.7529ZM21.9709 11.0084L23.938 9.87279L25.0737 11.8399L23.1067 12.9756L21.9709 11.0084ZM41.0855 9.48127L42.2212 7.5142L44.1883 8.64993L43.0526 10.617L41.0855 9.48127ZM25.9037 8.73676L27.8707 7.60104L29.0065 9.5681L27.0394 10.7038L25.9037 8.73676ZM38.5296 5.40485C38.7449 4.91692 38.8559 4.38942 38.8555 3.85613C38.8553 1.72971 37.1256 0 34.9997 0C32.8737 0 31.144 1.72971 31.144 3.85582C31.144 4.44356 31.2767 5.00084 31.513 5.49976L29.8399 6.46577L30.9757 8.43299L32.9429 7.29727L32.7706 6.99882C33.1039 7.2365 33.4731 7.41943 33.8641 7.54071V8.73737H36.1357V7.54071C36.6039 7.39568 37.0401 7.16253 37.4209 6.85379L37.1885 7.25613L39.12 8.34432L40.2557 6.37711L38.5296 5.40485ZM34.9997 5.44004C34.126 5.44004 33.4155 4.72951 33.4155 3.85582C33.4155 2.98213 34.1261 2.27145 34.9997 2.27145C35.8734 2.27145 36.5839 2.98213 36.5839 3.85582C36.5839 4.72951 35.8734 5.44004 34.9997 5.44004ZM51.195 30.1775L53.1024 28.9435L54.3362 30.8507L52.4289 32.0847L51.195 30.1775ZM55.014 27.7161L56.9213 26.4824L58.1552 28.3897L56.2478 29.6235L55.014 27.7161ZM58.8249 25.2438L60.7322 24.0101L61.9659 25.9175L60.0585 27.1515L58.8249 25.2438ZM54.9115 53.019L56.1078 51.088L58.0389 52.2845L56.8426 54.2155L54.9115 53.019ZM58.7659 55.4175L59.9621 53.487L61.8929 54.6833L60.6966 56.614L58.7659 55.4175ZM51.0538 50.6305L52.2503 48.6996L54.1814 49.8961L52.9851 51.827L51.0538 50.6305ZM8.033 25.9187L9.26668 24.0114L11.174 25.245L9.9405 27.1524L8.033 25.9187ZM11.8478 28.3861L13.0817 26.4787L14.989 27.7122L13.7553 29.6197L11.8478 28.3861ZM15.6586 30.8539L16.8921 28.947L18.7993 30.1805L17.5658 32.0876L15.6586 30.8539ZM8.10171 54.6842L10.0328 53.4877L11.2292 55.4187L9.29807 56.6152L8.10171 54.6842ZM11.9644 52.2909L13.8953 51.0944L15.0919 53.0254L13.1607 54.2219L11.9644 52.2909ZM15.8269 49.8976L17.758 48.7012L18.9544 50.6322L17.0233 51.8286L15.8269 49.8976ZM33.8635 15.5526H36.1351V17.8242H33.8635V15.5526ZM33.8635 11.0094H36.1351V13.281H33.8635V11.0094Z" fill="#0A0E1A"/>
<path d="M36.1355 21.2366V20.0951H33.8639V21.2366C24.4029 21.8249 16.8855 29.7074 16.8855 39.314C16.8855 48.9206 24.4027 56.8032 33.8639 57.3914V58.7853H36.1355V57.3914C45.5965 56.8031 53.1139 48.9206 53.1139 39.314C53.1139 29.7075 45.5965 21.8249 36.1355 21.2366ZM44.9112 51.6634C44.0651 52.3445 43.1513 52.937 42.1843 53.4315V49.8115H39.9127V54.3759C38.3265 54.8942 36.6683 55.1578 34.9996 55.1567C33.3404 55.1578 31.6915 54.8972 30.1135 54.3846V49.8115H27.842V53.4449C26.865 52.9476 25.9421 52.3506 25.088 51.6633V46.7045C25.088 43.3896 29.627 40.5893 34.9994 40.5893C40.3718 40.5893 44.9109 43.3896 44.9109 46.7045V51.6634H44.9112ZM30.1136 33.2922C30.1136 30.598 32.3055 28.406 34.9997 28.406C37.6939 28.406 39.8859 30.598 39.8859 33.2922C39.8859 35.9863 37.6939 38.1783 34.9997 38.1783C32.3055 38.1783 30.1136 35.9863 30.1136 33.2922ZM47.1828 49.4296V46.7046C47.1828 44.3726 45.8516 42.2145 43.4346 40.628C42.2734 39.8658 40.9215 39.2802 39.4541 38.8886C41.0997 37.5762 42.1573 35.556 42.1573 33.2922C42.1573 29.3454 38.9464 26.1344 34.9996 26.1344C31.0528 26.1344 27.8419 29.3454 27.8419 33.2922C27.8419 35.5558 28.8993 37.5761 30.5451 38.8886C29.0778 39.2802 27.7258 39.8658 26.5646 40.628C24.1475 42.2146 22.8164 44.3726 22.8164 46.7046V49.4298C20.5324 46.6838 19.1569 43.1567 19.1569 39.3141C19.1569 30.5786 26.264 23.4716 34.9994 23.4716C43.7348 23.4716 50.842 30.5788 50.842 39.3141C50.8423 43.1567 49.4668 46.6836 47.1828 49.4296ZM33.8636 61.0579H36.1352V63.3295H33.8636V61.0579ZM33.8636 65.6009H36.1352V67.8725H33.8636V65.6009ZM65.1635 18.3285C64.1897 18.3285 63.2999 18.692 62.6204 19.2895L61.895 18.8705L60.7592 20.8377L61.4288 21.2242C61.3483 21.5379 61.3076 21.8605 61.3078 22.1843C61.3078 24.3103 63.0375 26.04 65.1637 26.04C67.2896 26.04 69.0193 24.3103 69.0193 22.1843C69.0193 20.0582 67.2896 18.3285 65.1635 18.3285ZM65.1635 23.7685C64.2898 23.7685 63.5791 23.058 63.5791 22.1843C63.5791 21.3106 64.2898 20.5999 65.1635 20.5999C66.037 20.5999 66.7477 21.3108 66.7477 22.1843C66.7477 23.058 66.0372 23.7685 65.1635 23.7685ZM65.1635 53.8691C63.0374 53.8691 61.3077 55.5988 61.3077 57.7249C61.3077 59.8508 63.0374 61.5806 65.1635 61.5806C67.2895 61.5806 69.0192 59.8508 69.0192 57.7249C69.0193 55.5988 67.2896 53.8691 65.1635 53.8691ZM65.1635 59.3091C64.2898 59.3091 63.5791 58.5986 63.5791 57.7249C63.5791 56.8512 64.2898 56.1405 65.1635 56.1405C66.037 56.1405 66.7477 56.8512 66.7477 57.7249C66.7477 58.5984 66.037 59.3091 65.1635 59.3091ZM4.83614 53.8691C2.71018 53.8691 0.980469 55.5988 0.980469 57.7249C0.980469 59.8508 2.71018 61.5806 4.83614 61.5806C6.96225 61.5806 8.69196 59.8508 8.69196 57.7249C8.69196 55.5988 6.96225 53.8691 4.83614 53.8691ZM4.83614 59.3091C3.96245 59.3091 3.25191 58.5984 3.25191 57.7249C3.25191 56.8512 3.96245 56.1405 4.83614 56.1405C5.70983 56.1405 6.42051 56.8512 6.42051 57.7249C6.42036 58.5984 5.70968 59.3091 4.83614 59.3091ZM9.33637 20.9266L8.20065 18.9593L7.47625 19.3778C6.78583 18.7281 5.85714 18.3285 4.83644 18.3285C2.71048 18.3285 0.980773 20.0582 0.980773 22.1843C0.980621 24.3101 2.71033 26.0398 4.83629 26.0398C6.9624 26.0398 8.69211 24.3101 8.69211 22.1842C8.69211 21.8981 8.65981 21.6196 8.60055 21.3514L9.33637 20.9266ZM4.83614 23.7685C3.96245 23.7685 3.25191 23.058 3.25191 22.1843C3.25191 21.3108 3.96245 20.5999 4.83614 20.5999C5.70983 20.5999 6.42051 21.3106 6.42051 22.1843C6.42051 23.058 5.70968 23.7685 4.83614 23.7685Z" fill="#FF5B15"/>
</svg>
