<svg width="77" height="77" viewBox="0 0 77 77" fill="none" xmlns="http://www.w3.org/2000/svg">
<path d="M43.8901 19.42V8.21777H34.851V12.8836L7.84677 22.7259H0V37.595H8.70489L11.3621 38.5633L20.4505 77.0003H33.4349L31.6767 62.0914H34.9133V54.5677H30.7894L29.6898 45.2432L34.8509 47.1243V52.1686H43.8899V40.9664C49.2913 40.39 53.5137 35.7788 53.5137 30.1931C53.5138 24.6075 49.2913 19.9966 43.8901 19.42ZM7.7621 35.2936H2.28714V25.0276H7.7621V35.2936ZM32.6264 56.8695V59.7902H31.4054L31.3618 59.4211L31.061 56.8697H32.6264V56.8695ZM30.8605 74.699H22.2573L21.6389 72.0838H25.9464V69.7823H21.0948L20.4993 67.2638H24.6063V64.9622H19.955L19.3594 62.4436H23.6014V60.142H18.8153L18.2198 57.6237H22.45V55.3221H17.6757L13.935 39.5012L21.2408 42.1641L27.2832 44.3665L30.8605 74.699ZM34.8509 44.6764L11.7819 36.2686L10.7287 35.8847L10.0491 35.6371V24.3711L34.8509 15.3315V44.6764ZM41.6029 49.8672H37.1381V10.5193H41.6029V49.8672ZM43.8901 38.6472V21.7395C48.0269 22.3034 51.2267 25.8784 51.2267 30.1933C51.2267 34.5082 48.0267 38.0832 43.8901 38.6472ZM56.7283 14.0938L55.0424 15.6493C58.6667 19.627 60.6626 24.7922 60.6626 30.1933C60.6626 35.6576 58.6258 40.8671 54.9271 44.8629L56.6008 46.4316C60.6951 42.0085 62.9499 36.2416 62.9499 30.1933C62.9499 24.2147 60.7404 18.4971 56.7283 14.0938Z" fill="#0A0E1A"/>
<path d="M61.9445 7.01611L60.1411 8.43141C64.9982 14.6996 67.5654 22.2246 67.5654 30.1931C67.5654 38.2405 64.9519 45.8245 60.0078 52.1254L61.8027 53.5518C67.0691 46.8406 69.8527 38.7632 69.8527 30.1931C69.8525 21.7069 67.118 13.6924 61.9445 7.01611Z" fill="#FF5B15"/>
<path d="M67.426 0L65.563 1.33509C71.5491 9.7934 74.7132 19.7725 74.7132 30.193C74.7132 40.6617 71.5225 50.6782 65.4858 59.1598L67.3453 60.4999C73.6615 51.6251 77.0003 41.1451 77.0003 30.193C77.0002 19.2911 73.6895 8.85043 67.426 0ZM19.9391 22.3979L22.4335 21.4886L23.2125 23.6524L20.7183 24.5618L19.9391 22.3979ZM25.3103 20.4406L31.7912 18.0787L32.5699 20.2424L26.089 22.6043L25.3103 20.4406ZM17.9756 45.0533L18.7546 42.8894L20.7121 43.6029L19.9331 45.7669L17.9756 45.0533ZM25.8803 45.4866L23.124 44.4819L22.3453 46.6458L23.7754 47.1672L24.1079 49.9881L26.3792 49.717L25.8803 45.4866ZM54.7862 58.4464H56.7426V60.7479H54.7862V58.4464ZM45.6026 61.5934H47.559V63.8949H45.6026V61.5934ZM67.7312 68.1451H69.6875V70.4466H67.7312V68.1451ZM47.4719 13.7206H49.4284V16.0221H47.4719V13.7206ZM54.7862 4.06806H56.7426V6.36958H54.7862V4.06806ZM45.6026 1.8177H47.559V4.11921H45.6026V1.8177Z" fill="#FF5B15"/>
</svg>
