<svg width="71" height="72" viewBox="0 0 71 72" fill="none" xmlns="http://www.w3.org/2000/svg">
<path d="M0.104492 63.9154V71.9999H70.0113V63.9154H0.104492ZM67.885 69.874H2.2306V66.0418H67.885V69.874ZM65.4988 53.0494H61.4828C58.9944 53.0494 56.9701 55.0739 56.9701 57.562V61.1337H70.0114V57.562C70.0113 55.0736 67.9869 53.0494 65.4988 53.0494ZM67.885 59.0076H59.0961V57.562C59.0961 56.246 60.1667 55.1755 61.4827 55.1755H62.4275V57.0916H64.5536V55.1755H65.4985C66.8145 55.1755 67.885 56.2461 67.885 57.562V59.0076Z" fill="#0A0E1A"/>
<path d="M70.0114 43.8313V0H0.104492V43.8313H25.9833V53.0494H17.1556V61.1339H52.9605V53.0494H43.3603V43.8313H70.0114ZM50.8343 55.1755V59.0077H19.2817V55.1755H50.8343ZM28.1094 52.9152V43.8311H41.2339V52.9152H28.1094ZM43.3602 41.7052H2.2306V2.12611H67.885V41.705H43.3602V41.7052Z" fill="#0A0E1A"/>
<path d="M5.97168 5.63794V38.1928H64.1442V5.63794H5.97168ZM62.0181 36.0667H8.09793V7.76419H62.0182V36.0667H62.0181Z" fill="#FF5B15"/>
<path d="M58.4756 24.703H60.6017V26.6501H58.4756V24.703ZM58.4749 29.2887V32.5233H54.1272V34.6495H60.601V29.2887H58.4749ZM9.51562 9.18176V14.9685H11.6417V11.3079H15.7518V9.18176H9.51562ZM18.7039 9.18176H20.965V11.3079H18.7039V9.18176ZM37.6908 46.4532V49.3717H35.8972V51.4978H39.8169V46.4532H37.6908ZM31.5642 49.372H33.7031V51.4981H31.5642V49.372ZM27.4241 31.2475L39.6441 12.0712L41.4371 13.2138L29.217 32.3898L27.4241 31.2475ZM39.0685 31.2474L51.2886 12.0713L53.0815 13.2139L40.8614 32.3899L39.0685 31.2474ZM16.117 31.2444L28.3372 12.0682L30.1301 13.2108L17.91 32.387L16.117 31.2444Z" fill="#FF5B15"/>
</svg>
