<svg width="79" height="76" viewBox="0 0 79 76" fill="none" xmlns="http://www.w3.org/2000/svg">
<path d="M39.1795 24.9588H39.1783L39.0819 24.9591C37.99 24.9675 36.904 25.1208 35.8525 25.4151L36.496 27.7103C37.3423 27.4733 38.2163 27.3497 39.0951 27.3429L39.1823 27.3426C39.234 27.3426 39.2854 27.343 39.3369 27.3437L39.3695 24.9604C39.3074 24.9593 39.2454 24.9588 39.1795 24.9588ZM8.3213 36.6943L6.53807 38.2758C7.17193 38.9905 7.88386 39.7204 8.65396 40.4446L10.2869 38.7083C9.5688 38.0331 8.90763 37.3554 8.3213 36.6943ZM10.8433 21.8857C9.50538 22.1703 8.31389 22.5533 7.27747 23.0279C6.50413 22.2929 5.45953 21.8401 4.31063 21.8401C1.93382 21.8398 0 23.7737 0 26.1506C0 27.8454 0.983342 29.314 2.40906 30.0178C2.48312 31.7134 3.14675 33.5454 4.40351 35.4954L6.40707 34.2041C5.52048 32.8285 4.99926 31.5666 4.84018 30.4276C6.96795 30.1656 8.62125 28.3481 8.62125 26.1506C8.62125 25.7905 8.57635 25.4407 8.49272 25.1063C12.0592 23.58 17.9706 23.2092 25.1631 24.2065L25.4907 21.8455C19.7645 21.0514 14.6995 21.0656 10.8433 21.8857ZM4.31078 28.0776C3.24813 28.0776 2.38375 27.2131 2.38375 26.1506C2.38375 25.0881 3.24828 24.2236 4.31078 24.2236C5.37328 24.2236 6.23781 25.0881 6.23781 26.1506C6.23781 27.2131 5.37328 28.0776 4.31078 28.0776ZM61.4492 15.4237C61.2235 16.14 60.9746 16.8489 60.703 17.5491L62.9265 18.4082C63.2164 17.66 63.4823 16.9026 63.7237 16.1373L61.4492 15.4237ZM64.2227 6.24879C64.5267 5.64819 64.6849 4.98442 64.6845 4.31127C64.6845 1.93431 62.7507 0.000488281 60.3738 0.000488281C58.7825 0.000488281 57.3907 0.867798 56.6441 2.15418C54.645 2.30817 52.337 2.94465 49.7605 4.06485C44.4662 6.36683 38.2165 10.6776 32.1628 16.2035L33.7697 17.9639C39.6347 12.6105 45.6511 8.45093 50.711 6.25079C52.7156 5.37917 54.5192 4.83264 56.075 4.612C56.2301 6.84901 58.0985 8.62174 60.3741 8.62174C61.0464 8.62224 61.7094 8.4644 62.3094 8.16101C62.5855 9.60554 62.4256 11.2471 62.1659 12.6157L64.5077 13.06C65.0245 10.3361 64.9202 8.03602 64.2227 6.24879ZM60.3739 6.2383C59.3113 6.2383 58.4469 5.37376 58.4469 4.31127C58.4469 3.24862 59.3114 2.38424 60.3739 2.38424C61.4364 2.38424 62.3009 3.24877 62.3009 4.31127C62.3011 5.37392 61.4366 6.2383 60.3739 6.2383Z" fill="#FF5B15"/>
<path d="M76.7728 50.6772C75.6986 46.0878 70.7396 40.7014 62.6331 35.5376L61.3524 37.5481C68.1589 41.8836 72.7134 46.4635 74.1363 50.1756C72.0199 50.4481 70.3788 52.2603 70.3788 54.4496C70.3781 55.3479 70.6596 56.2236 71.1836 56.9531C68.933 57.994 65.6521 58.5456 61.5732 58.5254C57.5003 58.5024 52.8995 57.9207 48.0436 56.8391V56.0099C48.0436 53.4917 49.0584 51.1102 50.9007 49.3032C51.0474 49.1588 51.1914 49.0118 51.3327 48.8622C51.3889 48.8045 51.4256 48.7648 51.438 48.7512C54.3329 45.6457 55.9189 41.6285 55.9189 37.3546C55.9189 35.6393 55.6623 33.9649 55.1686 32.3731C57.0072 29.7582 58.6387 27.152 60.0209 24.6079L57.9265 23.4698C56.8102 25.5245 55.523 27.6229 54.0928 29.7346C53.2954 28.1784 52.2477 26.7409 50.9695 25.4728C47.7783 22.3069 43.541 20.5804 39.0469 20.6182C29.8969 20.6908 22.4497 28.1952 22.4454 37.3468C22.4433 41.9195 24.2513 46.1908 27.536 49.3738C27.7724 49.6037 27.9958 49.8467 28.205 50.1017C23.937 48.1412 19.9883 45.9561 16.5576 43.6412L15.2244 45.6171C19.4892 48.4948 24.52 51.1743 29.9618 53.4825C30.0523 53.8036 30.1257 54.1293 30.1819 54.4581C28.17 55.8792 26.1892 57.1193 24.2733 58.1488C20.2363 60.3177 16.7849 61.3839 14.2655 61.2935C14.2935 61.0956 14.3089 60.8934 14.3089 60.6878C14.3089 58.3108 12.3751 56.377 9.99813 56.377C9.8912 56.377 9.7855 56.3822 9.68043 56.3899C9.5917 54.1679 10.2174 51.2709 11.5521 47.9083C14.0659 41.5748 18.8183 34.1764 24.934 27.0761L23.128 25.5206C16.8436 32.8167 11.9457 40.4551 9.33665 47.0291C7.70665 51.1356 7.04363 54.5931 7.34188 57.2966C6.33571 58.0864 5.6875 59.3125 5.6875 60.6879C5.6875 63.0649 7.62132 64.9987 9.99828 64.9987C11.2649 64.9987 12.4056 64.4494 13.195 63.5767C13.6258 63.6353 14.0755 63.666 14.5453 63.666C17.4865 63.6659 21.1756 62.5191 25.4015 60.2486C27.0055 59.3869 28.6514 58.3836 30.3207 57.2571V68.7202H33.9392C34.4022 71.1936 36.5761 73.0719 39.1819 73.0719C41.7877 73.0719 43.9616 71.1936 44.4247 68.7202H48.0431V59.2787C52.8786 60.3247 57.4695 60.8866 61.5595 60.9098C61.6455 60.9102 61.7306 60.9106 61.8162 60.9106C66.7883 60.9106 70.686 60.0849 73.2898 58.5266C73.7291 58.6779 74.1994 58.7612 74.6891 58.7612C77.0661 58.7612 78.9999 56.8274 78.9999 54.4504C79.0005 52.8278 78.0999 51.4127 76.7728 50.6772ZM9.99843 62.6145C8.93578 62.6145 8.07141 61.7499 8.07141 60.6874C8.07141 59.6249 8.93594 58.7604 9.99843 58.7604C11.0611 58.7604 11.9255 59.6251 11.9255 60.6874C11.9255 61.7498 11.0611 62.6145 9.99843 62.6145ZM29.195 47.6618C26.3778 44.9322 24.8276 41.2692 24.8293 37.3475C24.8328 29.4992 31.2195 23.0636 39.066 23.0015C42.9153 22.973 46.5543 24.4491 49.2911 27.1645C50.7041 28.5663 51.7862 30.2102 52.5054 32.0016C52.0407 32.6435 51.5681 33.2795 51.0876 33.9096C50.5805 32.1621 49.6956 30.5474 48.4955 29.1796C47.2954 27.8119 45.8094 26.7246 44.1426 25.9946L43.1858 28.1776C46.5342 29.645 48.7942 32.7979 49.1451 36.3778C47.8288 37.9979 46.4656 39.5793 45.0573 41.1201C41.2054 45.334 37.1632 49.1029 33.1785 52.2248C32.7412 52.0516 32.3051 51.8755 31.8702 51.6965C31.2714 50.1799 30.3656 48.7962 29.195 47.6618ZM32.6927 55.5853C32.9854 55.3698 33.2764 55.1522 33.5659 54.9326C33.8549 55.0429 34.1436 55.1538 34.4343 55.2619C35.4793 55.6497 36.5301 56.0214 37.5866 56.3767H32.7045V56.0597C32.7038 55.9015 32.6999 55.7433 32.6927 55.5853ZM39.1824 70.6877C37.9002 70.6877 36.8093 69.8643 36.4028 68.7196H41.9617C41.5553 69.8643 40.4646 70.6877 39.1824 70.6877ZM45.66 66.336H32.7046V63.8439H45.66V66.336ZM45.66 61.4603H32.7046V58.7603H45.66V61.4603ZM41.0227 50.809L41.118 53.1907C43.1373 53.11 44.8871 52.663 46.3433 52.0813C45.8907 53.3416 45.6596 54.6707 45.6603 56.0097V56.2736C42.4266 55.4589 39.1023 54.432 35.7631 53.2103C39.4899 50.1888 43.2378 46.644 46.8169 42.7285C47.4271 42.0602 48.0292 41.3846 48.6231 40.7017C48.4742 41.1245 48.2968 41.5368 48.092 41.9356L50.2102 43.0288C51.1051 41.2945 51.5781 39.3323 51.5781 37.3545C51.5781 37.2908 51.5756 37.2273 51.5745 37.1638C52.1684 36.4195 52.7519 35.667 53.3247 34.9064C53.4641 35.7149 53.5346 36.5339 53.5356 37.3543C53.5356 41.1019 52.1107 44.6173 49.5205 47.3041C48.8348 47.9722 45.8272 50.6169 41.0227 50.809ZM74.6898 56.3767C73.6271 56.3767 72.7627 55.5121 72.7627 54.4496C72.7627 53.3871 73.6273 52.5226 74.6898 52.5226C75.7523 52.5226 76.6168 53.3873 76.6168 54.4496C76.6169 55.512 75.7524 56.3767 74.6898 56.3767ZM30.5421 0H32.581V2.3836H30.5421V0ZM73.0329 9.80317H75.0718V12.1868H73.0329V9.80317ZM66.6272 23.4646H68.6661V25.8482H66.6272V23.4646ZM71.5709 29.2742H73.6098V31.6578H71.5709V29.2742ZM61.5676 73.0981H63.6065V75.4817H61.5676V73.0981ZM70.5507 66.3366H72.5896V68.7202H70.5507V66.3366Z" fill="#0A0E1A"/>
<path d="M54.9411 64.3884H56.98V66.772H54.9411V64.3884ZM16.4341 73.0981H18.473V75.4816H16.4341V73.0981ZM25.0042 64.9889H27.0431V67.3725H25.0042V64.9889ZM6.41016 68.6152H8.44905V70.9988H6.41016V68.6152ZM26.0228 9.80312H28.0617V12.1867H26.0228V9.80312ZM14.4431 0.874512H16.482V3.25811H14.4431V0.874512ZM8.45059 12.8144H10.4895V15.198H8.45059V12.8144Z" fill="#FF5B15"/>
</svg>
