<svg width="215" height="39" viewBox="0 0 215 39" fill="none" xmlns="http://www.w3.org/2000/svg">
<path d="M207.876 35.8666C207.876 37.5732 209.234 38.972 210.925 39C210.953 39 210.953 39 210.981 39C212.671 39 214.058 37.6291 214.085 35.8946V35.8666C214.085 34.16 212.727 32.7611 211.008 32.7331H210.981C209.29 32.7331 207.904 34.104 207.876 35.8106C207.876 35.8106 207.876 35.8386 207.876 35.8666ZM208.43 35.8666C208.43 34.3558 209.567 33.1808 210.981 33.1808C212.394 33.1808 213.531 34.3278 213.531 35.8666C213.531 37.3773 212.394 38.5524 210.981 38.5524C209.567 38.5244 208.43 37.3773 208.43 35.8666ZM210.371 37.6851V36.1184H210.953L211.923 37.6851H212.505L211.48 36.0624C212.034 36.0065 212.422 35.7267 212.422 35.0552C212.422 34.3558 212.006 34.0201 211.147 34.0201H209.789V37.6851H210.371ZM210.343 34.4677H211.064C211.452 34.4677 211.868 34.5237 211.868 35.0273C211.868 35.6148 211.396 35.6428 210.897 35.6428H210.343V34.4677ZM9.45268 3.69297L3.04925 27.7812C2.71661 29.0402 2.32852 30.0753 1.80183 31.1105H15.0522C18.8776 31.1105 20.5409 30.2991 21.4002 27.0818L23.895 17.7374C24.2554 16.3386 23.008 15.2755 21.4279 14.4362C23.6733 13.4849 24.8375 13.429 25.6137 10.4634L27.3047 4.11263C28.0531 1.3429 26.6117 0.391679 22.9526 0.391679H9.78533C9.75761 1.59469 9.78533 2.434 9.45268 3.69297ZM15.967 13.6808H13.8602L16.6877 2.99354H18.6282C19.737 2.99354 20.1805 3.69297 19.9587 4.56026L18.046 11.7783C17.7965 12.7575 16.9649 13.6808 15.967 13.6808ZM15.2185 16.1428C16.1056 16.1428 16.7986 16.6184 16.5214 17.6535L14.1374 26.6621C13.8602 27.6693 12.8623 28.4806 11.8089 28.4806H9.97937L13.2504 16.1428H15.2185ZM48.1505 11.1908L49.98 4.30847C50.3127 3.0495 50.673 1.79053 51.0888 0.531564C49.4256 0.335725 46.5704 0 42.4955 0C35.3159 0 33.126 0.531564 32.1835 4.11263L26.085 27.0538C25.1702 30.523 26.1404 31.5301 33.7081 31.5301C41.8302 31.5301 43.0222 30.411 43.9647 26.858L45.9883 19.2762H38.9195L36.896 26.858C36.5633 28.1449 36.0643 28.6765 34.5674 28.6765C33.1814 28.6765 32.8488 28.2288 33.2091 26.802L39.1136 4.61621C39.5294 3.10545 40.2778 2.71377 41.9688 2.71377C43.5211 2.71377 43.9924 3.18938 43.6043 4.67217L41.8579 11.1908H48.1505ZM82.4407 0.643472H215L214.224 3.52511H81.6922L82.4407 0.643472ZM74.7067 11.3867L76.564 4.42037C76.952 2.96557 77.3679 1.56671 77.6728 0.615495C76.0095 0.447633 73.1266 0.0839311 68.9963 0.0839311C61.7335 0.0839311 59.5436 0.615495 58.5734 4.25251L52.558 26.9419C51.6155 30.439 52.6135 31.4462 60.292 31.4462C68.4973 31.4462 69.717 30.2991 70.6595 26.7181L72.6831 19.0524H65.5312L63.4799 26.7181C63.1195 28.033 62.6483 28.5646 61.1236 28.5646C59.7099 28.5646 59.3773 28.1169 59.7653 26.6901L65.5866 4.7561C66.0025 3.21736 66.7509 2.82568 68.4696 2.82568C70.0219 2.82568 70.5209 3.30129 70.1051 4.78408L68.3587 11.3867H74.7067ZM75.4551 27.4735C74.6235 30.6349 75.566 31.4462 82.4684 31.4462C89.8143 31.4462 90.9232 30.495 91.7825 27.2776L95.8851 11.8063C96.7445 8.56098 95.2198 8.08537 89.0659 8.08537C82.9119 8.08537 80.4725 8.533 79.6409 11.6664L75.4551 27.4735ZM88.068 10.5194C89.1768 10.5194 89.6203 11.0789 89.3985 11.9742L85.3236 27.3056C84.991 28.5366 84.3257 28.8443 83.2446 28.8443C82.1912 28.8443 81.6368 28.4806 81.9417 27.3056L85.9889 12.0301C86.2384 11.1349 87.0423 10.5194 88.068 10.5194ZM119.669 10.6593C121.028 10.6593 121.277 11.1069 120.972 12.226L115.982 30.9986H123.134C123.023 30.439 122.996 30.1593 123.273 29.1241C124.382 24.9835 126.433 17.1779 127.847 11.8343C128.457 9.5122 127.486 8.08537 123.522 8.08537C120.057 8.08537 117.368 9.48422 117.368 9.48422C116.287 8.47705 115.179 8.08537 113.321 8.08537C110.743 8.08537 108.193 9.23243 108.193 9.23243L107.639 8.47705H101.596C101.596 9.00861 101.568 9.73601 101.291 10.7991L96.4118 29.1241C96.1346 30.1313 95.9406 30.495 95.6634 30.9986H103.065C102.954 30.439 102.926 30.1593 103.203 29.1241L107.722 12.142C107.971 11.1908 108.72 10.6593 109.69 10.6593C110.937 10.6593 111.215 11.023 110.91 12.142C108.47 21.3745 106.031 30.467 105.892 30.9986H113.044C112.933 30.439 112.905 30.1593 113.183 29.1241C114.292 24.9835 116.371 17.1499 117.673 12.198C117.951 11.1628 118.616 10.6593 119.669 10.6593ZM134.5 30.523C135.803 31.0825 137.521 31.2224 138.741 31.2224C142.816 31.2224 144.562 30.5789 145.394 27.4175L149.58 11.6664C150.411 8.50502 147.861 8.08537 144.756 8.08537C142.733 8.08537 141.402 8.56098 140.072 9.2604C140.072 9.2604 139.656 8.8967 139.268 8.47705H133.28C133.28 8.47705 133.169 10.6313 132.809 11.9462C130.175 21.878 128.096 29.7396 126.184 36.9577C126.017 37.6012 125.685 38.4405 125.491 38.972H132.726C132.642 38.3286 132.615 37.7131 132.809 36.9297C133.28 35.0552 134.084 32.0617 134.5 30.523ZM142.871 12.0301L138.769 27.4175C138.492 28.4806 137.771 29.1241 136.606 29.1241C135.664 29.1241 135.11 28.4806 135.415 27.3616L139.489 12.0301C139.794 10.939 140.515 10.4634 141.624 10.4634C142.65 10.4634 143.176 10.939 142.871 12.0301ZM160.141 30.1313L161.028 30.9986H166.323C166.295 30.1313 166.323 28.7324 166.6 27.6693C168.263 21.3745 169.788 15.6951 170.952 11.2747C171.701 8.42109 169.899 8.08537 163.994 8.08537C161.028 8.08537 155.928 8.70086 155.928 8.70086C155.928 8.70086 155.789 9.40029 155.706 9.76399L154.264 15.1915H159.254C159.476 14.3522 159.614 13.7927 159.836 12.9534C160.169 11.6944 161.278 10.4914 162.941 10.4914C163.994 10.4914 164.576 10.967 164.299 11.9742L163.44 15.1636C163.107 16.3946 162.359 16.9261 160.058 17.3178C158.949 17.4857 158.007 17.6815 156.87 17.7934C154.514 18.1011 152.573 19.2482 152.075 21.0387L150.162 28.2568C149.607 30.3551 151.853 31.4182 154.514 31.4182C156.842 31.3902 160.141 30.1313 160.141 30.1313ZM161.555 19.5H162.303C162.303 19.5 160.89 24.8436 160.308 26.9699C160.03 28.061 159.476 28.7604 158.173 28.7604C157.064 28.7604 156.704 27.8372 156.926 26.9979L158.284 21.934C158.672 20.4792 160.197 19.5 161.555 19.5ZM188.194 8.08537C185.616 8.08537 183.066 9.23243 183.066 9.23243L182.512 8.47705H176.469C176.469 9.00861 176.441 9.73601 176.164 10.7991C173.724 20.0316 173.724 19.9476 171.285 29.1241C171.008 30.1313 170.814 30.495 170.536 30.9986H177.938C177.827 30.439 177.799 30.1593 178.076 29.1241C178.936 25.9347 181.236 17.2618 182.595 12.142C182.817 11.3027 183.593 10.6033 184.563 10.6033C185.672 10.6033 186.06 11.0789 185.755 12.142C183.315 21.3745 180.876 30.467 180.738 30.9986H187.889C187.778 30.439 187.751 30.1593 188.028 29.1241L192.713 11.4426C193.267 9.40029 191.604 8.08537 188.194 8.08537Z" fill="white"/>
<path d="M196.566 11.1908C196.261 19.3601 195.707 31.5301 195.707 31.5301C195.707 31.5301 195.707 32.1736 195.124 33.8242C194.21 36.3142 192.602 36.0344 191.105 36.0344H138.048L137.244 38.8881H194.043C198.229 38.8881 199.615 37.2654 200.835 34.7195C202.443 31.3063 208.957 17.038 211.59 11.3027C212.45 9.37231 213.087 8.44907 213.087 8.44907H209.456C209.456 8.44907 209.428 9.09254 208.791 10.6033C207.571 13.5409 204.965 19.472 204.023 21.5423C203.302 23.165 202.249 23.6406 202.249 23.6406C202.249 23.6406 202.748 16.1148 202.969 11.2188C203.052 10.1557 203.191 8.44907 203.191 8.44907H196.289C196.344 8.47705 196.594 10.0997 196.566 11.1908ZM0.776173 36.0344H121.416L120.64 38.9161H0L0.776173 36.0344Z" fill="white"/>
</svg>
