<svg width="88" height="40" viewBox="0 0 88 40" fill="none" xmlns="http://www.w3.org/2000/svg">
<path d="M33.5172 0L29.6595 40H19.0928L16.6607 19.1111L14.2846 40H3.9695L0 0H8.1906L10.0635 27.5833C10.371 20.5833 11.2097 11.3333 12.3837 0H21.1614L22.9504 28.4722C23.3977 19.25 24.1804 9.75 25.1868 0H33.5172Z" fill="white"/>
<path d="M66.8666 0L63.0089 40H52.554C51.6036 34.0833 50.7649 27.0833 49.9822 19.1111L47.6061 40H37.1792L33.4612 0H41.6518L43.4409 27.5833C43.6925 21.1389 44.3914 11.9722 45.6773 0H54.3431L56.2719 28.4722C56.859 17.8333 57.6696 8.41667 58.648 0H66.8666ZM68.46 0V40H79.0267L83.6391 39.6111C84.5896 39.3611 85.4282 38.9722 86.0712 38.2222C86.8539 37.5833 87.3011 36.6389 87.6086 35.4722L88 28.1389V14.1944L87.6925 6.55556C87.6366 5.27778 87.0496 4.13889 86.3507 3.05556C85.568 2.02778 84.5057 1.27778 83.0241 0.75L78.216 0.111111L68.46 0ZM78.1881 7L78.831 7.19444L79.474 8.41667L79.6137 11.9167V27.3889L79.1665 32.3056L78.216 33L76.9301 33.1389V6.88889L78.1881 7Z" fill="white"/>
</svg>
