<svg width="150" height="33" viewBox="0 0 150 33" fill="none" xmlns="http://www.w3.org/2000/svg">
<path d="M148.501 2.76677V2.0625L145.953 1.96189L148.501 1.71037V1.0564L145.953 0.905488L148.501 0.704268V0L144.004 0.603659V1.15701L146.652 1.35823L144.004 1.66006V2.26372L148.501 2.76677ZM144.803 5.43293C144.753 5.33232 144.704 5.23171 144.704 5.1311C144.704 4.87957 144.953 4.67835 145.153 4.57774C145.353 4.52744 145.603 4.47713 145.803 4.47713L145.853 4.57774C146.003 4.77896 146.103 5.03049 146.302 5.1814C146.602 5.38262 146.952 5.48323 147.302 5.48323C147.851 5.48323 148.601 5.28201 148.601 4.57774C148.601 3.77287 147.202 3.72256 146.652 3.72256C145.903 3.72256 145.003 3.67226 144.404 4.1753C144.154 4.37652 143.954 4.67835 143.954 5.03049C143.954 5.1814 144.004 5.28201 144.004 5.43293H144.803ZM146.552 4.42683C146.602 4.42683 147.801 4.37652 147.801 4.57774C147.801 4.72866 147.302 4.77896 147.252 4.77896C147.002 4.77896 146.702 4.62805 146.552 4.42683ZM146.802 7.39482C147.552 7.39482 147.702 7.89787 147.702 8.09909H148.601V8.04878C148.601 7.74695 148.301 7.54573 148.051 7.44512C148.301 7.39482 148.451 7.2439 148.601 6.99238L148.051 6.53963C147.951 6.69055 147.851 6.69055 147.702 6.69055H144.004V7.39482H146.802ZM144.004 9.10518C144.004 9.55793 144.204 10.0107 144.604 10.2622C145.153 10.6143 145.903 10.6143 146.552 10.6143C147.002 10.6143 147.352 10.564 147.702 10.564C147.901 10.5137 148.101 10.4634 148.251 10.3628C148.401 10.2622 148.551 10.061 148.551 9.85976C148.551 9.75915 148.501 9.60823 148.401 9.55793H149.95V8.85366H144.004V9.10518ZM147.901 9.70884C147.901 9.75915 147.801 9.85976 147.702 9.85976C147.402 9.96037 146.902 9.91006 146.552 9.91006C146.203 9.91006 145.603 9.96037 145.253 9.80945C145.103 9.75915 145.053 9.70884 144.953 9.60823H147.901C147.901 9.60823 147.901 9.65854 147.901 9.70884ZM144.803 13.4817C144.753 13.4314 144.704 13.2805 144.704 13.1799C144.704 12.9284 144.953 12.7271 145.153 12.6265C145.353 12.5762 145.603 12.5259 145.803 12.5259L145.853 12.5762C146.003 12.7774 146.103 13.029 146.302 13.1799C146.602 13.3811 146.952 13.4817 147.302 13.4817C147.851 13.4817 148.601 13.2302 148.601 12.5762C148.601 11.7713 147.202 11.721 146.652 11.721C145.903 11.721 145.003 11.6707 144.404 12.2241C144.154 12.4253 143.954 12.7271 143.954 13.029C143.954 13.1799 144.004 13.3308 144.004 13.4314H144.803V13.4817ZM146.552 12.5259C146.602 12.5259 147.801 12.4756 147.801 12.6768C147.801 12.8277 147.302 12.8277 147.252 12.8277C147.002 12.8277 146.702 12.7271 146.552 12.5259ZM148.501 16.1982C148.501 15.7454 148.301 15.2927 147.901 15.0412C147.352 14.689 146.452 14.7393 145.803 14.7393C145.353 14.7393 144.004 14.689 144.004 15.3933C144.004 15.5945 144.204 15.7957 144.354 15.8963C144.154 15.9466 144.054 16.0976 143.954 16.2485L144.604 16.7012C144.803 16.5 145.053 16.5 145.253 16.5H148.501V16.1982ZM147.652 15.7454H144.753C144.704 15.6951 144.704 15.6951 144.704 15.5945C144.704 15.4939 144.853 15.4436 144.903 15.4436C145.203 15.3933 145.553 15.3933 145.853 15.3933C146.153 15.3933 146.552 15.343 146.902 15.3933C147.052 15.4436 147.202 15.4436 147.352 15.4436C147.452 15.5442 147.552 15.6448 147.652 15.7454ZM148.501 19.3171V19.0152C148.501 18.4619 148.301 18.1098 147.801 17.8582C147.302 17.5564 146.652 17.5564 146.103 17.5564C145.653 17.5564 144.054 17.5061 144.054 18.2607C144.054 18.4116 144.104 18.5122 144.254 18.6128H144.154C144.004 18.6128 143.854 18.5122 143.804 18.311C143.804 18.1601 143.854 18.0091 143.904 17.9085L143.354 17.6067C143.254 17.8079 143.155 18.0595 143.155 18.311C143.155 19.1662 143.854 19.3171 144.504 19.3171H148.501ZM147.702 18.6128H144.803L144.753 18.5625C144.753 18.3613 145.203 18.3613 145.303 18.3613C145.403 18.3613 146.003 18.311 146.153 18.311C146.552 18.311 146.952 18.3613 147.302 18.4116C147.502 18.4116 147.602 18.4619 147.702 18.6128ZM144.803 22.1845C144.753 22.0838 144.704 21.9832 144.704 21.8826C144.704 21.6311 144.953 21.4299 145.153 21.3293C145.353 21.279 145.603 21.2287 145.803 21.2287L145.853 21.279C146.003 21.4802 146.103 21.7317 146.302 21.8826C146.602 22.1341 146.952 22.1845 147.302 22.1845C147.851 22.1845 148.601 21.9329 148.601 21.279C148.601 20.4741 147.202 20.4238 146.652 20.4238C145.903 20.4238 145.003 20.4238 144.404 20.9268C144.154 21.128 143.954 21.4299 143.954 21.782C143.954 21.8826 144.004 22.0335 144.004 22.1845H144.803ZM146.552 21.1784C146.602 21.1784 147.801 21.128 147.801 21.3293C147.801 21.4802 147.302 21.4802 147.252 21.4802C147.002 21.4802 146.702 21.3796 146.552 21.1784ZM144.004 23.4421V24.1463H147.801C147.851 24.1966 147.851 24.1966 147.851 24.2973C147.851 24.4482 147.801 24.4985 147.652 24.4985H144.004V25.2027H147.652C148.051 25.2027 148.551 25.1524 148.551 24.6494C148.551 24.3979 148.401 24.1966 148.201 24.096C148.351 24.0457 148.501 23.9451 148.551 23.7942L148.001 23.3415C147.951 23.4421 147.901 23.4924 147.801 23.4924H144.004V23.4421ZM147.901 27.2149V27.5671H148.451V27.2149H149.251V27.0137C149.251 27.0137 148.501 26.6616 148.101 26.2088H147.901V26.5107H144.853C144.654 26.5107 144.454 26.561 144.254 26.6616C144.054 26.7622 143.954 26.9634 143.954 27.2149C143.954 27.3659 144.004 27.5168 144.104 27.6174H144.654C144.654 27.5671 144.604 27.5168 144.604 27.4665C144.604 27.2652 144.803 27.2652 144.953 27.2652H147.901V27.2149ZM144.454 30.4345C144.504 30.3841 144.554 30.3338 144.654 30.3338H148.451V29.6296H144.704C144.654 29.5793 144.654 29.529 144.654 29.4787C144.654 29.3277 144.704 29.2774 144.853 29.2774H148.501V28.5732H144.853C144.504 28.5732 143.954 28.6235 143.954 29.1265C143.954 29.378 144.104 29.529 144.254 29.6799C144.104 29.7302 144.054 29.7805 143.954 29.9817L144.454 30.4345ZM146.802 32.2454C147.552 32.2454 147.702 32.7485 147.702 32.9497H148.601V32.8994C148.601 32.5976 148.301 32.3963 148.051 32.2957C148.301 32.2454 148.451 32.0945 148.601 31.8933L148.051 31.4405C147.951 31.5412 147.851 31.6418 147.702 31.6418H144.004V32.346H146.802V32.2454ZM12.5916 20.625L14.0906 13.8338C14.4903 12.0229 14.7901 10.4131 14.8901 8.85366C15.04 10.4131 15.2398 12.1235 15.5896 13.8338L16.9887 20.625H12.5916ZM0 33H9.69354L10.8927 27.9192H18.5376L19.6869 33H29.3804L20.3364 0.0503049H9.64357L0 33ZM30.1299 33H41.9221C50.9161 33 56.1626 26.8125 56.1626 16.5C56.1626 6.1875 50.9161 0.10061 41.9221 0.10061H30.1299V33ZM39.5736 7.2439H41.5223C44.6203 7.2439 46.3691 10.5137 46.3691 16.5503C46.3691 22.436 44.5703 25.7561 41.6223 25.7561H39.5736V7.2439Z" fill="#57595C"/>
<path d="M53.964 33H62.8081V17.657C62.8081 15.8963 62.6582 14.2363 62.4084 12.6265L68.8541 26.1585L75.3498 12.6265C75.0999 14.2363 75 15.8963 75 17.657V33H83.7941V0.0503049H73.3011L70.4031 6.94207C69.7535 8.35061 69.3038 9.70884 68.954 10.8659C68.5543 9.55793 68.0546 8.25 67.555 6.99238L64.457 0.0503049H53.964V0.955793C57.9114 4.72866 59.4104 9.91006 59.6602 15.3933C59.9101 21.4802 58.4111 27.718 53.964 32.0442V33ZM84.2438 33H93.9873L95.1865 27.9192H102.831L103.981 33H113.724L104.63 0.0503049H93.9374L84.2438 33ZM96.8854 20.625L98.3344 13.8338C98.7342 12.0229 99.034 10.4131 99.1339 8.85366C99.2838 10.5137 99.5336 12.1738 99.8834 13.8338L101.282 20.625H96.8854ZM114.424 33H122.968V21.8323C122.968 18.9649 122.968 16.9024 122.868 15.6951L131.962 32.9497H140.956V0.0503049H132.412V11.0168C132.412 13.8338 132.462 15.8963 132.562 17.154L123.568 0.10061H114.424V33Z" fill="#57595C"/>
</svg>
