<svg width="145" height="36" viewBox="0 0 145 36" fill="none" xmlns="http://www.w3.org/2000/svg">
<path d="M35.2511 36L42.984 3.39231C43.3324 1.52308 45.074 0 47.0943 0H55.0363C56.0116 0 56.9869 0.415385 57.2656 1.31538L63.6749 18.4846L68.1335 0H71.8955L65.2076 28.0385H63.5356L54.897 4.98462C54.6183 4.15385 53.9913 3.6 53.225 3.6H48.0697C47.2337 3.6 46.6763 3.73846 46.4673 4.5L39.0131 36H35.2511Z" fill="#57595C"/>
<path d="M50.0203 7.96154L43.402 36H47.164L51.553 17.6538L57.5443 33.9231C57.8926 34.8231 58.7983 36 60.3309 36H68.1335C69.8752 36 71.6865 34.8231 72.1742 32.9538L79.9768 0H76.2148L69.0392 30.2538C68.7605 31.2231 68.4122 32.4 67.0189 32.4H62.2119C61.3759 32.4 60.5399 32.0538 60.0522 30.8769L51.6226 8.03077H50.0203V7.96154ZM106.659 24.4385H91.9594L94.8853 11.6308H109.724L110.56 8.03077H92.029L87.2917 28.1077H105.893L106.659 24.4385Z" fill="#57595C"/>
<path d="M104.778 32.4L103.872 36H81.5791C79.6981 36 77.3991 35.0308 78.1655 31.7769L84.7837 3.6C85.2714 1.45385 87.0131 0 89.5907 0H112.372L111.536 3.6H90.775C89.4514 3.6 88.4064 4.15385 88.0581 5.53846L82.3454 29.7C81.8578 31.5 82.6241 32.4 84.0871 32.4H104.778ZM108.819 36L116.482 3.6C116.97 1.45385 118.711 0 121.289 0H144.07L143.234 3.6H122.473C121.15 3.6 120.104 4.15385 119.756 5.53846L112.581 36H108.819Z" fill="#57595C"/>
<path d="M140.168 15.9231H125.469L126.444 11.5615H141.283L142.119 7.96154H123.588L120.801 19.5231H139.402L140.168 15.9231ZM120.732 36L122.821 27.2769H137.66L138.496 23.6769H119.965L116.97 36H120.732ZM9.54427 11.7692L11.0073 5.53846C11.3556 4.15385 12.4006 3.6 13.7242 3.6H38.3164L39.0827 0H12.4702C9.8926 0 8.15094 1.52308 7.66328 3.6L5.99129 10.6615C5.43396 13.0154 5.50363 14.6769 7.31495 15.9923L18.8795 24.3692H2.78665L1.95065 27.9692H24.3832L25.1495 24.6462L10.3106 13.9154C9.2656 13.2923 9.40493 12.5308 9.54427 11.7692Z" fill="#57595C"/>
<path d="M0.90566 32.4L0 36H27.4485C29.1901 36 30.9318 34.7538 31.3498 32.9538L33.3701 24.4385C33.7184 22.8462 33.6488 21.3231 32.3948 20.4231L20.0639 11.5615H36.3657L37.2714 7.96154H14.8389L13.9332 11.3538L28.5631 21.8769C29.1901 22.2923 29.8868 22.9846 29.5385 24.3L28.0755 30.6C27.7968 31.5 27.5181 32.4 26.1248 32.4H0.90566Z" fill="#57595C"/>
</svg>
