<svg width="216" height="38" viewBox="0 0 216 38" fill="none" xmlns="http://www.w3.org/2000/svg">
<path d="M52.65 9.45054H56.925C56.925 9.45054 58.875 9.22493 60.725 9.22493C64.1 9.22493 65.925 10.5285 65.925 13.0352V21.0569H61.8V13.8625C61.8 12.0576 61.2 11.481 59.525 11.481C57.9 11.481 57.15 12.3083 57.15 14.0379V36.2981H52.65V9.45054ZM36.6 9.47561H40.875C40.875 9.47561 42.825 9.25 44.675 9.25C48.05 9.25 49.875 10.5535 49.875 13.0603V21.0569H45.75V13.8625C45.75 12.0576 45.15 11.456 43.475 11.456C41.85 11.456 41.1 12.2832 41.1 14.0129V36.248H36.6V9.47561ZM28.275 21.2575V31.6856C28.475 33.7663 27.65 34.5183 25.475 34.5183C23.525 34.5183 22.875 33.9668 22.875 32.2873V25.9201C22.875 24.0149 22.95 23.7642 26.325 22.4858C26.85 22.2852 26.975 22.2351 27.525 21.9343C27.95 21.7087 28.275 21.2575 28.275 21.2575ZM27.6 36.624C33.325 36.4986 32.9 33.5156 32.95 33.0142C33.05 32.187 32.975 31.7859 32.975 31.3848V13.311C32.975 10.2026 31.075 9.02439 26.075 9.02439C20.875 9.02439 18.6 10.2778 18.6 13.1606V18.9262H22.875V13.311C22.875 11.6816 23.575 11.0799 25.475 11.0799C27.7 11.0799 28.45 11.6816 28.45 13.3611C28.45 13.3611 28.55 15.7927 28.35 17.5725C27.85 19.2019 27.025 19.6782 25.625 20.355L23.15 21.3577C22.225 21.6836 21.575 21.9092 21.1 22.1098C20.575 22.3103 20.05 22.561 19.575 22.8618C19.2 23.1125 18.9 23.4634 18.7 23.8645C18.425 24.5163 18.375 25.1179 18.375 26.5718V33.0393C18.375 35.4207 20.275 36.624 23.95 36.624C26.275 36.624 22.5 36.624 27.375 36.624H27.6ZM78 21.2575V31.6856C78.2 33.7663 77.375 34.5183 75.2 34.5183C73.25 34.5183 72.6 33.9668 72.6 32.2873V25.9201C72.6 24.0149 72.675 23.7642 76.05 22.4858C76.575 22.2852 76.7 22.2351 77.25 21.9343C77.675 21.7087 78 21.2575 78 21.2575ZM77.3 36.624C83.025 36.4986 82.6 33.5156 82.65 33.0142C82.75 32.187 82.675 31.7859 82.675 31.3848V13.311C82.675 10.2026 80.775 9.02439 75.775 9.02439C70.575 9.02439 68.3 10.2778 68.3 13.1606V18.9262H72.575V13.311C72.575 11.6816 73.275 11.0799 75.175 11.0799C77.4 11.0799 78.15 11.6816 78.15 13.3611C78.15 13.3611 78.25 15.7927 78.05 17.5725C77.55 19.2019 76.725 19.6782 75.325 20.355L72.85 21.3577C71.925 21.6836 71.275 21.9092 70.8 22.1098C70.275 22.3103 69.75 22.561 69.275 22.8618C68.9 23.1125 68.6 23.4634 68.4 23.8645C68.125 24.5163 68.075 25.1179 68.075 26.5718V33.0393C68.075 35.4207 69.975 36.624 73.675 36.624C76 36.624 72.225 36.624 77.1 36.624H77.3ZM150.475 21.2825V31.7107C150.675 33.7913 149.85 34.5434 147.675 34.5434C145.725 34.5434 145.075 33.9919 145.075 32.3123V25.9451C145.075 24.04 145.15 23.7893 148.525 22.5108C148.95 22.3604 149.35 22.1599 149.725 21.9343C150.15 21.7337 150.475 21.2825 150.475 21.2825ZM149.8 36.6741C155.525 36.5488 155.1 33.5406 155.15 33.0644C155.25 32.2371 155.175 31.836 155.175 31.435V13.336C155.175 10.2276 153.275 9.04946 148.275 9.04946C143.075 9.04946 140.8 10.3028 140.8 13.1856V18.9512H145.075V13.336C145.075 11.7066 145.775 11.105 147.675 11.105C149.9 11.105 150.65 11.7066 150.65 13.3862C150.65 13.3862 150.75 15.7927 150.55 17.5976C150.05 19.227 149.225 19.7033 147.825 20.3801L145.35 21.3828C144.425 21.7087 143.775 21.9343 143.3 22.1348C142.775 22.3354 142.25 22.586 141.775 22.8869C141.4 23.1375 141.1 23.4885 140.9 23.8896C140.625 24.5413 140.575 25.143 140.575 26.5969V33.0894C140.575 35.4709 142.475 36.6741 146.15 36.6741C148.475 36.6741 144.7 36.6741 149.575 36.6741H149.8ZM4.675 33.9919V20.7561C4.675 20.7561 4.725 19.8787 5.675 19.2771C6.2 18.9512 6.675 18.7256 7.2 18.6003C9.625 18.0237 10.7 18.6755 10.7 20.8814V31.435C10.7 33.3401 10.1 33.9919 8.475 33.9919H4.675ZM0 36.4485H8.4C13.775 36.4485 15.35 35.2954 15.35 31.3848V21.3327C15.35 18.8259 14.65 18.1741 11.4 17.372C12.275 17.1463 12.475 17.0962 12.8 16.9959C13.4 16.7703 13.95 16.4946 14.325 16.2439C15.025 15.6924 15.35 14.8902 15.35 13.4112V5.23916C15.35 1.37873 13.775 0.175474 8.4 0.175474H0V36.4485ZM4.675 17.3218V2.28117H8.475C10.1 2.28117 10.7 2.93293 10.7 4.83808V13.3862C10.6 14.5894 10.225 14.6897 9.725 15.0406C9.225 15.3665 7.6 15.893 6.975 16.1687C6.325 16.4444 4.675 17.3218 4.675 17.3218ZM100.875 32.1369C100.875 35.3957 98.825 36.649 93.45 36.649C88.125 36.649 86.075 35.3957 86.075 32.1369V13.5366C86.075 10.3279 88.125 9.02439 93.45 9.02439C98.825 9.02439 100.875 10.3279 100.875 13.5366V19.7283H96.375V13.4363C96.375 11.7568 95.55 11.0298 93.45 11.0298C91.4 11.0298 90.575 11.7317 90.575 13.4363V32.3123C90.575 33.9919 91.4 34.6436 93.45 34.6436C95.575 34.6436 96.375 33.9919 96.375 32.3123V24.5915H100.875V32.1369ZM108.975 9.47561V32.0867C108.975 33.7161 109.8 34.3679 111.75 34.3679C113.875 34.3679 114.625 33.6159 114.625 31.3848V9.47561H119.125V36.2981H114.85C114.85 36.2981 112.45 36.6741 110.175 36.6741C106.275 36.6741 104.475 35.4207 104.475 32.6382V9.47561H108.975ZM132.775 14.1382V31.5352C132.775 33.666 131.9 34.5935 129.85 34.5935C128 34.5935 127.2 33.8415 127.2 32.187V13.6369C127.2 12.0075 128 11.2554 129.9 11.2554C132.025 11.2554 132.775 12.0325 132.775 14.1382ZM133.05 36.273H137.275V0H132.775V10.2276C131.475 9.40041 130.225 9.14973 128.425 9.14973C124.575 9.14973 122.675 10.5034 122.675 13.1856V32.1619C122.675 35.145 124.625 36.6741 128.525 36.6741C130.625 36.6491 133.05 36.273 133.05 36.273ZM190.125 2.68225H184.375V0.401084H200.525V2.68225H194.775V36.6741H190.1V2.68225H190.125ZM210.075 0.401084H203.85L198.375 36.6741H202.75L203.675 29.1789L203.75 28.6023C203.95 27.5996 204.65 27.1734 207.15 26.1206L209.4 25.2182L209.575 26.4966L211.2 36.6741H216L210.075 0.401084ZM206.475 23.7141L204.25 24.6165L204.3 24.2906L206.525 6.71816L209 22.4858C208.475 22.8367 207.7 23.2127 206.475 23.7141ZM180.8 0.401084H174.575L169.1 36.6741H173.5L174.425 29.1789L174.5 28.6023C174.7 27.5996 175.4 27.1734 177.9 26.1206L180.15 25.2182L180.325 26.4966L181.95 36.6741H186.725L180.8 0.401084ZM177.2 23.7141L174.975 24.6165L175.025 24.2906L177.25 6.71816L179.725 22.4858C179.2 22.8367 178.425 23.2127 177.2 23.7141ZM157.875 33.4153C157.875 31.3598 159.55 29.8306 161.5 29.8306C163.45 29.8306 165.125 31.3347 165.125 33.4153C165.125 35.4959 163.45 37.0251 161.5 37.0251C159.525 37 157.875 35.4959 157.875 33.4153ZM161.5 36.3984C163.125 36.3984 164.4 35.1199 164.4 33.3902C164.4 31.6856 163.125 30.4072 161.5 30.4072C159.875 30.4072 158.575 31.6856 158.575 33.3902C158.6 35.145 159.875 36.3984 161.5 36.3984ZM160.75 35.4959H160.125V31.3598H161.7C162.675 31.3598 163.15 31.7358 163.15 32.5379C163.15 33.29 162.675 33.5908 162.075 33.666L163.25 35.4959H162.55L161.45 33.6911H160.75V35.4959ZM161.5 33.1646C162.025 33.1646 162.5 33.1145 162.5 32.4878C162.5 31.9865 162.025 31.8862 161.6 31.8862H160.75V33.1646H161.5Z" fill="#57595C"/>
</svg>
