<svg width="54" height="58" viewBox="0 0 54 58" fill="none" xmlns="http://www.w3.org/2000/svg">
<path d="M8.65837 30.2381L1.94087 28.3986L8.65187 26.6577L8.65188 26.6577L8.65668 26.6564C17.4928 24.27 24.2583 16.8644 26.0697 7.59162L26.0702 7.58889L27.0041 2.66296L27.9292 7.46256C27.9293 7.46335 27.9294 7.46414 27.9296 7.46492C29.621 16.737 36.3858 24.2706 45.3465 26.5344L52.1068 28.3856L45.3433 30.2376C45.3431 30.2377 45.343 30.2377 45.3428 30.2378C36.503 32.6254 29.7382 40.1581 28.0475 49.5546C28.0475 49.5549 28.0474 49.5552 28.0474 49.5555L27 55.2404L25.9526 49.5555C25.9526 49.5552 25.9525 49.5549 25.9525 49.5546C24.2614 40.156 17.6141 32.7497 8.66133 30.2389L8.65837 30.2381Z" fill="#9AECB1" stroke="#57595C"/>
</svg>
