<svg width="35" height="38" viewBox="0 0 35 38" fill="none" xmlns="http://www.w3.org/2000/svg">
<path d="M5.6597 19.6452L1.92145 18.6105L5.65314 17.632L5.65315 17.632L5.658 17.6307C11.4544 16.0482 15.8843 11.1406 17.0699 5.00589L17.0704 5.00318L17.5041 2.69081L17.929 4.91926C17.9291 4.92011 17.9293 4.92096 17.9295 4.92181C19.0368 11.0556 23.4658 16.0488 29.3452 17.551L33.1257 18.5975L29.342 19.6448C29.3417 19.6448 29.3415 19.6449 29.3412 19.645C23.5412 21.2288 19.1122 26.2211 18.0057 32.437C18.0056 32.4373 18.0056 32.4376 18.0055 32.4378L17.5 35.2115L16.9945 32.4378C16.9944 32.4376 16.9944 32.4373 16.9943 32.437C15.8874 26.2188 11.5341 21.3105 5.66269 19.6461L5.6597 19.6452Z" fill="#C8FA3C" stroke="#57595C"/>
</svg>
