<svg width="92" height="92" viewBox="0 0 92 92" fill="none" xmlns="http://www.w3.org/2000/svg">
<path d="M46.7839 64.678C52.947 64.678 57.9612 59.601 57.9612 53.3603C57.9612 47.1197 52.947 42.0427 46.7839 42.0427C40.6208 42.0427 35.6073 47.1197 35.6073 53.3603C35.6073 59.601 40.6208 64.678 46.7839 64.678ZM46.7839 44.0143C51.8735 44.0143 56.014 48.207 56.014 53.3603C56.014 58.5137 51.8735 62.7063 46.7839 62.7063C41.6947 62.7063 37.5545 58.5137 37.5545 53.3603C37.5545 48.207 41.6947 44.0143 46.7839 44.0143Z" fill="#0A0E1A"/>
<path d="M16.91 86.4173C20.6526 86.4173 24.0952 85.0987 26.815 82.9003C32.4125 86.7487 39.1629 89 46.4231 89C53.7186 89 60.4979 86.725 66.1113 82.8427C68.8425 85.076 72.3135 86.4173 76.0896 86.4173C84.8625 86.4173 92 79.19 92 70.3067C92 63.3013 87.5599 57.329 81.381 55.1153C81.4031 54.6 81.4199 54.0833 81.4199 53.5627C81.4199 39.858 73.6925 27.9543 62.4224 22.0613C62.6024 21.0884 62.6935 20.1008 62.6946 19.111C62.6946 10.2277 55.5571 3 46.7843 3C38.0114 3 30.8739 10.2273 30.8739 19.111C30.8739 19.9987 30.9483 20.869 31.0856 21.718C19.456 27.4847 11.4271 39.5907 11.4271 53.5627C11.4271 54.101 11.4438 54.6353 11.4672 55.1677C5.36702 57.4237 1 63.3583 1 70.3067C0.999342 79.19 8.13682 86.4173 16.91 86.4173ZM16.91 56.1673C24.6094 56.1673 30.8732 62.5103 30.8732 70.3067C30.8732 78.103 24.6094 84.4457 16.91 84.4457C9.21063 84.4457 2.94616 78.103 2.94616 70.3067C2.94616 62.5103 9.21063 56.1673 16.91 56.1673ZM76.0893 84.4457C68.3899 84.4457 62.1254 78.103 62.1254 70.3067C62.1254 62.5103 68.3899 56.1673 76.0893 56.1673C83.7887 56.1673 90.0525 62.5103 90.0525 70.3067C90.0525 78.103 83.7887 84.4457 76.0893 84.4457ZM32.8204 19.111C32.8204 11.3147 39.0842 4.97167 46.7836 4.97167C54.483 4.97167 60.7468 11.3147 60.7468 19.111C60.7468 26.9073 54.483 33.25 46.7836 33.25C39.0842 33.25 32.8204 26.9073 32.8204 19.111ZM13.3736 53.5627C13.3736 40.5313 20.7721 29.224 31.5349 23.6993C33.4913 30.3537 39.5855 35.2217 46.7839 35.2217C53.8654 35.2217 59.8787 30.5113 61.9355 24.0233C72.3599 29.6593 79.4727 40.7837 79.4727 53.5627C79.4727 53.8973 79.4576 54.228 79.4477 54.5603C78.3443 54.3186 77.2186 54.1964 76.0896 54.196C67.3164 54.196 60.1789 61.4233 60.1789 70.307C60.1789 74.638 61.8789 78.5727 64.6345 81.4707C59.409 84.979 53.1494 87.0287 46.4235 87.0287C39.738 87.0287 33.514 85.002 28.3075 81.5323C31.0977 78.6287 32.821 74.6687 32.821 70.307C32.821 61.4237 25.6836 54.196 16.9107 54.196C15.7294 54.1969 14.5519 54.3311 13.3999 54.596C13.389 54.252 13.3736 53.909 13.3736 53.5627Z" fill="#0A0E1A"/>
</svg>
