<svg width="139" height="103" viewBox="0 0 139 103" fill="none" xmlns="http://www.w3.org/2000/svg">
<path d="M135.661 0.524033L135.662 0.523964C138.527 0.161125 139.652 4.16384 136.997 5.34496L136.997 5.34515C122.681 11.7307 115.263 19.9085 114.301 28.1607L114.76 28.2142L114.301 28.1608C113.942 31.2486 114.597 34.1542 115.88 36.4234C117.159 38.687 119.085 40.3513 121.286 40.8825L121.286 40.8825C126.382 42.1105 130.682 45.9185 133.717 51.1441C136.751 56.3667 138.495 62.9647 138.495 69.6777C138.495 78.3831 135.046 86.7317 128.906 92.887C122.767 99.0422 114.44 102.5 105.757 102.5C96.254 102.5 88.0836 98.5711 82.2813 91.7309C76.4748 84.8857 73.0197 75.0987 73.0193 63.3664C73.1391 29.3049 98.6648 5.16561 135.661 0.524033ZM63.142 0.524033L63.1426 0.523964C66.0078 0.161125 67.1325 4.16384 64.478 5.34496L64.4775 5.34515C50.1616 11.7307 42.7439 19.9085 41.7822 28.1607L42.2413 28.2142L41.7821 28.1608C41.4226 31.2486 42.0778 34.1542 43.3604 36.4234C44.6398 38.687 46.5659 40.3513 48.7668 40.8825L48.7669 40.8825C53.8624 42.1105 58.1622 45.9185 61.1978 51.1441C64.2316 56.3667 65.9761 62.9647 65.9761 69.6777C65.9761 78.3831 62.5266 86.7317 56.3869 92.887C50.2472 99.0422 41.9203 102.5 33.238 102.5C23.7346 102.5 15.5643 98.5711 9.76198 91.7309C3.9554 84.8857 0.500351 75.0987 0.5 63.3664C0.619781 29.3049 26.1454 5.16561 63.142 0.524033Z" stroke="#57595C"/>
</svg>
