<svg width="92" height="92" viewBox="0 0 92 92" fill="none" xmlns="http://www.w3.org/2000/svg">
<path d="M11.7454 56.1591C13.2849 56.1591 14.7366 55.7747 16.0325 55.1094L23.5007 67.7521C21.1531 69.6088 19.6273 72.5388 19.6273 75.8407C19.6273 81.4425 23.9992 86 29.3727 86C34.4316 86 38.5999 81.9593 39.0707 76.8119H54.9293C55.4001 81.9593 59.5684 86 64.6273 86C70.0008 86 74.3727 81.4425 74.3727 75.8407C74.3727 72.5388 72.8469 69.6088 70.4993 67.7521L77.9675 55.1094C79.2631 55.7747 80.7151 56.1591 82.2546 56.1591C87.6281 56.1591 92 51.6019 92 46.0002C92 40.3985 87.6281 35.8409 82.2546 35.8409C80.7151 35.8409 79.2634 36.2253 77.9675 36.8906L70.4993 24.2479C72.8469 22.3912 74.3727 19.4612 74.3727 16.1593C74.3727 10.5575 70.0008 6 64.6273 6C59.5684 6 55.4001 10.0407 54.9293 15.1881H39.0707C38.5999 10.041 34.4316 6.00035 29.3727 6.00035C23.9992 6.00035 19.6273 10.5579 19.6273 16.1596C19.6273 19.4615 21.1531 22.3916 23.5007 24.2483L16.0325 36.8906C14.7369 36.2249 13.2849 35.8409 11.7454 35.8409C6.37188 35.8409 2 40.3985 2 46.0002C2 51.6019 6.37188 56.1591 11.7454 56.1591ZM19.6273 46.0002C19.6273 50.5309 16.0916 54.2168 11.7457 54.2168C7.3992 54.2168 3.86346 50.5309 3.86346 46.0002C3.86346 41.4694 7.3992 37.7832 11.7457 37.7832C16.0912 37.7832 19.6273 41.4694 19.6273 46.0002ZM17.6174 54.0885C19.7317 52.4161 21.1778 49.8739 21.4431 46.9713H37.302C37.5676 49.8739 39.0136 52.4161 41.128 54.0885L33.6595 66.7312C32.3639 66.0658 30.9118 65.6815 29.3724 65.6815C27.8329 65.6815 26.3811 66.0658 25.0852 66.7312L17.6174 54.0885ZM29.3727 7.9426C33.7192 7.9426 37.255 11.6288 37.255 16.1596C37.255 20.6904 33.7192 24.3763 29.3727 24.3763C25.0262 24.3763 21.4904 20.6904 21.4904 16.1596C21.4904 11.6288 25.0262 7.9426 29.3727 7.9426ZM39.0707 17.1307H54.9293C55.1949 20.0333 56.6409 22.5756 58.7553 24.2479L51.2871 36.8906C49.9915 36.2249 48.5395 35.8409 47 35.8409C45.4605 35.8409 44.0088 36.2253 42.7129 36.8906L35.2443 24.2479C37.3591 22.5756 38.8054 20.0337 39.0707 17.1307ZM56.7451 16.1596C56.7451 11.6288 60.2808 7.9426 64.6273 7.9426C68.9738 7.9426 72.5096 11.6288 72.5096 16.1596C72.5096 20.6904 68.9738 24.3763 64.6273 24.3763C60.2811 24.3763 56.7451 20.6904 56.7451 16.1596ZM64.6273 84.0577C60.2808 84.0577 56.7451 80.3715 56.7451 75.8407C56.7451 71.31 60.2808 67.6241 64.6273 67.6241C68.9738 67.6241 72.5096 71.31 72.5096 75.8407C72.5096 80.3715 68.9738 84.0577 64.6273 84.0577ZM54.9293 74.8696H39.0707C38.8051 71.967 37.3591 69.4248 35.2447 67.7524L42.7132 55.1097C44.0088 55.7751 45.4609 56.1594 47.0003 56.1594C48.5398 56.1594 49.9915 55.7751 51.2871 55.1097L58.7553 67.7524C56.6409 69.4248 55.1946 71.9667 54.9293 74.8696ZM37.255 75.8407C37.255 80.3715 33.7192 84.0577 29.3727 84.0577C25.0262 84.0577 21.4904 80.3715 21.4904 75.8407C21.4904 71.31 25.0262 67.6241 29.3727 67.6241C33.7192 67.6241 37.255 71.31 37.255 75.8407ZM39.1181 46.0002C39.1181 41.4694 42.6538 37.7832 47.0003 37.7832C51.3462 37.7832 54.8819 41.4694 54.8819 46.0002C54.8819 50.5309 51.3462 54.2168 47.0003 54.2168C42.6538 54.2168 39.1181 50.5309 39.1181 46.0002ZM68.9144 66.7312C67.6189 66.0658 66.1668 65.6815 64.6273 65.6815C63.0878 65.6815 61.6361 66.0658 60.3405 66.7312L52.8723 54.0885C54.9867 52.4161 56.4324 49.8739 56.698 46.9713H72.5569C72.8225 49.8739 74.2683 52.4161 76.3826 54.0885L68.9144 66.7312ZM74.3727 46.0002C74.3727 41.4694 77.9084 37.7832 82.2543 37.7832C86.6008 37.7832 90.1365 41.4694 90.1365 46.0002C90.1365 50.5309 86.6008 54.2168 82.2543 54.2168C77.9088 54.2168 74.3727 50.5309 74.3727 46.0002ZM76.3826 37.9115C74.2683 39.5839 72.8225 42.1261 72.5569 45.029H56.698C56.4324 42.1264 54.9867 39.5842 52.8723 37.9115L60.3405 25.2688C61.6361 25.9342 63.0882 26.3185 64.6273 26.3185C66.1668 26.3185 67.6185 25.9342 68.9144 25.2688L76.3826 37.9115ZM25.0856 25.2691C26.3811 25.9345 27.8332 26.3189 29.3727 26.3189C30.9122 26.3189 32.3639 25.9345 33.6598 25.2691L41.1283 37.9119C39.014 39.5842 37.5676 42.1268 37.3023 45.0294H21.4431C21.1775 42.1268 19.7317 39.5845 17.6174 37.9119L25.0856 25.2691Z" fill="#0A0E1A"/>
</svg>
