<svg width="551" height="544" viewBox="0 0 551 544" fill="none" xmlns="http://www.w3.org/2000/svg">
<path d="M72.7874 173.658C74.905 169.727 77.0225 165.645 79.1401 161.714C76.115 167.459 75.9637 174.716 79.4426 181.368L239.168 487.374C245.067 498.562 258.983 504.005 270.478 499.318L428.388 435.516C433.077 433.551 436.556 430.376 438.674 426.445C436.556 430.376 434.439 434.458 432.321 438.389C430.204 442.32 426.725 445.646 422.036 447.46L263.974 511.262C252.479 515.949 238.563 510.506 232.664 499.318L72.9387 193.161C69.4598 186.66 69.611 179.403 72.7874 173.658Z" fill="#277AC1"/>
<path d="M438.674 426.445C436.556 430.376 434.439 434.458 432.321 438.389C430.204 442.32 426.725 445.646 422.036 447.46L263.974 511.262C252.479 515.949 238.563 510.506 232.664 499.318L72.9386 193.161C69.4597 186.509 69.611 179.252 72.6361 173.506C74.7536 169.575 76.8712 165.493 78.9888 161.562" stroke="#10318B" stroke-linecap="round" stroke-linejoin="round"/>
<path d="M89.4252 152.642C77.9298 157.329 73.5434 170.18 79.291 181.368L239.168 487.374C245.067 498.562 258.982 504.005 270.478 499.318L428.388 435.517C439.884 430.83 444.27 417.979 438.522 406.791L278.797 100.785C272.898 89.5967 258.982 84.1539 247.487 88.8408L89.4252 152.642Z" fill="#66B9FF" stroke="#10318B" stroke-linecap="round" stroke-linejoin="round"/>
<path d="M201.505 129.964L170.044 142.664C168.532 143.269 166.566 142.513 165.809 141.001C165.053 139.489 165.658 137.826 167.171 137.07L198.632 124.37C200.144 123.765 202.111 124.521 202.867 126.033C203.623 127.696 203.018 129.359 201.505 129.964Z" fill="#277AC1" stroke="#10318B" stroke-linecap="round" stroke-linejoin="round"/>
<path d="M155.07 148.711C153.557 149.316 151.591 148.56 150.835 147.048C150.079 145.536 150.684 143.873 152.196 143.117C153.709 142.513 155.675 143.269 156.431 144.781C157.188 146.444 156.583 148.107 155.07 148.711Z" fill="#277AC1" stroke="#10318B" stroke-linecap="round" stroke-linejoin="round"/>
<path d="M96.3831 165.796L121.189 155.817C122.702 155.213 124.668 155.061 126.332 157.027C131.474 162.923 140.701 165.947 148.264 162.923L218.144 134.651C225.706 131.627 229.034 123.463 227.219 116.206C226.614 113.938 227.975 112.729 229.488 111.973L254.294 101.994C258.226 100.331 263.218 102.296 265.184 106.227L425.061 412.233C427.027 416.164 425.515 420.7 421.582 422.212L263.52 486.165C259.588 487.828 254.596 485.862 252.63 481.932L92.9042 175.774C90.7867 171.994 92.4505 167.459 96.3831 165.796Z" fill="white"/>
<path d="M96.3831 165.796L121.189 155.817C122.702 155.213 124.668 155.061 126.332 157.027C131.474 162.923 140.701 165.947 148.264 162.923L218.144 134.651C225.706 131.627 229.034 123.463 227.219 116.206C226.614 113.938 227.975 112.729 229.488 111.973L254.294 101.994C258.226 100.331 263.218 102.296 265.184 106.227L425.061 412.233C427.027 416.164 425.515 420.7 421.582 422.212L263.52 486.165C259.588 487.828 254.596 485.862 252.63 481.932L92.9042 175.774C90.7866 171.994 92.4505 167.459 96.3831 165.796Z" stroke="#10318B" stroke-linecap="round" stroke-linejoin="round"/>
<path d="M326.744 115.903C332.492 108.042 340.508 102.599 350.642 100.633C382.557 94.1322 422.791 124.219 440.488 167.761C458.185 211.303 446.538 251.822 414.623 258.323C413.716 258.474 412.808 258.626 412.052 258.777C309.501 277.978 273.956 188.323 270.78 192.707C289.233 167.005 307.988 141.454 326.744 115.903Z" fill="#99CCF6"/>
<path d="M400.255 191.951C410.843 217.956 410.843 242.902 402.372 260.138C307.081 272.233 273.654 188.323 270.629 192.556C287.418 169.727 304.056 146.897 320.846 124.068C350.643 124.975 384.373 153.096 400.255 191.951Z" fill="#82BEF0"/>
<path d="M207.858 236.099C209.521 230.958 212.093 227.027 213.908 224.759C214.815 223.55 216.177 222.038 217.235 220.98C218.294 220.073 219.656 218.863 220.866 218.107C221.471 217.654 222.378 217.049 223.134 216.595C229.79 212.664 236.294 208.733 242.949 204.802C234.327 215.99 230.243 231.563 238.865 253.183C248.999 278.28 268.662 291.887 286.51 291.434C289.082 290.98 291.804 291.585 293.922 290.224C287.267 294.155 280.763 298.086 274.107 302.017C272.141 303.075 268.814 305.041 263.368 306.099C256.259 307.611 250.36 306.401 248.394 305.948C244.159 305.041 239.319 303.226 235.235 300.807C231.907 298.842 230.243 297.481 229.941 297.179C228.428 295.969 226.462 294.306 225.101 293.097C224.344 292.492 223.437 291.434 222.681 290.678C221.471 289.317 221.319 289.317 218.445 285.688C217.84 284.933 217.084 283.723 216.479 282.967C215.42 281.455 214.21 279.49 213 277.222C213 277.222 211.488 274.501 209.975 270.872C208.765 267.697 208.009 265.429 207.706 264.22C205.891 257.719 205.589 252.276 205.74 250.159C205.891 245.472 206.345 241.239 207.858 236.099Z" fill="#FFD06C" stroke="#10318B" stroke-linecap="round" stroke-linejoin="round"/>
<path d="M316.157 249.857C338.997 232.772 361.685 215.537 384.524 198.452C378.323 189.079 369.55 173.657 366.676 168.668C340.812 180.612 314.796 192.556 288.931 204.5C281.217 208.128 278.797 219.316 283.637 231.412C289.082 244.867 301.485 254.09 311.317 252.124C313.132 251.671 314.796 250.915 316.157 249.857Z" fill="#FFD06C" stroke="#10318B" stroke-linecap="round" stroke-linejoin="round"/>
<path d="M285.452 293.097C321.451 287.956 357.601 282.816 393.6 277.524C359.416 282.362 317.669 250.31 298.914 204.349C285.755 171.995 287.57 141.152 301.183 122.858C279.553 152.189 257.772 181.519 236.143 210.699C228.883 220.526 227.975 236.854 234.933 254.09C245.067 278.734 267.301 295.667 285.452 293.097Z" fill="#66B9FF" stroke="#10318B" stroke-linecap="round" stroke-linejoin="round"/>
<path d="M368.642 168.064C375.146 166.703 383.163 172.75 386.642 181.519C390.121 190.288 387.852 198.452 381.499 199.662C374.995 201.023 366.979 194.975 363.5 186.206C359.87 177.437 362.138 169.424 368.642 168.064Z" fill="#FFD06C" stroke="#10318B" stroke-linecap="round" stroke-linejoin="round"/>
<path d="M415.078 281.153C422.036 277.071 428.993 272.838 435.951 268.755C431.565 271.477 425.212 271.477 419.616 272.535C381.046 280.246 337.03 245.321 315.703 192.859C301.334 149.316 302.09 106.076 329.014 90.0503C322.056 94.1324 315.098 98.3657 308.14 102.448C281.217 118.474 273.503 160.807 291.805 205.861C313.132 258.323 361.534 294.609 400.104 286.898C405.7 285.84 410.692 283.874 415.078 281.153Z" fill="#FFD06C" stroke="#10318B" stroke-linecap="round" stroke-linejoin="round"/>
<path d="M343.987 84.305C305.417 92.0157 291.502 141.001 312.677 193.463C334.004 245.926 382.406 282.211 420.976 274.501C459.546 266.79 473.462 217.805 452.286 165.342C431.11 112.88 382.557 76.5944 343.987 84.305ZM350.642 100.633C382.557 94.1323 422.791 124.219 440.488 167.761C458.185 211.304 446.538 251.822 414.623 258.323C382.709 264.824 342.475 234.738 324.778 191.195C307.081 147.502 318.576 106.983 350.642 100.633Z" fill="#FFD06C" stroke="#10318B" stroke-linecap="round" stroke-linejoin="round"/>
<path d="M472.554 180.007L494.94 189.532C500.234 191.8 506.284 189.381 508.553 184.089C510.822 178.798 508.402 172.75 503.108 170.482C501.595 169.878 499.932 169.575 498.419 169.727L474.067 171.087C471.496 171.238 469.529 173.355 469.681 175.925C469.832 177.891 471.042 179.403 472.554 180.007Z" fill="#FFD06C" stroke="#10318B" stroke-linecap="round" stroke-linejoin="round"/>
<path d="M459.698 138.582L476.941 121.346C481.025 117.264 481.025 110.763 476.941 106.832C472.857 102.75 466.353 102.75 462.42 106.832C461.21 108.042 460.454 109.402 460 110.914L452.286 133.895C451.53 136.314 452.74 138.884 455.16 139.791C456.673 140.245 458.488 139.791 459.698 138.582Z" fill="#FFD06C" stroke="#10318B" stroke-linecap="round" stroke-linejoin="round"/>
<path d="M473.311 157.934L501.898 153.096C508.553 151.886 513.091 145.537 512.032 138.884C510.822 132.232 504.469 127.696 497.814 128.755C495.848 129.057 494.033 129.813 492.672 130.871L469.227 147.956C466.807 149.77 466.202 153.247 468.017 155.666C469.227 157.48 471.345 158.236 473.311 157.934Z" fill="#FFD06C" stroke="#10318B" stroke-linecap="round" stroke-linejoin="round"/>
<path d="M291.199 295.818L314.341 303.68L319.182 300.505L295.888 292.643L291.199 295.818Z" fill="#BECFDE" stroke="#10318B" stroke-linecap="round" stroke-linejoin="round"/>
<path d="M295.888 292.643L319.182 300.505L316.157 278.885L293.014 271.174L295.888 292.643Z" fill="#ABC5DB" stroke="#10318B" stroke-linecap="round" stroke-linejoin="round"/>
<path d="M314.342 303.68L324.476 332.708L325.837 343.442L302.544 335.732L301.182 324.997L291.199 295.818L314.342 303.68Z" fill="#ABC5DB" stroke="#10318B" stroke-linecap="round" stroke-linejoin="round"/>
<path d="M290.594 343.745L313.888 351.607L325.837 343.443L302.544 335.732L290.594 343.745Z" fill="#BECFDE" stroke="#10318B" stroke-linecap="round" stroke-linejoin="round"/>
<path d="M268.663 287.503L271.537 308.972L289.233 333.766L290.595 343.745L302.544 335.732L301.183 324.998L291.2 295.818L295.889 292.643L293.015 271.174L268.663 287.503Z" fill="#CEDFED" stroke="#10318B" stroke-linecap="round" stroke-linejoin="round"/>
<path d="M321.148 41.0649L309.804 69.942L333.551 42.728L321.148 41.0649Z" fill="#277AC1"/>
<path d="M297.25 36.6806L309.804 69.9421L321.148 41.065L351.399 1L297.25 36.6806Z" fill="#66B9FF"/>
<path d="M351.399 1L321.148 41.065L333.551 42.7281L357.903 46.0543L351.399 1Z" fill="white"/>
<path d="M271.385 32.7496L297.25 36.6806L351.399 1L271.385 32.7496Z" fill="white"/>
<path d="M351.399 1L321.148 41.065L309.804 69.9421L297.25 36.6806L271.385 32.7496L351.399 1Z" stroke="#10318B" stroke-linecap="round" stroke-linejoin="round"/>
<path d="M297.25 36.6806L351.399 1L357.903 46.0543L333.551 42.7281L321.148 41.065" stroke="#10318B" stroke-linecap="round" stroke-linejoin="round"/>
<path d="M309.804 69.942L333.551 42.728" stroke="#10318B" stroke-linecap="round" stroke-linejoin="round"/>
<path d="M160.515 512.623L184.867 531.824L150.683 520.333L160.515 512.623Z" fill="#277AC1"/>
<path d="M178.968 496.899L184.867 531.824L160.515 512.623L114.08 493.422L178.968 496.899Z" fill="#66B9FF"/>
<path d="M114.079 493.422L160.515 512.623L150.683 520.333L131.322 535.603L114.079 493.422Z" fill="white"/>
<path d="M199.236 480.419L178.968 496.899L114.08 493.422L199.236 480.419Z" fill="white"/>
<path d="M114.08 493.422L160.515 512.623L184.867 531.824L178.968 496.899L199.236 480.419L114.08 493.422Z" stroke="#10318B" stroke-linecap="round" stroke-linejoin="round"/>
<path d="M178.968 496.899L114.079 493.422L131.322 535.603L150.683 520.333L160.515 512.623" stroke="#10318B" stroke-linecap="round" stroke-linejoin="round"/>
<path d="M184.867 531.824L150.683 520.333" stroke="#10318B" stroke-linecap="round" stroke-linejoin="round"/>
<path d="M484.05 344.047L453.194 339.814L485.26 356.445L484.05 344.047Z" fill="#277AC1"/>
<path d="M482.537 319.857L453.194 339.814L484.05 344.047L530.031 364.004L482.537 319.857Z" fill="#66B9FF"/>
<path d="M530.031 364.004L484.05 344.047L485.26 356.445L487.831 380.937L530.031 364.004Z" fill="white"/>
<path d="M480.268 293.853L482.537 319.857L530.031 364.004L480.268 293.853Z" fill="white"/>
<path d="M530.031 364.004L484.05 344.047L453.194 339.814L482.537 319.857L480.268 293.853L530.031 364.004Z" stroke="#10318B" stroke-linecap="round" stroke-linejoin="round"/>
<path d="M482.537 319.857L530.031 364.004L487.831 380.937L485.26 356.445L484.05 344.047" stroke="#10318B" stroke-linecap="round" stroke-linejoin="round"/>
<path d="M453.194 339.814L485.26 356.445" stroke="#10318B" stroke-linecap="round" stroke-linejoin="round"/>
<path d="M18.7891 150.828L119.071 110.763C128.147 107.135 136.012 112.275 136.314 122.254L137.676 155.969C138.129 165.947 131.02 176.984 121.794 180.612L112.719 184.241C114.231 187.567 117.559 190.591 124.365 190.893C123.306 191.347 122.248 191.8 121.189 192.254C110.45 196.487 100.467 196.638 93.6604 191.8L21.5117 220.677C12.4364 224.306 4.57108 219.166 4.26857 209.187L2.90727 175.472C2.60477 165.494 9.71377 154.457 18.7891 150.828Z" fill="#82D15C"/>
<path d="M18.7891 150.828L119.071 110.763C128.147 107.135 136.012 112.275 136.314 122.254L137.676 155.969C138.129 165.947 131.02 176.984 121.794 180.612L112.719 184.241C114.231 187.567 117.559 190.591 124.365 190.893C123.306 191.347 122.248 191.8 121.189 192.254C110.45 196.487 100.467 196.638 93.6604 191.8L21.5117 220.677C12.4364 224.306 4.57108 219.166 4.26857 209.187L2.90728 175.472C2.60477 165.494 9.71376 154.457 18.7891 150.828Z" stroke="#10318B" stroke-linecap="round" stroke-linejoin="round"/>
<path d="M105.156 149.619C108.635 148.258 111.66 150.224 111.811 154.003C111.963 157.783 109.24 162.168 105.761 163.528C102.282 164.889 99.2572 162.924 99.1059 159.144C98.9547 155.213 101.677 150.98 105.156 149.619Z" fill="white"/>
<path d="M82.0145 158.841C85.4934 157.481 88.5185 159.446 88.6698 163.226C88.821 167.006 86.0984 171.239 82.6196 172.751C79.1407 174.111 76.1156 172.146 75.9643 168.366C75.6618 164.587 78.3844 160.202 82.0145 158.841Z" fill="white"/>
<path d="M58.7206 168.215C62.1994 166.854 65.2246 168.82 65.3758 172.6C65.5271 176.379 62.8045 180.613 59.3256 182.124C55.8467 183.485 52.8216 181.52 52.6703 177.74C52.5191 173.809 55.2417 169.576 58.7206 168.215Z" fill="white"/>
<path d="M35.4276 177.438C38.9065 176.077 41.9316 178.042 42.0829 181.822C42.2341 185.602 39.5115 189.986 36.0326 191.347C32.5538 192.708 29.5287 190.742 29.3774 186.962C29.2262 183.183 31.9488 178.798 35.4276 177.438Z" fill="white"/>
<path d="M376.659 511.262C380.592 510.96 384.676 513.379 387.096 517.007C387.398 513.076 389.97 510.053 393.902 509.75C399.045 509.297 404.49 513.53 406.154 519.275C407.818 525.474 404.944 530.312 402.221 533.941C400.406 536.511 398.44 538.476 398.137 538.627L394.054 542.709L388.003 539.534C387.701 539.383 384.827 537.871 381.651 535.755C377.113 532.731 371.819 528.649 370.004 522.45C368.643 516.705 371.517 511.716 376.659 511.262Z" fill="#F04A62" stroke="#10318B" stroke-linecap="round" stroke-linejoin="round"/>
<path d="M149.474 42.4255C145.541 42.1232 141.457 44.5422 139.037 48.1707C138.735 44.2398 136.163 41.216 132.231 40.9137C127.088 40.4601 121.643 44.6934 119.979 50.4386C118.315 56.6373 121.189 61.4753 123.912 65.1039C125.727 67.6741 127.693 69.6395 127.996 69.7907L132.079 73.8728L138.13 70.6978C138.432 70.5467 141.306 69.0348 144.482 66.9181C149.02 63.8944 154.314 59.8123 156.129 53.6135C157.49 47.8683 154.616 42.8791 149.474 42.4255Z" fill="#F04A62" stroke="#10318B" stroke-linecap="round" stroke-linejoin="round"/>
<path d="M526.855 236.25C530.788 237.157 533.057 240.332 532.905 244.263C535.779 240.936 540.317 239.122 544.25 240.029C549.392 241.088 551.812 246.379 549.392 251.671C546.821 257.416 540.922 260.893 535.931 263.161C532.452 264.824 529.275 265.883 528.973 266.034L522.469 268.302L518.839 263.766C518.687 263.464 516.872 261.347 515.36 258.626C513.091 254.695 510.822 249.554 513.242 243.809C515.662 238.669 521.713 235.191 526.855 236.25Z" fill="#F04A62" stroke="#10318B" stroke-linecap="round" stroke-linejoin="round"/>
<path d="M412.204 49.0781C415.531 50.2876 419.01 53.9161 420.825 57.6958C421.279 54.6721 423.699 53.4626 427.178 54.6721C431.564 56.3351 435.951 61.7779 437.01 66.9184C438.068 72.5123 435.346 75.2337 432.774 76.8968C430.959 78.1063 429.296 78.8623 428.993 79.0135L425.212 80.6765L420.22 75.8385C419.918 75.5361 417.498 73.2683 415.078 70.3957C411.447 66.3136 407.061 60.8708 406.002 55.428C404.944 50.1364 407.666 47.415 412.204 49.0781Z" fill="#F04A62" stroke="#10318B" stroke-linecap="round" stroke-linejoin="round"/>
<path d="M136.011 407.849C139.339 409.058 142.818 412.687 144.633 416.467C145.087 413.443 147.507 412.233 150.986 413.443C155.372 415.106 159.758 420.549 160.817 425.689C161.876 431.283 159.153 434.004 156.582 435.668C154.767 436.877 153.103 437.633 152.801 437.784L149.019 439.447L144.028 434.609C143.725 434.307 141.305 432.039 138.885 429.166C135.255 425.084 130.869 419.642 129.81 414.199C128.751 408.907 131.625 406.186 136.011 407.849Z" fill="#F04A62" stroke="#10318B" stroke-linecap="round" stroke-linejoin="round"/>
<path d="M22.3238 287.601C19.8134 274.563 28.352 261.96 41.3951 259.451C54.4383 256.942 67.0468 265.477 69.5572 278.514C72.0675 291.551 63.529 304.154 50.4859 306.664C37.4427 309.173 24.8341 300.638 22.3238 287.601Z" fill="#FFD06C" stroke="#10318B" stroke-linecap="round" stroke-linejoin="round"/>
<path d="M46.3169 284.63C51.3084 283.723 56.1485 283.723 60.2324 284.781C60.6862 291.585 55.9973 297.783 49.1908 299.144C42.3843 300.505 35.7291 296.423 33.6115 289.922C36.9391 287.503 41.3255 285.688 46.3169 284.63Z" fill="#10318B" stroke="#10318B" stroke-linecap="round" stroke-linejoin="round"/>
<path d="M47.0742 288.259C51.4606 287.352 55.847 288.712 58.8721 291.585C57.057 295.365 53.5781 298.237 49.1917 298.993C44.8053 299.9 40.419 298.54 37.3938 295.667C39.0577 292.038 42.6878 289.166 47.0742 288.259Z" fill="#F04A62" stroke="#10318B" stroke-linecap="round" stroke-linejoin="round"/>
<path d="M54.6366 271.779L51.3089 274.954L55.6953 276.919" stroke="#10318B" stroke-width="2" stroke-linecap="round" stroke-linejoin="round"/>
<path d="M33.763 275.71L38.1494 277.524L34.8218 280.85" stroke="#10318B" stroke-width="2" stroke-linecap="round" stroke-linejoin="round"/>
<path d="M67.6438 443.076C73.2403 445.193 79.4417 442.32 81.5593 436.726L103.491 377.158C105.609 371.564 102.735 365.365 97.1386 363.248L37.544 341.326C31.9476 339.209 25.7461 342.082 23.6285 347.676L1.69653 407.244C-0.421036 412.838 2.45278 419.037 8.04922 421.154L67.6438 443.076Z" fill="white" stroke="#10318B" stroke-linecap="round" stroke-linejoin="round"/>
<path d="M8.50303 409.663C7.74676 411.478 8.80553 413.594 10.6206 414.35L70.2152 436.272C72.0302 437.028 74.1478 435.97 74.9041 434.156L96.8361 374.587C97.5924 372.773 96.5336 370.657 94.7185 369.901L35.124 347.978C33.3089 347.222 31.1913 348.281 30.435 350.095L8.50303 409.663Z" fill="#66B9FF" stroke="#10318B" stroke-linecap="round" stroke-linejoin="round"/>
<path d="M36.949 392.041C28.8774 389.061 24.7509 380.105 27.7323 372.037C30.7136 363.969 39.6738 359.844 47.7454 362.824C55.817 365.804 59.9435 374.761 56.9621 382.829C53.9808 390.897 45.0206 395.021 36.949 392.041Z" fill="#FFD06C" stroke="#10318B" stroke-linecap="round" stroke-linejoin="round"/>
<path d="M18.335 382.752L32.4017 372.773L46.0146 427.504L10.6209 414.502C8.80586 413.746 7.74709 411.78 8.50336 409.815L18.335 382.752Z" fill="#45B563" stroke="#10318B" stroke-linecap="round" stroke-linejoin="round"/>
<path d="M70.0642 436.424L18.9399 417.525L74.4506 377.914L82.9209 412.233L74.7531 434.307C73.9968 436.121 72.0305 437.028 70.0642 436.424Z" fill="#82D15C" stroke="#10318B" stroke-linecap="round" stroke-linejoin="round"/>
<path d="M178.968 197.999H182.296V194.673C182.296 193.615 183.203 192.708 184.262 192.708C185.321 192.708 186.229 193.615 186.229 194.673V197.999H189.556C190.615 197.999 191.522 198.906 191.522 199.965C191.522 201.023 190.615 201.93 189.556 201.93H186.229V205.256C186.229 206.315 185.321 207.222 184.262 207.222C183.203 207.222 182.296 206.315 182.296 205.256V201.93H178.968C177.909 201.93 177.002 201.023 177.002 199.965C177.153 198.906 177.909 197.999 178.968 197.999Z" fill="#66B9FF"/>
<path d="M261.705 391.218H265.032V387.892C265.032 386.834 265.94 385.927 266.999 385.927C268.057 385.927 268.965 386.834 268.965 387.892V391.218H272.292C273.351 391.218 274.259 392.125 274.259 393.184C274.259 394.242 273.351 395.149 272.292 395.149H268.965V398.475C268.965 399.534 268.057 400.441 266.999 400.441C265.94 400.441 265.032 399.534 265.032 398.475V395.149H261.705C260.646 395.149 259.738 394.242 259.738 393.184C259.738 392.125 260.646 391.218 261.705 391.218Z" fill="#FFD06C"/>
</svg>
